<svg width="20" height="19" viewBox="0 0 20 19" fill="none" xmlns="http://www.w3.org/2000/svg">
<path d="M2.60417 16.6146H4.06651L14.0977 6.58344L12.6353 5.1211L2.60417 15.1523V16.6146ZM0.551758 18.667V14.3056L14.0977 0.785381C14.3029 0.597243 14.5297 0.451864 14.778 0.349243C15.0264 0.246623 15.287 0.195312 15.56 0.195312C15.833 0.195312 16.0981 0.246623 16.3553 0.349243C16.6126 0.451864 16.8349 0.605795 17.0224 0.811036L18.4334 2.24772C18.6386 2.43586 18.7885 2.65821 18.8829 2.91476C18.9773 3.17131 19.0241 3.42786 19.0235 3.68441C19.0235 3.95807 18.9766 4.21906 18.8829 4.46741C18.7891 4.71575 18.6393 4.9422 18.4334 5.14675L4.91313 18.667H0.551758ZM13.3537 5.8651L12.6353 5.1211L14.0977 6.58344L13.3537 5.8651Z" fill="#201A23"/>
</svg>
