<svg width="72" height="67" viewBox="0 0 72 67" fill="none" xmlns="http://www.w3.org/2000/svg">
<path d="M71.25 14.25V16.625C71.25 16.9399 71.1249 17.242 70.9022 17.4647C70.6795 17.6874 70.3774 17.8125 70.0625 17.8125H66.5V19.5937C66.5 20.5774 65.7024 21.375 64.7188 21.375H6.53125C5.54755 21.375 4.75 20.5774 4.75 19.5937V17.8125H1.1875C0.872555 17.8125 0.57051 17.6874 0.347811 17.4647C0.125111 17.242 0 16.9399 0 16.625V14.25C1.69834e-06 14.0151 0.0696881 13.7854 0.200242 13.5901C0.330797 13.3948 0.516351 13.2426 0.73343 13.1527L35.1709 0.0902414C35.4617 -0.0300805 35.7883 -0.0300805 36.0791 0.0902414L70.5166 13.1527C70.7337 13.2426 70.9192 13.3948 71.0498 13.5901C71.1803 13.7854 71.25 14.0151 71.25 14.25ZM67.6875 59.375H3.5625C1.59496 59.375 0 60.9699 0 62.9375V65.3125C0 65.6274 0.125111 65.9295 0.347811 66.1522C0.57051 66.3749 0.872555 66.5 1.1875 66.5H70.0625C70.3774 66.5 70.6795 66.3749 70.9022 66.1522C71.1249 65.9295 71.25 65.6274 71.25 65.3125V62.9375C71.25 60.9699 69.655 59.375 67.6875 59.375ZM11.875 23.75V52.25H6.53125C5.54755 52.25 4.75 53.0475 4.75 54.0312V57H66.5V54.0312C66.5 53.0475 65.7024 52.25 64.7188 52.25H59.375V23.75H49.875V52.25H40.375V23.75H30.875V52.25H21.375V23.75H11.875Z" fill="#201A23"/>
</svg>
