<svg width="72" height="80" viewBox="0 0 72 80" fill="none" xmlns="http://www.w3.org/2000/svg">
<path fill-rule="evenodd" clip-rule="evenodd" d="M0 4.44444C0 3.2657 0.468254 2.13524 1.30175 1.30175C2.13524 0.468252 3.2657 0 4.44444 0H66.6667C67.8454 0 68.9759 0.468252 69.8094 1.30175C70.6429 2.13524 71.1111 3.2657 71.1111 4.44444C71.1111 5.62318 70.6429 6.75365 69.8094 7.58714C68.9759 8.42064 67.8454 8.88889 66.6667 8.88889V71.1111C67.8454 71.1111 68.9759 71.5794 69.8094 72.4129C70.6429 73.2464 71.1111 74.3768 71.1111 75.5556C71.1111 76.7343 70.6429 77.8648 69.8094 78.6983C68.9759 79.5318 67.8454 80 66.6667 80H4.44444C3.2657 80 2.13524 79.5318 1.30175 78.6983C0.468254 77.8648 0 76.7343 0 75.5556C0 74.3768 0.468254 73.2464 1.30175 72.4129C2.13524 71.5794 3.2657 71.1111 4.44444 71.1111V8.88889C3.2657 8.88889 2.13524 8.42064 1.30175 7.58714C0.468254 6.75365 0 5.62318 0 4.44444ZM22.2222 13.3333C21.0435 13.3333 19.913 13.8016 19.0795 14.6351C18.246 15.4686 17.7778 16.599 17.7778 17.7778V22.2222C17.7778 23.401 18.246 24.5314 19.0795 25.3649C19.913 26.1984 21.0435 26.6667 22.2222 26.6667H26.6667C27.8454 26.6667 28.9759 26.1984 29.8094 25.3649C30.6429 24.5314 31.1111 23.401 31.1111 22.2222V17.7778C31.1111 16.599 30.6429 15.4686 29.8094 14.6351C28.9759 13.8016 27.8454 13.3333 26.6667 13.3333H22.2222ZM44.4444 13.3333C43.2657 13.3333 42.1352 13.8016 41.3018 14.6351C40.4683 15.4686 40 16.599 40 17.7778V22.2222C40 23.401 40.4683 24.5314 41.3018 25.3649C42.1352 26.1984 43.2657 26.6667 44.4444 26.6667H48.8889C50.0676 26.6667 51.1981 26.1984 52.0316 25.3649C52.8651 24.5314 53.3333 23.401 53.3333 22.2222V17.7778C53.3333 16.599 52.8651 15.4686 52.0316 14.6351C51.1981 13.8016 50.0676 13.3333 48.8889 13.3333H44.4444ZM22.2222 31.1111C21.0435 31.1111 19.913 31.5794 19.0795 32.4129C18.246 33.2464 17.7778 34.3768 17.7778 35.5556V40C17.7778 41.1787 18.246 42.3092 19.0795 43.1427C19.913 43.9762 21.0435 44.4444 22.2222 44.4444H26.6667C27.8454 44.4444 28.9759 43.9762 29.8094 43.1427C30.6429 42.3092 31.1111 41.1787 31.1111 40V35.5556C31.1111 34.3768 30.6429 33.2464 29.8094 32.4129C28.9759 31.5794 27.8454 31.1111 26.6667 31.1111H22.2222ZM44.4444 31.1111C43.2657 31.1111 42.1352 31.5794 41.3018 32.4129C40.4683 33.2464 40 34.3768 40 35.5556V40C40 41.1787 40.4683 42.3092 41.3018 43.1427C42.1352 43.9762 43.2657 44.4444 44.4444 44.4444H48.8889C50.0676 44.4444 51.1981 43.9762 52.0316 43.1427C52.8651 42.3092 53.3333 41.1787 53.3333 40V35.5556C53.3333 34.3768 52.8651 33.2464 52.0316 32.4129C51.1981 31.5794 50.0676 31.1111 48.8889 31.1111H44.4444ZM31.1111 48.8889C28.7536 48.8889 26.4927 49.8254 24.8257 51.4924C23.1587 53.1594 22.2222 55.4203 22.2222 57.7778V71.1111H31.1111V57.7778H40V71.1111H48.8889V57.7778C48.8889 55.4203 47.9524 53.1594 46.2854 51.4924C44.6184 49.8254 42.3575 48.8889 40 48.8889H31.1111Z" fill="black"/>
</svg>
