<svg width="30" height="27" viewBox="0 0 30 27" fill="none" xmlns="http://www.w3.org/2000/svg">
<path d="M14.2931 2.29336C14.4806 2.10609 14.7348 2.00091 14.9998 2.00091C15.2648 2.00091 15.5189 2.10609 15.7064 2.29336L27.2931 13.88C27.3854 13.9755 27.4958 14.0516 27.6178 14.104C27.7398 14.1563 27.8711 14.1838 28.0038 14.1849C28.1366 14.186 28.2683 14.1607 28.3912 14.1103C28.514 14.06 28.6256 13.9857 28.7195 13.8917C28.8133 13.7978 28.8875 13.6861 28.9378 13.5632C28.988 13.4403 29.0132 13.3086 29.012 13.1758C29.0108 13.043 28.9831 12.9118 28.9307 12.7899C28.8782 12.6679 28.802 12.5576 28.7064 12.4654L17.1211 0.878693C16.8425 0.600113 16.5118 0.379131 16.1478 0.228365C15.7838 0.0775985 15.3937 0 14.9998 0C14.6058 0 14.2157 0.0775985 13.8517 0.228365C13.4877 0.379131 13.157 0.600113 12.8784 0.878693L1.29176 12.4654C1.1963 12.5577 1.12017 12.668 1.06782 12.7901C1.01546 12.9121 0.987941 13.0433 0.98685 13.1761C0.985759 13.3089 1.01112 13.4405 1.06146 13.5634C1.1118 13.6863 1.18611 13.7979 1.28004 13.8918C1.37398 13.9856 1.48567 14.0598 1.60859 14.11C1.73151 14.1603 1.8632 14.1855 1.99597 14.1843C2.12875 14.1831 2.25996 14.1554 2.38194 14.1029C2.50392 14.0505 2.61423 13.9742 2.70643 13.8787L14.2931 2.29336Z" fill="#A3A1A1"/>
<path d="M15 4.41406L25.8787 15.2927C25.9187 15.3318 25.9591 15.3701 26 15.4074V23.6714C26 25.0514 24.88 26.1714 23.5 26.1714H19C18.7348 26.1714 18.4804 26.066 18.2929 25.8785C18.1054 25.691 18 25.4366 18 25.1714V19.1714C18 18.9062 17.8946 18.6518 17.7071 18.4643C17.5196 18.2768 17.2652 18.1714 17 18.1714H13C12.7348 18.1714 12.4804 18.2768 12.2929 18.4643C12.1054 18.6518 12 18.9062 12 19.1714V25.1714C12 25.4366 11.8946 25.691 11.7071 25.8785C11.5196 26.066 11.2652 26.1714 11 26.1714H6.5C5.83696 26.1714 5.20107 25.908 4.73223 25.4392C4.26339 24.9703 4 24.3344 4 23.6714V15.4074L4.12133 15.2927L15 4.41406Z" fill="#A3A1A1"/>
</svg>
