<svg width="29" height="29" viewBox="0 0 29 29" fill="none" xmlns="http://www.w3.org/2000/svg">
<path d="M21.4624 0.357422C22.616 0.357358 23.7259 0.798092 24.5652 1.58945C25.4045 2.38081 25.9096 3.46296 25.9773 4.61451L25.9848 4.87982V19.9545H27.1154C28.0908 19.9545 28.8942 20.6961 28.9907 21.6459L28.9998 21.8388V24.4769C28.9998 25.6304 28.5591 26.7404 27.7677 27.5796C26.9764 28.4189 25.8942 28.9241 24.7427 28.9917L24.4774 28.9993H9.40271C8.24918 28.9993 7.13922 28.5586 6.29995 27.7672C5.46067 26.9759 4.95552 25.8937 4.88785 24.7422L4.88031 24.4769V9.40222H2.24224C1.77575 9.40243 1.32575 9.22959 0.979339 8.91715C0.632927 8.60472 0.414724 8.17489 0.366955 7.71084L0.35791 7.51788V4.87982C0.357846 3.72629 0.79858 2.61634 1.58994 1.77706C2.38129 0.937786 3.46345 0.432633 4.61499 0.364959L4.88031 0.357422H21.4624ZM21.4624 3.37235H7.89524V24.4769C7.89524 24.8767 8.05406 25.2601 8.33677 25.5428C8.61947 25.8255 9.0029 25.9843 9.40271 25.9843C9.80251 25.9843 10.1859 25.8255 10.4686 25.5428C10.7513 25.2601 10.9102 24.8767 10.9102 24.4769V21.8388C10.9102 20.7987 11.7544 19.9545 12.7945 19.9545H22.9699V4.87982C22.9699 4.48001 22.8111 4.09659 22.5284 3.81388C22.2457 3.53118 21.8622 3.37235 21.4624 3.37235ZM25.9848 22.9694H13.9251V24.4769C13.9251 25.0045 13.8347 25.5125 13.6688 25.9843H24.4774C24.8772 25.9843 25.2606 25.8255 25.5433 25.5428C25.826 25.2601 25.9848 24.8767 25.9848 24.4769V22.9694ZM15.4326 13.9246C15.8324 13.9246 16.2158 14.0834 16.4985 14.3661C16.7812 14.6488 16.94 15.0323 16.94 15.4321C16.94 15.8319 16.7812 16.2153 16.4985 16.498C16.2158 16.7807 15.8324 16.9395 15.4326 16.9395H12.4176C12.0178 16.9395 11.6344 16.7807 11.3517 16.498C11.069 16.2153 10.9102 15.8319 10.9102 15.4321C10.9102 15.0323 11.069 14.6488 11.3517 14.3661C11.6344 14.0834 12.0178 13.9246 12.4176 13.9246H15.4326ZM18.4475 7.89475C18.8473 7.89475 19.2307 8.05357 19.5134 8.33628C19.7961 8.61898 19.955 9.00241 19.955 9.40222C19.955 9.80202 19.7961 10.1855 19.5134 10.4682C19.2307 10.7509 18.8473 10.9097 18.4475 10.9097H12.4176C12.0178 10.9097 11.6344 10.7509 11.3517 10.4682C11.069 10.1855 10.9102 9.80202 10.9102 9.40222C10.9102 9.00241 11.069 8.61898 11.3517 8.33628C11.6344 8.05357 12.0178 7.89475 12.4176 7.89475H18.4475ZM4.88031 3.37235C4.51108 3.3724 4.15471 3.50796 3.87879 3.75331C3.60287 3.99867 3.42659 4.33675 3.38339 4.70345L3.37284 4.87982V6.38729H4.88031V3.37235Z" fill="#A3A1A1"/>
</svg>
