<svg width="40" height="35" viewBox="0 0 40 35" fill="none" xmlns="http://www.w3.org/2000/svg">
<path d="M0 29.0723C0 26.4201 1.05357 23.8766 2.92893 22.0012C4.8043 20.1258 7.34784 19.0723 10 19.0723H30C32.6522 19.0723 35.1957 20.1258 37.0711 22.0012C38.9464 23.8766 40 26.4201 40 29.0723C40 30.3983 39.4732 31.6701 38.5355 32.6078C37.5979 33.5455 36.3261 34.0723 35 34.0723H5C3.67392 34.0723 2.40215 33.5455 1.46447 32.6078C0.526784 31.6701 0 30.3983 0 29.0723Z" fill="#201A23"/>
<path d="M20.1665 15.7383C24.3086 15.7383 27.6665 12.3804 27.6665 8.23828C27.6665 4.09615 24.3086 0.738281 20.1665 0.738281C16.0244 0.738281 12.6665 4.09615 12.6665 8.23828C12.6665 12.3804 16.0244 15.7383 20.1665 15.7383Z" fill="#201A23"/>
</svg>
