<svg width="20" height="20" viewBox="0 0 20 20" fill="none" xmlns="http://www.w3.org/2000/svg">
<path d="M9.09997 1.00049C5.44999 1.00749 3.53999 1.09649 2.318 2.31848C1 3.63648 1 5.75747 1 10.0005C1 14.2434 1 16.3644 2.318 17.6824C3.63599 19.0004 5.75798 19.0004 9.99997 19.0004C14.242 19.0004 16.364 19.0004 17.6829 17.6824C18.9029 16.4614 18.9929 14.5494 18.9999 10.9005" stroke="#6A0DAD" stroke-width="1.99999" stroke-linecap="round" stroke-linejoin="round"/>
<path d="M19 4.02548L18 4.02348C14.263 4.01348 12.395 4.00848 11.082 4.95348C10.645 5.26647 10.262 5.64847 9.947 6.08347C9 7.39647 9 9.26446 9 13.0005M19 4.02548C19.0022 3.85189 18.9398 3.68367 18.825 3.55348C18.06 2.64748 16.071 1.00049 16.071 1.00049M19 4.02548C18.9907 4.18164 18.9295 4.3302 18.826 4.44748C18.06 5.35347 16.07 7.00047 16.07 7.00047" stroke="#6A0DAD" stroke-width="1.99999" stroke-linecap="round" stroke-linejoin="round"/>
</svg>
