<svg width="34" height="39" viewBox="0 0 34 39" fill="none" xmlns="http://www.w3.org/2000/svg">
<path d="M21.169 30.9187V32.1958C21.169 33.5506 20.6308 34.8499 19.6728 35.8079C18.7148 36.7659 17.4155 37.3041 16.0607 37.3041C14.7059 37.3041 13.4066 36.7659 12.4486 35.8079C11.4906 34.8499 10.9524 33.5506 10.9524 32.1958V30.9187M29.7637 28.319C27.714 25.8104 26.2669 24.5333 26.2669 17.6171C26.2669 11.2836 23.0327 9.02719 20.3708 7.9313C20.0172 7.78603 19.6844 7.45239 19.5767 7.08922C19.1097 5.50006 17.8007 4.10007 16.0607 4.10007C14.3207 4.10007 13.0109 5.50086 12.5487 7.09082C12.441 7.45798 12.1082 7.78603 11.7546 7.9313C9.08947 9.02878 5.85846 11.2772 5.85846 17.6171C5.85447 24.5333 4.40738 25.8104 2.35768 28.319C1.50842 29.3582 2.25232 30.9187 3.73772 30.9187H28.3917C29.8691 30.9187 30.6082 29.3535 29.7637 28.319Z" stroke="#201A23" stroke-width="3" stroke-linecap="round" stroke-linejoin="round"/>
<circle cx="25.5193" cy="11.0439" r="7.83983" fill="#6A0DAD"/>
<path d="M26.6048 5.75246V15.9641H24.9758V7.49091L22.9636 8.65444L22.9225 7.09394L24.9758 5.75246H26.6048Z" fill="white"/>
</svg>
