<svg width="51" height="51" viewBox="0 0 51 51" fill="none" xmlns="http://www.w3.org/2000/svg">
<circle cx="25.3009" cy="25.3009" r="25.3009" fill="#201A23"/>
<path d="M17.1893 28.0326L12.2534 19.2685H15.5181L18.8217 25.5647L21.756 19.2685H25.0012L20.0653 28.0326V33.843H17.1893V28.0326ZM30.5213 19.2685H34.1552L39.266 33.843H36.0207L35.1268 30.9281H29.3165L28.306 33.843H25.3134L30.5213 19.2685ZM29.9772 28.5767H34.5244L32.1925 21.9113L29.9772 28.5767Z" fill="white"/>
<circle cx="42.788" cy="42.7881" r="7.80127" fill="#6A0DAD" stroke="white" stroke-width="0.821186"/>
<path fill-rule="evenodd" clip-rule="evenodd" d="M42.7881 43.621L46.2098 40.3246L46.894 40.9838L43.1302 44.6098C43.0394 44.6972 42.9164 44.7463 42.7881 44.7463C42.6597 44.7463 42.5367 44.6972 42.4459 44.6098L38.6821 40.9838L39.3664 40.3246L42.7881 43.621Z" fill="white"/>
</svg>
