<svg width="34" height="34" viewBox="0 0 34 34" fill="none" xmlns="http://www.w3.org/2000/svg">
<path d="M25.0526 1.91569e-06C26.422 -7.43631e-05 27.7396 0.52311 28.7358 1.46251C29.7321 2.40191 30.3318 3.68651 30.4121 5.05348L30.4211 5.36842V23.2632H31.7632C32.9209 23.2632 33.8747 24.1436 33.9893 25.2709L34 25.5V28.6316C34.0001 30.0009 33.4769 31.3185 32.5375 32.3148C31.5981 33.3111 30.3135 33.9107 28.9465 33.9911L28.6316 34H10.7368C9.36752 34.0001 8.04992 33.4769 7.05364 32.5375C6.05736 31.5981 5.4577 30.3135 5.37737 28.9465L5.36842 28.6316V10.7368H2.23684C1.68308 10.7371 1.1489 10.5319 0.737682 10.161C0.326465 9.79015 0.0674426 9.27991 0.0107369 8.72905L8.33975e-09 8.5V5.36842C-7.62705e-05 3.9991 0.523108 2.6815 1.46251 1.68522C2.40191 0.688937 3.68651 0.0892832 5.05347 0.00894949L5.36842 1.91569e-06H25.0526ZM25.0526 3.57895H8.94737V28.6316C8.94737 29.1062 9.1359 29.5613 9.47149 29.8969C9.80709 30.2325 10.2622 30.4211 10.7368 30.4211C11.2114 30.4211 11.6666 30.2325 12.0022 29.8969C12.3378 29.5613 12.5263 29.1062 12.5263 28.6316V25.5C12.5263 24.2653 13.5284 23.2632 14.7632 23.2632H26.8421V5.36842C26.8421 4.89383 26.6536 4.43867 26.318 4.10307C25.9824 3.76748 25.5272 3.57895 25.0526 3.57895ZM30.4211 26.8421H16.1053V28.6316C16.1053 29.2579 15.9979 29.8609 15.8011 30.4211H28.6316C29.1062 30.4211 29.5613 30.2325 29.8969 29.8969C30.2325 29.5613 30.4211 29.1062 30.4211 28.6316V26.8421ZM17.8947 16.1053C18.3693 16.1053 18.8245 16.2938 19.1601 16.6294C19.4957 16.965 19.6842 17.4201 19.6842 17.8947C19.6842 18.3693 19.4957 18.8245 19.1601 19.1601C18.8245 19.4957 18.3693 19.6842 17.8947 19.6842H14.3158C13.8412 19.6842 13.386 19.4957 13.0504 19.1601C12.7148 18.8245 12.5263 18.3693 12.5263 17.8947C12.5263 17.4201 12.7148 16.965 13.0504 16.6294C13.386 16.2938 13.8412 16.1053 14.3158 16.1053H17.8947ZM21.4737 8.94737C21.9483 8.94737 22.4034 9.1359 22.739 9.4715C23.0746 9.80709 23.2632 10.2622 23.2632 10.7368C23.2632 11.2114 23.0746 11.6666 22.739 12.0022C22.4034 12.3378 21.9483 12.5263 21.4737 12.5263H14.3158C13.8412 12.5263 13.386 12.3378 13.0504 12.0022C12.7148 11.6666 12.5263 11.2114 12.5263 10.7368C12.5263 10.2622 12.7148 9.80709 13.0504 9.4715C13.386 9.1359 13.8412 8.94737 14.3158 8.94737H21.4737ZM5.36842 3.57895C4.93012 3.57901 4.50708 3.73992 4.17954 4.03118C3.85201 4.32243 3.64275 4.72376 3.59147 5.15905L3.57895 5.36842V7.1579H5.36842V3.57895Z" fill="#201A23"/>
</svg>
