<svg width="675" height="691" viewBox="0 0 675 691" fill="none" xmlns="http://www.w3.org/2000/svg">
<g clip-path="url(#clip0_1036_7893)">
<path d="M1.22388 688.228L83.8777 687.826L166.515 687.697L331.823 687.424L497.115 687.697L579.753 687.826L662.406 688.228L579.753 688.614L497.115 688.759L331.823 689.032L166.515 688.759L83.8777 688.614L1.22388 688.228Z" fill="#263238"/>
<path d="M112.764 668.282V54.9486C112.764 43.4971 122.044 34.2168 133.496 34.2168H530.118C541.57 34.2168 550.85 43.4971 550.85 54.9486V668.282C550.85 679.734 541.57 689.014 530.118 689.014H133.496C122.044 689.03 112.764 679.734 112.764 668.282Z" fill="#6A0DAD"/>
<path d="M532.386 80.0391H131.759V643.594H532.386V80.0391Z" fill="white"/>
<path d="M284.135 62.2031V59.4206C284.135 58.3108 285.036 57.4102 286.145 57.4102H377.468C378.578 57.4102 379.479 58.3108 379.479 59.4206V62.2031C379.479 63.3129 378.578 64.2135 377.468 64.2135H286.145C285.036 64.2135 284.135 63.3129 284.135 62.2031Z" fill="#1F0735"/>
<path d="M343.758 668.702C345.4 662.09 341.371 655.399 334.759 653.757C328.147 652.115 321.455 656.144 319.813 662.756C318.171 669.368 322.201 676.06 328.813 677.702C335.425 679.343 342.116 675.314 343.758 668.702Z" fill="#481670"/>
<path d="M532.386 80.0391H131.758V643.594H532.386V80.0391Z" fill="white"/>
<path d="M532.386 79.0098H131.758V93.8067H532.386V79.0098Z" fill="#1F0735"/>
<path d="M144.079 86.9239C144.079 88.5162 142.792 89.8029 141.2 89.8029C139.607 89.8029 138.321 88.5162 138.321 86.9239C138.321 85.3316 139.607 84.0449 141.2 84.0449C142.776 84.0449 144.079 85.3316 144.079 86.9239Z" fill="#C7C7C7"/>
<path d="M155.851 86.9239C155.851 88.5162 154.564 89.8029 152.972 89.8029C151.38 89.8029 150.093 88.5162 150.093 86.9239C150.093 85.3316 151.38 84.0449 152.972 84.0449C154.564 84.0449 155.851 85.3316 155.851 86.9239Z" fill="white"/>
<path d="M167.641 86.9239C167.641 88.5162 166.354 89.8029 164.762 89.8029C163.169 89.8029 161.883 88.5162 161.883 86.9239C161.883 85.3316 163.169 84.0449 164.762 84.0449C166.354 84.0449 167.641 85.3316 167.641 86.9239Z" fill="#481670"/>
<path d="M170.151 335.623L165.052 340.4L170.151 345.177" stroke="#C7C7C7" stroke-width="1.20627" stroke-miterlimit="10"/>
<path d="M177.083 340.4C177.083 345.097 173.271 348.893 168.591 348.893C163.894 348.893 160.098 345.081 160.098 340.4C160.098 335.72 163.91 331.908 168.591 331.908C173.271 331.908 177.083 335.704 177.083 340.4Z" stroke="#C7C7C7" stroke-width="1.60836" stroke-miterlimit="10"/>
<path d="M493.48 345.177L498.579 340.4L493.48 335.623" stroke="#C7C7C7" stroke-width="1.20627" stroke-miterlimit="10"/>
<path d="M486.548 340.4C486.548 335.704 490.36 331.908 495.04 331.908C499.737 331.908 503.532 335.72 503.532 340.4C503.532 345.081 499.721 348.893 495.04 348.893C490.36 348.893 486.548 345.097 486.548 340.4Z" stroke="#C7C7C7" stroke-width="1.60836" stroke-miterlimit="10"/>
<path d="M438.441 427.303H348.421L351.235 370.383H404.279L438.441 427.303ZM356.157 419.937H425.397L400.097 377.765H358.248L356.157 419.937Z" fill="#1F0735"/>
<path opacity="0.5" d="M438.441 427.303H348.421L351.235 370.383H404.279L438.441 427.303ZM356.157 419.937H425.397L400.097 377.765H358.248L356.157 419.937Z" fill="#1F0735"/>
<path d="M433.519 427.303H343.499L346.313 370.383H399.357L433.519 427.303ZM351.251 419.937H420.491L395.192 377.765H353.342L351.251 419.937Z" fill="#1F0735"/>
<path opacity="0.3" d="M433.519 427.303H343.499L346.313 370.383H399.357L433.519 427.303ZM351.251 419.937H420.491L395.192 377.765H353.342L351.251 419.937Z" fill="#1F0735"/>
<path d="M323.853 454.346H336.173V428.724H323.853V454.346Z" fill="#A6A6A6"/>
<path d="M318.867 515.971H341.143V454.354H318.867V515.971Z" fill="#C7C7C7"/>
<path d="M341.137 485.535H350.932V481.402H341.137V485.535Z" fill="#A6A6A6"/>
<path d="M350.946 487.707H370.858V479.215H350.946V487.707Z" fill="#C7C7C7"/>
<path d="M316.002 541.867H344.711V515.973H316.002V541.867Z" fill="#C7C7C7"/>
<path d="M327.093 564.412H333.077L336.438 527.307H323.748L327.093 564.412Z" fill="#A6A6A6"/>
<path d="M408.574 554.603L413.897 550.534L344.706 523.465V541.865L408.574 554.603Z" fill="#A6A6A6"/>
<path d="M252.128 554.603L246.804 550.534L315.996 523.465V541.865L252.128 554.603Z" fill="#A6A6A6"/>
<path d="M318.867 515.967H341.143V509.179H318.867V515.967Z" fill="#A6A6A6"/>
<path d="M408.815 578.165C416.845 578.165 423.354 571.656 423.354 563.626C423.354 555.596 416.845 549.086 408.815 549.086C400.784 549.086 394.275 555.596 394.275 563.626C394.275 571.656 400.784 578.165 408.815 578.165Z" fill="#263238"/>
<path d="M401.979 563.625C401.979 567.404 405.035 570.46 408.815 570.46C412.594 570.46 415.65 567.404 415.65 563.625C415.65 559.845 412.594 556.789 408.815 556.789C405.035 556.789 401.979 559.845 401.979 563.625Z" fill="white"/>
<path d="M251.822 578.165C259.852 578.165 266.362 571.656 266.362 563.626C266.362 555.596 259.852 549.086 251.822 549.086C243.792 549.086 237.282 555.596 237.282 563.626C237.282 571.656 243.792 578.165 251.822 578.165Z" fill="#263238"/>
<path d="M244.987 563.625C244.987 567.404 248.042 570.46 251.822 570.46C255.602 570.46 258.658 567.404 258.658 563.625C258.658 559.845 255.602 556.789 251.822 556.789C248.042 556.789 244.987 559.845 244.987 563.625Z" fill="white"/>
<path d="M325.707 583.814H334.826V559.882H325.707V583.814Z" fill="#263238"/>
<path d="M238.538 428.748H439.519V413.469H364.28L338.997 260.449H246.194L238.538 428.748Z" fill="#481670"/>
<path opacity="0.1" d="M364.28 413.469H252.225L258.932 260.434H338.997L364.28 413.469Z" fill="black"/>
<path opacity="0.3" d="M439.52 413.469H322.431V428.748H439.52V413.469Z" fill="white"/>
<path d="M330.857 427.303H240.837L243.652 370.383H296.695L330.857 427.303ZM248.589 419.937H317.829L292.53 377.765H250.68L248.589 419.937Z" fill="#1F0735"/>
<path opacity="0.5" d="M330.857 427.303H240.837L243.652 370.383H296.695L330.857 427.303ZM248.589 419.937H317.829L292.53 377.765H250.68L248.589 419.937Z" fill="#1F0735"/>
<path d="M325.952 427.303H235.932L238.747 370.383H291.791L325.952 427.303ZM243.684 419.937H312.925L287.625 377.765H245.775L243.684 419.937Z" fill="#1F0735"/>
<path opacity="0.3" d="M325.952 427.303H235.932L238.747 370.383H291.791L325.952 427.303ZM243.684 419.937H312.925L287.625 377.765H245.775L243.684 419.937Z" fill="#1F0735"/>
<path d="M355.324 299.834L233.163 323.217L241.261 365.522L363.422 342.14L355.324 299.834Z" fill="#1F0735"/>
<path d="M259.559 347.93C259.495 347.897 259.446 347.881 259.366 347.849C259.366 347.833 259.334 347.833 259.334 347.785C259.27 347.753 259.221 347.704 259.189 347.672C259.189 347.672 259.173 347.672 259.157 347.656C259.125 347.608 259.06 347.528 258.996 347.495L250.488 334.677C250.086 334.082 250.231 333.245 250.874 332.843C251.469 332.441 252.289 332.602 252.707 333.213L259.479 343.362L262.02 331.428C262.181 330.704 262.904 330.238 263.612 330.415C264.336 330.543 264.786 331.283 264.658 331.975L261.441 347.029C261.425 347.077 261.425 347.174 261.377 347.238C261.377 347.254 261.377 347.254 261.36 347.27C261.344 347.318 261.28 347.383 261.264 347.431C261.248 347.479 261.248 347.479 261.232 347.511C261.2 347.576 261.151 347.608 261.119 347.656C261.119 347.656 261.119 347.656 261.071 347.688C261.023 347.72 260.974 347.801 260.91 347.849C260.894 347.849 260.894 347.849 260.862 347.881C260.797 347.897 260.749 347.93 260.685 347.962C260.685 347.962 260.669 347.962 260.637 347.978C260.54 348.026 260.476 348.026 260.395 348.042C260.331 348.058 260.235 348.074 260.154 348.058C260.154 348.058 260.138 348.058 260.106 348.074C260.058 348.058 259.961 348.058 259.913 348.058C259.913 348.026 259.881 348.042 259.881 348.042C259.881 348.042 259.881 348.042 259.849 348.042C259.8 348.026 259.688 347.978 259.607 347.946C259.591 347.93 259.591 347.93 259.559 347.93Z" fill="white"/>
<path d="M276.608 340.836L270.817 341.946L270.238 345.275C270.126 345.838 269.675 346.24 269.161 346.353C269 346.385 268.839 346.385 268.694 346.369C267.955 346.24 267.472 345.533 267.585 344.809L270.174 329.754C270.287 329.192 270.753 328.757 271.284 328.677C271.831 328.548 272.394 328.789 272.715 329.272L280.677 342.316C281.047 342.959 280.854 343.795 280.226 344.181C280.114 344.246 279.953 344.31 279.792 344.342C279.261 344.439 278.698 344.23 278.409 343.747L276.608 340.836ZM275.128 338.391L272.217 333.631L271.268 339.131L275.128 338.391Z" fill="white"/>
<path d="M280.918 335.19C280.034 330.462 283.266 325.862 288.027 324.929C290.134 324.527 292.161 324.849 293.898 325.733C294.557 326.103 294.814 326.923 294.509 327.599C294.139 328.29 293.286 328.548 292.659 328.226C291.437 327.567 290.054 327.374 288.574 327.647C286.933 327.969 285.534 328.918 284.601 330.188C283.733 331.491 283.347 333.051 283.652 334.676C283.958 336.3 284.907 337.651 286.194 338.487C287.512 339.324 289.169 339.694 290.81 339.388C292.289 339.099 293.496 338.407 294.396 337.346C294.863 336.831 295.763 336.767 296.358 337.249C296.905 337.764 296.97 338.648 296.487 339.211C295.2 340.675 293.431 341.72 291.34 342.122C286.547 343.007 281.851 339.935 280.918 335.19Z" fill="white"/>
<path d="M309.097 334.611L303.307 335.721L302.728 339.051C302.615 339.613 302.165 340.016 301.65 340.128C301.489 340.16 301.329 340.16 301.184 340.144C300.444 340.016 299.962 339.308 300.074 338.584L302.664 323.53C302.776 322.967 303.243 322.533 303.773 322.452C304.32 322.324 304.883 322.565 305.205 323.047L313.166 336.091C313.536 336.735 313.343 337.571 312.716 337.957C312.603 338.021 312.442 338.086 312.282 338.118C311.751 338.214 311.204 338.005 310.898 337.523L309.097 334.611ZM307.617 332.183L304.706 327.422L303.757 332.923L307.617 332.183Z" fill="white"/>
<path d="M319.117 335.416C319.262 336.139 318.779 336.847 318.088 336.976C317.348 337.12 316.656 336.638 316.528 335.914L313.874 322.05C313.874 322.05 313.874 322.05 313.874 322.018C313.777 321.616 313.874 321.149 314.196 320.828C314.71 320.313 315.547 320.265 316.061 320.763L325.808 329.947L323.926 320.12C323.797 319.428 324.248 318.721 324.972 318.592C325.679 318.447 326.403 318.93 326.532 319.638L329.185 333.502C329.33 334.225 328.848 334.933 328.124 335.062C327.738 335.142 327.352 335.014 327.046 334.772C326.982 334.74 326.934 334.692 326.902 334.66L317.235 325.524L319.117 335.416Z" fill="white"/>
<path d="M342.422 317.74L338.626 318.464L341.071 331.202C341.216 331.942 340.749 332.618 340.009 332.762C339.286 332.907 338.594 332.441 338.449 331.701L336.005 318.963L332.241 319.686C331.501 319.831 330.81 319.316 330.681 318.609C330.536 317.869 331.003 317.193 331.742 317.049L341.923 315.102C342.647 314.958 343.339 315.424 343.483 316.164C343.612 316.872 343.146 317.612 342.422 317.74Z" fill="white"/>
<path d="M355.321 299.806C348.421 296.96 341.602 293.952 334.847 290.816C328.076 287.711 321.369 284.479 314.678 281.214C308.003 277.917 301.345 274.587 294.75 271.129C288.14 267.703 281.594 264.133 275.128 260.434C282.028 263.28 288.848 266.272 295.603 269.408C302.374 272.512 309.081 275.745 315.772 279.01C322.446 282.307 329.105 285.637 335.699 289.095C342.31 292.537 348.856 296.091 355.321 299.806Z" fill="#1E0133"/>
<path d="M244.473 298.473C243.009 302.815 241.224 306.997 239.358 311.13C237.461 315.248 235.482 319.317 233.166 323.209C234.63 318.867 236.415 314.685 238.281 310.551C240.179 306.434 242.157 302.365 244.473 298.473Z" fill="#263238"/>
<path d="M183.612 578.167C278.554 577.122 385.076 577.106 480.034 578.167C385.076 579.229 278.554 579.213 183.612 578.167Z" fill="#263238"/>
<path d="M251.501 144.63L236.592 180.095C236.528 180.272 236.415 180.513 236.286 180.642L236.222 180.706C236.158 180.835 236.045 180.947 235.916 181.076C235.916 181.205 235.852 181.205 235.852 181.253C235.723 181.317 235.546 181.43 235.434 181.558H235.37C235.193 181.687 235.064 181.864 234.823 181.928H234.758C234.758 181.928 234.694 181.928 234.694 181.993C234.565 181.993 234.388 182.057 234.212 182.121C234.147 182.121 234.083 182.121 234.083 182.121C233.906 182.186 233.713 182.186 233.472 182.186C233.295 182.186 233.102 182.186 232.925 182.121C232.796 182.121 232.748 182.121 232.748 182.121C232.571 182.057 232.442 181.993 232.314 181.993C232.249 181.928 232.249 181.928 232.185 181.928C231.944 181.864 231.767 181.687 231.638 181.558C231.574 181.558 231.574 181.558 231.574 181.558C231.397 181.43 231.268 181.317 231.14 181.253C231.075 181.188 231.075 181.188 231.011 181.076C230.947 180.947 230.834 180.835 230.77 180.706C230.641 180.706 230.641 180.642 230.641 180.642C230.512 180.513 230.464 180.272 230.4 180.095L222.422 161.229L214.461 180.095C214.396 180.272 214.284 180.513 214.22 180.642C214.155 180.642 214.155 180.706 214.155 180.706C214.027 180.835 213.914 180.947 213.785 181.076C213.785 181.205 213.721 181.205 213.721 181.253C213.592 181.317 213.48 181.43 213.351 181.558C213.222 181.558 213.222 181.558 213.222 181.558C213.045 181.687 212.852 181.864 212.74 181.928C212.675 181.928 212.676 181.928 212.676 181.928C212.676 181.928 212.611 181.928 212.611 181.993C212.37 181.993 212.241 182.057 212.129 182.121C212.064 182.121 212 182.121 211.952 182.121C211.775 182.186 211.582 182.186 211.405 182.186C211.228 182.186 210.987 182.186 210.794 182.121C210.729 182.121 210.665 182.121 210.617 182.121C210.44 182.057 210.311 181.993 210.199 181.993C210.134 181.928 210.134 181.928 210.07 181.928C209.893 181.864 209.652 181.687 209.523 181.558C209.459 181.558 209.459 181.558 209.459 181.558C209.282 181.43 209.218 181.317 209.025 181.253C208.96 181.188 208.96 181.188 208.896 181.076C208.767 180.947 208.719 180.835 208.59 180.706V180.642C208.462 180.513 208.413 180.272 208.285 180.095L193.311 144.63C192.635 142.99 193.375 140.979 195.128 140.304C196.769 139.58 198.779 140.368 199.455 142.073L211.373 170.235L219.222 151.562C219.768 150.227 221.039 149.488 222.39 149.488C223.661 149.488 224.947 150.211 225.558 151.562L233.407 170.235L245.277 142.073C246.001 140.368 247.947 139.58 249.716 140.304C251.437 140.979 252.225 142.99 251.501 144.63Z" fill="#1F0735"/>
<path d="M255.683 166.955C255.748 158.688 262.197 151.74 270.529 151.74C278.442 151.74 284.698 157.643 285.197 165.862C285.197 165.926 285.197 166.039 285.197 166.167C285.197 166.296 285.197 166.585 285.132 166.714C284.956 168.178 283.669 169.143 281.964 169.143H262.615C262.921 170.542 263.596 172.118 264.69 173.164C265.961 174.627 268.406 175.721 270.529 175.898C272.716 176.075 275.338 175.528 276.849 174.37C278.12 173.035 280.629 173.212 281.417 174.193C282.205 175.045 282.816 176.863 281.417 178.15C278.442 180.884 274.855 182.17 270.529 182.17C262.197 182.106 255.748 175.238 255.683 166.955ZM262.326 163.98H279.551C278.94 161.551 275.836 157.949 270.545 157.53C265.366 157.772 262.808 161.487 262.326 163.98Z" fill="#1F0735"/>
<path d="M338.852 167.02V178.938C338.852 180.707 337.389 182.155 335.635 182.155C334.059 182.155 332.837 180.997 332.467 179.533C330.151 181.174 327.417 182.155 324.377 182.155C320.243 182.155 316.657 180.45 314.035 177.716C311.413 174.917 309.902 171.138 309.902 167.004C309.902 162.806 311.43 159.027 314.035 156.292C316.657 153.494 320.243 151.725 324.377 151.725C327.417 151.725 330.151 152.754 332.467 154.395C332.837 152.867 334.043 151.725 335.635 151.725C337.405 151.725 338.852 153.188 338.852 155.006V167.02ZM332.403 167.02C332.403 164.463 331.486 162.275 330.022 160.748C328.559 159.107 326.5 158.255 324.361 158.255C322.173 158.255 320.099 159.107 318.699 160.748C317.236 162.275 316.383 164.463 316.383 167.02C316.383 169.513 317.236 171.701 318.699 173.293C320.099 174.821 322.173 175.673 324.361 175.673C326.484 175.673 328.559 174.821 330.022 173.293C331.486 171.701 332.403 169.513 332.403 167.02Z" fill="#1F0735"/>
<path d="M369.507 154.972C369.507 156.677 368.108 158.189 366.29 158.189C364.891 158.189 363.669 158.559 362.639 159.347C361.481 160.071 360.565 161.116 359.841 162.274C358.377 164.22 357.653 166.536 357.348 167.389V178.953C357.348 180.722 355.82 182.17 354.002 182.17C352.233 182.17 350.786 180.706 350.786 178.953V154.988C350.786 153.219 352.249 151.82 354.002 151.82C355.82 151.82 357.348 153.219 357.348 154.988V155.423C357.718 154.988 358.2 154.506 358.618 154.2C360.629 152.865 363.25 151.772 366.29 151.82C368.108 151.82 369.507 153.219 369.507 154.972Z" fill="#1F0735"/>
<path d="M372.306 166.955C372.37 158.688 378.82 151.74 387.151 151.74C395.064 151.74 401.321 157.643 401.819 165.862C401.819 165.926 401.819 166.039 401.819 166.167C401.819 166.296 401.819 166.585 401.755 166.714C401.578 168.178 400.291 169.143 398.586 169.143H379.238C379.543 170.542 380.219 172.118 381.313 173.164C382.583 174.627 385.028 175.721 387.151 175.898C389.338 176.075 391.96 175.528 393.472 174.37C394.742 173.035 397.251 173.212 398.039 174.193C398.828 175.045 399.439 176.863 398.039 178.15C395.064 180.884 391.461 182.17 387.151 182.17C378.82 182.106 372.37 175.238 372.306 166.955ZM378.932 163.98H396.142C395.53 161.551 392.426 157.949 387.135 157.53C381.972 157.772 379.431 161.487 378.932 163.98Z" fill="#1F0735"/>
<path d="M252.837 229.937C252.837 231.819 251.309 233.283 249.427 233.283C247.899 233.283 246.629 232.189 246.21 230.79C246.146 230.549 246.082 230.243 246.082 229.937V194.039C246.082 192.157 247.61 190.693 249.427 190.693C251.309 190.693 252.837 192.157 252.837 194.039V204.622C254.783 203.592 256.97 202.853 259.351 202.853C266.717 202.853 272.62 208.868 272.62 216.17V229.921C272.62 231.803 271.156 233.267 269.274 233.267C267.393 233.267 265.929 231.803 265.929 229.921V216.17C265.929 212.583 263.002 209.656 259.367 209.592C255.78 209.656 252.917 212.567 252.853 216.17V229.937H252.837Z" fill="#481670"/>
<path d="M290.006 195.261C290.006 197.078 288.607 198.606 286.725 198.606C284.908 198.606 283.444 197.078 283.444 195.261V193.99C283.444 192.173 284.908 190.709 286.725 190.709C288.607 190.709 290.006 192.173 290.006 193.99V195.261ZM290.006 206.278V230.001C290.006 231.819 288.607 233.282 286.725 233.282C284.908 233.282 283.444 231.819 283.444 230.001V206.278C283.444 204.332 284.908 202.933 286.725 202.933C288.607 202.933 290.006 204.332 290.006 206.278Z" fill="#481670"/>
<path d="M319.215 206.088C319.215 207.792 317.815 209.304 315.998 209.304C314.599 209.304 313.376 209.674 312.347 210.462C311.189 211.186 310.272 212.231 309.548 213.389C308.085 215.336 307.361 217.652 307.055 218.504V230.068C307.055 231.837 305.527 233.285 303.71 233.285C301.941 233.285 300.493 231.821 300.493 230.068V206.104C300.493 204.334 301.957 202.935 303.71 202.935C305.543 202.935 307.055 204.334 307.055 206.104V206.538C307.425 206.104 307.908 205.621 308.326 205.316C310.336 203.981 312.958 202.887 315.998 202.935C317.815 202.935 319.215 204.334 319.215 206.088Z" fill="#481670"/>
<path d="M333.802 195.261C333.802 197.078 332.402 198.606 330.521 198.606C328.703 198.606 327.24 197.078 327.24 195.261V193.99C327.24 192.173 328.703 190.709 330.521 190.709C332.402 190.709 333.802 192.173 333.802 193.99V195.261ZM333.802 206.278V230.001C333.802 231.819 332.402 233.282 330.521 233.282C328.703 233.282 327.24 231.819 327.24 230.001V206.278C327.24 204.332 328.703 202.933 330.521 202.933C332.402 202.933 333.802 204.332 333.802 206.278Z" fill="#481670"/>
<path d="M369.636 215.526V230.066C369.636 231.835 368.237 233.283 366.468 233.283C364.763 233.283 363.251 231.819 363.251 230.066V215.526C363.251 212.116 360.388 209.382 356.93 209.382C353.521 209.382 350.851 212.116 350.851 215.526V230.066C350.851 230.243 350.851 230.436 350.722 230.677C350.416 232.141 349.082 233.299 347.505 233.299C345.688 233.299 344.289 231.835 344.289 230.082V215.542V206.117C344.289 204.348 345.688 202.901 347.505 202.901C348.776 202.901 349.934 203.624 350.481 204.782C352.298 203.624 354.55 202.901 356.93 202.901C363.975 202.868 369.636 208.642 369.636 215.526Z" fill="#481670"/>
<path d="M408.752 218.262V229.585C408.752 237.562 402.238 244.188 394.148 244.188C391.896 244.188 389.644 243.642 387.762 242.661C386.186 241.937 385.446 239.926 386.299 238.286C387.087 236.645 388.969 236.034 390.674 236.758C391.703 237.305 392.861 237.61 394.148 237.61C398.104 237.61 401.321 234.812 402.125 231.096C399.938 232.624 397.139 233.525 394.148 233.525C390.127 233.525 386.427 231.756 383.806 228.893C381.184 226.223 379.544 222.443 379.544 218.181C379.544 213.983 381.184 210.204 383.806 207.357C386.427 204.623 390.127 202.854 394.148 202.854C397.316 202.854 400.115 203.835 402.302 205.411C402.608 203.947 403.943 202.854 405.519 202.854C407.336 202.854 408.736 204.317 408.736 206.07V218.181V218.262H408.752ZM402.238 218.197C402.238 215.769 401.257 213.453 399.922 211.989C398.345 210.284 396.448 209.367 394.148 209.367C392.025 209.367 390.014 210.284 388.551 211.989C387.087 213.453 386.122 215.769 386.122 218.197C386.122 220.755 387.103 223.071 388.551 224.47C390.014 226.11 392.025 226.963 394.148 226.963C396.464 226.963 398.345 226.11 399.922 224.47C401.273 223.071 402.238 220.755 402.238 218.197Z" fill="#481670"/>
<path d="M425.64 208.387V160.265C425.64 156.694 428.615 153.719 432.186 153.719C435.756 153.719 438.619 156.694 438.619 160.265V208.387C438.619 212.086 435.756 214.933 432.186 214.933C428.615 214.933 425.64 212.086 425.64 208.387ZM432.186 237.096C428.615 237.096 425.64 234.233 425.64 230.55V228.17C425.64 224.599 428.615 221.624 432.186 221.624C435.756 221.624 438.619 224.599 438.619 228.17V230.55C438.619 234.233 435.756 237.096 432.186 237.096Z" fill="#481670"/>
<path d="M378.948 601.082H284.698V625.497H378.948V601.082Z" fill="#481670"/>
<path d="M337.902 617.229C337.902 617.615 337.581 617.936 337.211 617.936C336.809 617.936 336.503 617.615 336.503 617.229V609.702C336.503 609.702 336.503 609.702 336.503 609.685C336.487 609.46 336.599 609.235 336.792 609.09C337.114 608.865 337.564 608.93 337.774 609.251L341.955 615.041V609.702C341.955 609.332 342.261 608.994 342.663 608.994C343.049 608.994 343.371 609.316 343.371 609.702V617.229C343.371 617.615 343.049 617.936 342.663 617.936C342.454 617.936 342.261 617.84 342.132 617.679C342.1 617.647 342.084 617.631 342.068 617.599L337.918 611.841V617.229H337.902Z" fill="white"/>
<path d="M352.974 609.993C353.778 610.845 354.276 611.987 354.276 613.274C354.276 614.56 353.778 615.718 352.974 616.555C352.202 617.391 351.076 617.938 349.869 617.938C348.631 617.938 347.489 617.391 346.685 616.555C345.881 615.718 345.398 614.56 345.398 613.274C345.398 611.987 345.881 610.845 346.685 609.993C347.473 609.14 348.615 608.609 349.869 608.609C351.076 608.609 352.218 609.14 352.974 609.993ZM352.813 613.274C352.813 612.389 352.459 611.569 351.928 611.006C351.381 610.427 350.658 610.089 349.886 610.089C349.049 610.089 348.325 610.427 347.779 611.006C347.232 611.569 346.894 612.389 346.894 613.274C346.894 614.158 347.232 614.978 347.779 615.525C348.325 616.104 349.049 616.458 349.886 616.458C350.658 616.458 351.397 616.104 351.928 615.525C352.459 614.978 352.813 614.158 352.813 613.274Z" fill="white"/>
<path d="M368.333 609.944L365.148 617.503C365.132 617.551 365.116 617.6 365.084 617.616L365.068 617.632C365.052 617.664 365.02 617.68 365.004 617.712C365.004 617.744 364.987 617.744 364.987 617.744C364.955 617.76 364.923 617.777 364.891 617.809H364.875C364.843 617.841 364.811 617.873 364.762 617.889H364.746C364.746 617.889 364.73 617.889 364.73 617.905C364.698 617.905 364.666 617.921 364.634 617.937C364.618 617.937 364.601 617.937 364.601 617.937C364.569 617.953 364.521 617.953 364.473 617.953C364.441 617.953 364.392 617.953 364.36 617.937C364.328 617.937 364.328 617.937 364.328 617.937C364.296 617.921 364.264 617.905 364.232 617.905C364.215 617.889 364.215 617.889 364.199 617.889C364.151 617.873 364.103 617.841 364.087 617.809C364.071 617.809 364.071 617.809 364.071 617.809C364.039 617.777 364.006 617.76 363.974 617.744C363.958 617.728 363.958 617.728 363.942 617.712C363.926 617.68 363.91 617.664 363.894 617.632C363.862 617.632 363.862 617.616 363.862 617.616C363.829 617.584 363.829 617.535 363.813 617.503L362.108 613.482L360.404 617.503C360.388 617.551 360.371 617.6 360.355 617.616C360.339 617.616 360.339 617.632 360.339 617.632C360.307 617.664 360.291 617.68 360.259 617.712C360.259 617.744 360.243 617.744 360.243 617.744C360.211 617.76 360.195 617.777 360.162 617.809C360.13 617.809 360.13 617.809 360.13 617.809C360.098 617.841 360.05 617.873 360.034 617.889C360.018 617.889 360.018 617.889 360.018 617.889C360.018 617.889 360.002 617.889 360.002 617.905C359.953 617.905 359.921 617.921 359.905 617.937C359.889 617.937 359.873 617.937 359.873 617.937C359.841 617.953 359.792 617.953 359.76 617.953C359.728 617.953 359.664 617.953 359.632 617.937C359.616 617.937 359.599 617.937 359.599 617.937C359.551 617.921 359.535 617.905 359.503 617.905C359.487 617.889 359.487 617.889 359.471 617.889C359.439 617.873 359.374 617.841 359.358 617.809C359.342 617.809 359.342 617.809 359.342 617.809C359.31 617.777 359.294 617.76 359.246 617.744C359.23 617.728 359.23 617.728 359.213 617.712C359.181 617.68 359.165 617.664 359.149 617.632V617.616C359.117 617.584 359.117 617.535 359.085 617.503L355.9 609.944C355.755 609.59 355.916 609.172 356.286 609.027C356.64 608.866 357.058 609.043 357.203 609.397L359.744 615.396L361.417 611.423C361.529 611.134 361.803 610.989 362.092 610.989C362.366 610.989 362.639 611.15 362.768 611.423L364.441 615.396L366.966 609.397C367.127 609.027 367.529 608.866 367.915 609.027C368.317 609.172 368.494 609.59 368.333 609.944Z" fill="white"/>
<path d="M300.38 615.83H297.243L296.616 617.503C296.504 617.792 296.23 617.953 295.941 617.953C295.844 617.953 295.78 617.937 295.699 617.921C295.329 617.776 295.153 617.374 295.281 616.988L298.128 609.397C298.241 609.107 298.53 608.93 298.804 608.946C299.093 608.93 299.366 609.107 299.479 609.397L302.326 616.988C302.455 617.358 302.278 617.776 301.892 617.921C301.827 617.953 301.731 617.953 301.65 617.953C301.361 617.953 301.087 617.792 300.991 617.503L300.38 615.83ZM299.849 614.415L298.804 611.648L297.758 614.415H299.849Z" fill="white"/>
<path d="M307.119 614.462H305.526V617.261C305.526 617.647 305.205 617.968 304.803 617.968C304.417 617.968 304.095 617.647 304.095 617.261V609.653C304.095 609.251 304.417 608.945 304.803 608.945H304.819H307.119C308.647 608.945 309.885 610.184 309.885 611.712C309.885 613.224 308.647 614.462 307.119 614.462ZM305.526 613.031H307.119C307.859 613.031 308.438 612.435 308.454 611.712C308.438 610.972 307.859 610.377 307.119 610.377H305.526V613.031Z" fill="white"/>
<path d="M314.614 614.462H313.022V617.261C313.022 617.647 312.7 617.968 312.298 617.968C311.912 617.968 311.59 617.647 311.59 617.261V609.653C311.59 609.251 311.912 608.945 312.298 608.945H312.314H314.614C316.142 608.945 317.38 610.184 317.38 611.712C317.396 613.224 316.158 614.462 314.614 614.462ZM313.038 613.031H314.63C315.37 613.031 315.949 612.435 315.965 611.712C315.949 610.972 315.37 610.377 314.63 610.377H313.038V613.031Z" fill="white"/>
<path d="M319.118 617.261V609.653C319.118 609.267 319.424 608.945 319.826 608.945C320.228 608.945 320.549 609.267 320.549 609.653V616.537H324.04C324.409 616.537 324.747 616.858 324.747 617.261C324.747 617.647 324.409 617.968 324.04 617.968H319.874C319.842 617.968 319.842 617.968 319.842 617.968C319.826 617.968 319.826 617.968 319.826 617.968C319.424 617.968 319.118 617.647 319.118 617.261Z" fill="white"/>
<path d="M330.955 610.153L328.317 613.772V617.246C328.317 617.648 328.012 617.954 327.61 617.954C327.24 617.954 326.902 617.648 326.902 617.246V613.772L324.28 610.153C324.039 609.848 324.103 609.414 324.425 609.172C324.747 608.947 325.181 609.012 325.406 609.333L327.61 612.341L329.813 609.333C330.054 609.012 330.489 608.947 330.81 609.172C331.116 609.414 331.18 609.848 330.955 610.153Z" fill="white"/>
<path d="M208.847 351.48H1.22363V505.288H208.847V351.48Z" fill="white"/>
<path d="M208.847 505.288L105.22 505.706L1.22362 505.947H0.564186V505.288L0.419434 351.48V350.676H1.22362L208.847 350.981H209.346V351.48L209.169 428.521L208.847 505.288ZM208.847 505.288L208.542 428.263L208.365 351.48L208.863 351.979L1.22362 352.284L2.0278 351.48L1.88305 505.288L1.22362 504.628L104.851 504.854L208.847 505.288Z" fill="#1F0735"/>
<path d="M208.848 351.48H1.22412V365.248H208.848V351.48Z" fill="#1F0735"/>
<path d="M13.5275 358.365C13.5275 359.958 12.2408 361.244 10.6485 361.244C9.05622 361.244 7.76953 359.958 7.76953 358.365C7.76953 356.773 9.05622 355.486 10.6485 355.486C12.2408 355.486 13.5275 356.773 13.5275 358.365Z" fill="#C7C7C7"/>
<path d="M25.3168 358.365C25.3168 359.958 24.0301 361.244 22.4378 361.244C20.8455 361.244 19.5588 359.958 19.5588 358.365C19.5588 356.773 20.8455 355.486 22.4378 355.486C24.0301 355.486 25.3168 356.773 25.3168 358.365Z" fill="white"/>
<path d="M37.1063 358.365C37.1063 359.958 35.8196 361.244 34.2274 361.244C32.6351 361.244 31.3484 359.958 31.3484 358.365C31.3484 356.773 32.6351 355.486 34.2274 355.486C35.8196 355.486 37.1063 356.773 37.1063 358.365Z" fill="#481670"/>
<path d="M38.9885 407.094C39.6157 409.025 41.4493 410.424 43.5884 410.424C46.2583 410.424 48.4296 408.253 48.4296 405.615V391.67C48.4296 390.577 49.3142 389.74 50.3918 389.74C51.4533 389.74 52.3218 390.577 52.3218 391.67V405.615C52.3218 410.424 48.3813 414.332 43.5723 414.332C39.7122 414.332 36.4151 411.807 35.2892 408.285C34.9354 407.223 35.5305 406.146 36.5116 405.856C37.5892 405.518 38.6668 406.081 38.9885 407.094Z" fill="#1F0735"/>
<path d="M59.2221 411.777C57.7102 410.233 56.7935 408.062 56.7935 405.601C56.7935 403.204 57.7102 401.146 59.2221 399.457C60.7983 397.8 62.8409 396.787 65.2695 396.787C67.5856 396.787 69.6925 397.8 71.1401 399.457C72.7163 401.146 73.6009 403.221 73.6009 405.601C73.6009 408.062 72.7163 410.233 71.1401 411.777C69.6925 413.434 67.5856 414.447 65.2695 414.447C62.8409 414.447 60.7983 413.418 59.2221 411.777ZM60.6214 405.585C60.6214 407.097 61.0717 408.319 61.892 409.3C62.7766 410.137 63.9346 410.603 65.2695 410.603C66.4919 410.603 67.6178 410.153 68.5024 409.3C69.387 408.319 69.8695 407.081 69.8695 405.585C69.8695 404.137 69.3709 402.883 68.5024 401.934C67.6178 401.162 66.508 400.599 65.2695 400.599C63.9346 400.599 62.7766 401.162 61.892 401.934C61.0878 402.883 60.6214 404.153 60.6214 405.585Z" fill="#1F0735"/>
<path d="M83.3951 392.378C83.3951 393.439 82.5909 394.308 81.4972 394.308C80.4518 394.308 79.5994 393.423 79.5994 392.378V391.638C79.5994 390.577 80.4357 389.74 81.4972 389.74C82.5909 389.74 83.3951 390.577 83.3951 391.638V392.378ZM83.3951 398.747V412.45C83.3951 413.496 82.5909 414.348 81.4972 414.348C80.4518 414.348 79.5994 413.512 79.5994 412.45V398.747C79.5994 397.621 80.4357 396.817 81.4972 396.817C82.5748 396.817 83.3951 397.621 83.3951 398.747Z" fill="#1F0735"/>
<path d="M104.079 404.07V412.465C104.079 413.478 103.275 414.331 102.246 414.331C101.265 414.331 100.38 413.495 100.38 412.465V404.07C100.38 402.107 98.7236 400.515 96.7292 400.515C94.767 400.515 93.223 402.091 93.223 404.07V412.465C93.223 412.578 93.223 412.674 93.1587 412.819C92.9817 413.655 92.2097 414.331 91.2929 414.331C90.2314 414.331 89.4272 413.495 89.4272 412.465V404.07V398.633C89.4272 397.62 90.2314 396.768 91.2929 396.768C92.0328 396.768 92.6922 397.186 93.0139 397.861C94.0754 397.202 95.3621 396.768 96.7292 396.768C100.814 396.768 104.079 400.113 104.079 404.07Z" fill="#1F0735"/>
<path d="M123.122 411.777C121.61 410.233 120.693 408.062 120.693 405.601C120.693 403.204 121.61 401.146 123.122 399.457C124.698 397.8 126.741 396.787 129.169 396.787C131.485 396.787 133.592 397.8 135.04 399.457C136.616 401.146 137.501 403.221 137.501 405.601C137.501 408.062 136.616 410.233 135.04 411.777C133.592 413.434 131.485 414.447 129.169 414.447C126.741 414.447 124.698 413.418 123.122 411.777ZM124.521 405.585C124.521 407.097 124.972 408.319 125.792 409.3C126.676 410.137 127.835 410.603 129.169 410.603C130.392 410.603 131.518 410.153 132.402 409.3C133.287 408.319 133.769 407.081 133.769 405.585C133.769 404.137 133.271 402.883 132.402 401.934C131.518 401.162 130.408 400.599 129.169 400.599C127.835 400.599 126.676 401.162 125.792 401.934C124.988 402.883 124.521 404.153 124.521 405.585Z" fill="#1F0735"/>
<path d="M149.853 414.331C145.848 414.331 142.551 411.034 142.551 407.029V398.633C142.551 397.652 143.387 396.768 144.416 396.768C145.462 396.768 146.282 397.652 146.282 398.633V407.029C146.282 409.039 147.858 410.616 149.869 410.616C151.911 410.616 153.52 409.039 153.552 407.029V398.633C153.552 397.652 154.324 396.768 155.386 396.768C156.367 396.768 157.283 397.652 157.283 398.633V407.029C157.267 411.034 153.89 414.331 149.853 414.331Z" fill="#1F0735"/>
<path d="M175.249 398.633C175.249 399.614 174.445 400.499 173.383 400.499C172.579 400.499 171.872 400.708 171.276 401.174C170.601 401.592 170.086 402.188 169.668 402.863C168.832 403.989 168.397 405.324 168.221 405.806V412.481C168.221 413.494 167.336 414.347 166.291 414.347C165.277 414.347 164.425 413.51 164.425 412.481V398.649C164.425 397.636 165.261 396.832 166.291 396.832C167.352 396.832 168.221 397.636 168.221 398.649V398.89C168.43 398.649 168.719 398.36 168.96 398.183C170.118 397.411 171.63 396.783 173.383 396.816C174.445 396.816 175.249 397.62 175.249 398.633Z" fill="#1F0735"/>
<path d="M71.6064 431.078C71.6064 432.139 70.6897 433.008 69.6442 433.008H68.7596V442.803C69.8533 442.803 70.6897 443.687 70.6897 444.765C70.6897 445.859 69.8533 446.695 68.7596 446.695C66.6205 446.695 64.8674 444.942 64.8674 442.803V433.008H63.8541C62.7604 433.008 61.9241 432.123 61.9241 431.078C61.9241 429.984 62.7604 429.148 63.8541 429.148H64.8674V424.049C64.8674 422.956 65.752 422.119 66.8296 422.119C67.9233 422.119 68.7596 422.956 68.7596 424.049V429.148H69.6442C70.6897 429.148 71.6064 429.984 71.6064 431.078Z" fill="#481670"/>
<path d="M75.1125 437.928C75.1447 433.151 78.8761 429.146 83.6851 429.146C88.2529 429.146 91.8717 432.556 92.1451 437.301C92.1451 437.333 92.1451 437.414 92.1451 437.478C92.1451 437.542 92.1451 437.719 92.113 437.799C92.0004 438.636 91.2766 439.199 90.2794 439.199H79.1174C79.2943 440.003 79.6803 440.92 80.3076 441.515C81.0474 442.351 82.4467 442.995 83.6851 443.091C84.9557 443.204 86.4676 442.882 87.3361 442.206C88.076 441.434 89.5074 441.531 89.9738 442.094C90.4242 442.592 90.778 443.638 89.9738 444.378C88.2529 445.954 86.1781 446.694 83.6851 446.694C78.8761 446.678 75.1608 442.705 75.1125 437.928ZM78.9405 436.207H88.8802C88.5263 434.808 86.741 432.733 83.6851 432.476C80.7097 432.621 79.23 434.76 78.9405 436.207Z" fill="#481670"/>
<path d="M112.604 437.964V444.848C112.604 445.861 111.767 446.713 110.738 446.713C109.821 446.713 109.13 446.038 108.904 445.201C107.57 446.15 105.993 446.713 104.24 446.713C101.86 446.713 99.7851 445.732 98.2732 444.156C96.7613 442.548 95.8928 440.36 95.8928 437.98C95.8928 435.551 96.7774 433.38 98.2732 431.804C99.7851 430.195 101.86 429.166 104.24 429.166C105.993 429.166 107.57 429.761 108.904 430.71C109.114 429.825 109.821 429.166 110.738 429.166C111.751 429.166 112.604 430.002 112.604 431.064V437.964ZM108.872 437.964C108.872 436.484 108.342 435.23 107.505 434.345C106.669 433.396 105.463 432.897 104.24 432.897C102.97 432.897 101.779 433.396 100.975 434.345C100.139 435.213 99.6403 436.484 99.6403 437.964C99.6403 439.395 100.139 440.666 100.975 441.583C101.779 442.467 102.97 442.95 104.24 442.95C105.463 442.95 106.669 442.451 107.505 441.583C108.342 440.666 108.872 439.411 108.872 437.964Z" fill="#481670"/>
<path d="M134.171 436.42C134.171 436.452 134.171 436.484 134.171 436.532V444.848C134.171 445.861 133.335 446.713 132.305 446.713C131.324 446.713 130.408 445.877 130.408 444.848V436.532C130.408 436.5 130.408 436.468 130.408 436.42C130.375 434.49 128.751 432.914 126.789 432.914C124.859 432.914 123.234 434.522 123.234 436.532V444.848C123.234 444.912 123.202 445.024 123.202 445.089C123.202 445.121 123.202 445.201 123.202 445.201C123.17 445.266 123.17 445.346 123.09 445.411C123.09 445.443 123.09 445.523 123.09 445.587C122.768 446.215 122.076 446.713 121.336 446.713C121.192 446.713 121.095 446.681 120.983 446.681C120.146 446.472 119.471 445.764 119.471 444.848V436.532C119.471 436.5 119.471 436.5 119.471 436.5V431.064C119.471 429.97 120.307 429.166 121.336 429.166C122.076 429.166 122.736 429.552 123.025 430.228C124.151 429.552 125.454 429.166 126.789 429.166C129.008 429.166 130.971 430.083 132.305 431.595C133.608 430.083 135.603 429.166 137.822 429.166C141.859 429.166 145.124 432.463 145.124 436.548V444.864C145.124 445.877 144.288 446.729 143.258 446.729C142.245 446.729 141.361 445.893 141.361 444.864V436.548C141.361 434.538 139.752 432.93 137.806 432.93C135.812 432.913 134.235 434.49 134.171 436.42Z" fill="#481670"/>
<path d="M143.564 468.648H66.4912V488.608H143.564V468.648Z" fill="#6A0DAD"/>
<path d="M78.1674 480.262C78.3605 480.841 78.9073 481.276 79.5506 481.276C80.3548 481.276 81.0143 480.616 81.0143 479.828V475.614C81.0143 475.293 81.2716 475.035 81.6093 475.035C81.931 475.035 82.1884 475.293 82.1884 475.614V479.828C82.1884 481.276 80.9982 482.45 79.5506 482.45C78.3765 482.45 77.3954 481.694 77.0416 480.632C76.929 480.311 77.122 479.989 77.4115 479.892C77.7332 479.78 78.0709 479.957 78.1674 480.262Z" fill="white"/>
<path d="M89.7477 475.951C90.4071 476.658 90.8253 477.591 90.8253 478.637C90.8253 479.682 90.4071 480.631 89.7477 481.322C89.1204 482.014 88.1875 482.464 87.2064 482.464C86.1932 482.464 85.2603 482.014 84.617 481.322C83.9575 480.631 83.5715 479.682 83.5715 478.637C83.5715 477.591 83.9575 476.658 84.617 475.951C85.2603 475.259 86.1932 474.809 87.2064 474.809C88.1875 474.809 89.1204 475.243 89.7477 475.951ZM89.6029 478.62C89.6029 477.897 89.3134 477.237 88.8791 476.771C88.4288 476.288 87.8337 476.015 87.2064 476.015C86.5309 476.015 85.9358 476.288 85.4855 476.771C85.0351 477.237 84.7617 477.913 84.7617 478.62C84.7617 479.344 85.0351 480.004 85.4855 480.47C85.9358 480.953 86.5309 481.226 87.2064 481.226C87.8498 481.226 88.4288 480.936 88.8791 480.47C89.3134 480.02 89.6029 479.344 89.6029 478.62Z" fill="white"/>
<path d="M92.4497 475.614C92.4497 475.293 92.707 475.035 93.0287 475.035C93.3504 475.035 93.6238 475.293 93.6238 475.614V481.871C93.6238 482.192 93.3504 482.45 93.0287 482.45C92.707 482.45 92.4497 482.192 92.4497 481.871V475.614Z" fill="white"/>
<path d="M96.7601 481.852C96.7601 482.173 96.5028 482.431 96.1811 482.431C95.8594 482.431 95.6021 482.157 95.6021 481.852V475.692C95.6021 475.692 95.6021 475.692 95.6021 475.676C95.586 475.499 95.6825 475.306 95.8273 475.193C96.1007 475.016 96.4545 475.064 96.6314 475.322L100.057 480.066V475.692C100.057 475.386 100.315 475.113 100.636 475.113C100.958 475.113 101.215 475.386 101.215 475.692V481.852C101.215 482.173 100.958 482.431 100.636 482.431C100.459 482.431 100.315 482.35 100.202 482.222C100.186 482.206 100.154 482.173 100.154 482.157L96.7601 477.445V481.852Z" fill="white"/>
<path d="M108.115 481.852C108.115 482.173 107.858 482.431 107.536 482.431C107.215 482.431 106.957 482.157 106.957 481.852V475.692C106.957 475.692 106.957 475.692 106.957 475.676C106.941 475.499 107.038 475.306 107.182 475.193C107.456 475.016 107.81 475.064 107.987 475.322L111.412 480.066V475.692C111.412 475.386 111.67 475.113 111.992 475.113C112.313 475.113 112.571 475.386 112.571 475.692V481.852C112.571 482.173 112.313 482.431 111.992 482.431C111.815 482.431 111.67 482.35 111.557 482.222C111.541 482.206 111.509 482.173 111.509 482.157L108.115 477.445V481.852Z" fill="white"/>
<path d="M120.435 475.951C121.095 476.658 121.513 477.591 121.513 478.637C121.513 479.682 121.095 480.631 120.435 481.322C119.808 482.014 118.875 482.464 117.894 482.464C116.881 482.464 115.948 482.014 115.304 481.322C114.645 480.631 114.259 479.682 114.259 478.637C114.259 477.591 114.645 476.658 115.304 475.951C115.948 475.259 116.881 474.809 117.894 474.809C118.875 474.809 119.808 475.243 120.435 475.951ZM120.306 478.62C120.306 477.897 120.017 477.237 119.583 476.771C119.132 476.288 118.537 476.015 117.91 476.015C117.235 476.015 116.639 476.288 116.189 476.771C115.739 477.237 115.465 477.913 115.465 478.62C115.465 479.344 115.739 480.004 116.189 480.47C116.639 480.953 117.235 481.226 117.91 481.226C118.553 481.226 119.132 480.936 119.583 480.47C120.017 480.02 120.306 479.344 120.306 478.62Z" fill="white"/>
<path d="M132.996 475.901L130.391 482.077C130.375 482.109 130.359 482.157 130.343 482.173L130.326 482.19C130.31 482.206 130.294 482.238 130.278 482.254C130.278 482.27 130.262 482.27 130.262 482.286C130.246 482.302 130.214 482.318 130.182 482.334H130.166C130.133 482.35 130.117 482.383 130.069 482.399H130.053C130.053 482.399 130.037 482.399 130.037 482.415C130.021 482.415 129.989 482.431 129.957 482.431C129.94 482.431 129.94 482.431 129.94 482.431C129.908 482.447 129.876 482.447 129.828 482.447C129.796 482.447 129.764 482.447 129.731 482.431C129.715 482.431 129.699 482.431 129.699 482.431C129.667 482.415 129.651 482.415 129.619 482.415C129.603 482.399 129.603 482.399 129.603 482.399C129.554 482.383 129.522 482.35 129.506 482.334C129.49 482.334 129.49 482.334 129.49 482.334C129.458 482.318 129.442 482.286 129.41 482.286C129.394 482.27 129.394 482.27 129.394 482.254C129.378 482.238 129.361 482.206 129.345 482.19C129.329 482.19 129.329 482.173 129.329 482.173C129.313 482.157 129.297 482.109 129.281 482.077L127.898 478.796L126.515 482.077C126.499 482.109 126.482 482.157 126.466 482.173C126.45 482.173 126.45 482.19 126.45 482.19C126.434 482.206 126.402 482.238 126.386 482.254C126.386 482.27 126.37 482.27 126.37 482.286C126.354 482.302 126.322 482.318 126.306 482.334C126.289 482.334 126.289 482.334 126.289 482.334C126.257 482.35 126.225 482.383 126.209 482.399C126.193 482.399 126.193 482.399 126.193 482.399C126.193 482.399 126.177 482.399 126.177 482.415C126.129 482.415 126.113 482.431 126.096 482.431C126.08 482.431 126.08 482.431 126.064 482.431C126.032 482.447 126 482.447 125.968 482.447C125.936 482.447 125.887 482.447 125.855 482.431C125.839 482.431 125.839 482.431 125.823 482.431C125.791 482.415 125.775 482.415 125.743 482.415C125.727 482.399 125.727 482.399 125.727 482.399C125.694 482.383 125.646 482.35 125.63 482.334C125.614 482.334 125.614 482.334 125.614 482.334C125.582 482.318 125.566 482.286 125.534 482.286C125.517 482.27 125.517 482.27 125.517 482.254C125.501 482.238 125.485 482.206 125.469 482.19V482.173C125.453 482.157 125.437 482.109 125.421 482.077L122.815 475.901C122.703 475.611 122.831 475.257 123.137 475.145C123.427 475.016 123.78 475.161 123.893 475.45L125.968 480.356L127.335 477.107C127.431 476.866 127.657 476.753 127.882 476.753C128.107 476.753 128.332 476.882 128.429 477.107L129.796 480.356L131.871 475.45C131.999 475.161 132.337 475.016 132.643 475.145C132.996 475.257 133.125 475.611 132.996 475.901Z" fill="white"/>
<path d="M662.423 0.814453H454.799V154.622H662.423V0.814453Z" fill="white"/>
<path d="M662.407 154.621C662.085 154.621 454.767 154.942 454.461 154.942C454.204 154.894 454.574 0.941446 454.381 0.812777V0.410686H454.783C454.928 0.330268 662.487 0.619773 662.648 0.571522C662.857 0.716275 662.262 154.428 662.407 154.621ZM662.407 154.621C662.423 154.701 661.86 -0.248744 662.407 1.05403L454.783 1.21487L455.185 0.812777C455.169 0.700192 455.507 156.036 454.783 154.299C454.799 154.299 662.407 154.621 662.407 154.621Z" fill="#263238"/>
<path d="M662.424 0.816406H454.8V14.584H662.424V0.816406Z" fill="#1F0735"/>
<path d="M467.104 7.70139C467.104 9.29367 465.817 10.5804 464.225 10.5804C462.633 10.5804 461.346 9.29367 461.346 7.70139C461.346 6.1091 462.633 4.82241 464.225 4.82241C465.817 4.80633 467.104 6.1091 467.104 7.70139Z" fill="#C7C7C7"/>
<path d="M478.893 7.70139C478.893 9.29367 477.607 10.5804 476.014 10.5804C474.422 10.5804 473.135 9.29367 473.135 7.70139C473.135 6.1091 474.422 4.82241 476.014 4.82241C477.591 4.80633 478.893 6.1091 478.893 7.70139Z" fill="white"/>
<path d="M490.683 7.70139C490.683 9.29367 489.396 10.5804 487.804 10.5804C486.212 10.5804 484.925 9.29367 484.925 7.70139C484.925 6.1091 486.212 4.82241 487.804 4.82241C489.38 4.80633 490.683 6.1091 490.683 7.70139Z" fill="#481670"/>
<path d="M486.323 79.2376C486.822 80.7495 488.253 81.8593 489.926 81.8593C492.017 81.8593 493.738 80.1544 493.738 78.0796V67.1427C493.738 66.2903 494.429 65.6309 495.282 65.6309C496.102 65.6309 496.793 66.2903 496.793 67.1427V78.0796C496.793 81.8593 493.705 84.9151 489.926 84.9151C486.902 84.9151 484.296 82.9369 483.428 80.1705C483.154 79.3502 483.621 78.4817 484.393 78.2726C485.213 77.9992 486.066 78.4495 486.323 79.2376Z" fill="#1F0735"/>
<path d="M516.448 68.0294C518.153 69.8469 519.23 72.2755 519.23 75.0097C519.23 77.7439 518.153 80.1886 516.448 81.99C514.823 83.7753 512.395 84.9333 509.853 84.9333C507.216 84.9333 504.787 83.7753 503.098 81.99C501.393 80.2047 500.364 77.7439 500.364 75.0097C500.364 72.2755 501.377 69.8629 503.098 68.0294C504.771 66.212 507.2 65.0861 509.853 65.0861C512.395 65.07 514.823 66.212 516.448 68.0294ZM516.094 74.9936C516.094 73.1118 515.354 71.3909 514.212 70.1685C513.054 68.9301 511.51 68.2063 509.853 68.2063C508.084 68.2063 506.54 68.9301 505.382 70.1685C504.224 71.3748 503.5 73.1118 503.5 74.9936C503.5 76.8754 504.224 78.6124 505.382 79.7866C506.54 81.025 508.084 81.7648 509.853 81.7648C511.51 81.7648 513.054 81.025 514.212 79.7866C515.338 78.6124 516.094 76.8754 516.094 74.9936Z" fill="#1F0735"/>
<path d="M523.701 83.4033V67.1427C523.701 66.2903 524.393 65.6309 525.213 65.6309C525.245 65.6309 525.245 65.6309 525.294 65.6309C525.294 65.6309 525.294 65.6309 525.326 65.6309H529.138C532.033 65.6309 534.381 67.9791 534.381 70.8741C534.381 72.0643 533.995 73.1419 533.336 74.0104C534.992 75.0559 536.118 76.9055 536.118 78.9964C536.118 82.2774 533.464 84.9151 530.215 84.9151H525.342C525.31 84.9151 525.31 84.883 525.31 84.883C525.262 84.883 525.262 84.9151 525.229 84.9151C524.393 84.9151 523.701 84.2236 523.701 83.4033ZM526.757 73.0937H529.122C530.328 73.0937 531.293 72.0804 531.293 70.858C531.293 69.6357 530.328 68.6867 529.122 68.6867H526.757V73.0937ZM526.757 81.8593H530.199C531.775 81.8271 533.03 80.5886 533.03 78.9964C533.03 77.4202 531.759 76.1817 530.199 76.1496H526.757V81.8593Z" fill="#1F0735"/>
<path d="M563.557 68.0294C565.261 69.8469 566.339 72.2755 566.339 75.0097C566.339 77.7439 565.261 80.1886 563.557 81.99C561.932 83.7753 559.503 84.9333 556.962 84.9333C554.325 84.9333 551.896 83.7753 550.207 81.99C548.502 80.2047 547.473 77.7439 547.473 75.0097C547.473 72.2755 548.486 69.8629 550.207 68.0294C551.88 66.212 554.308 65.0861 556.962 65.0861C559.503 65.07 561.932 66.212 563.557 68.0294ZM563.187 74.9936C563.187 73.1118 562.447 71.3909 561.305 70.1685C560.147 68.9301 558.603 68.2063 556.946 68.2063C555.177 68.2063 553.633 68.9301 552.475 70.1685C551.317 71.3748 550.593 73.1118 550.593 74.9936C550.593 76.8754 551.317 78.6124 552.475 79.7866C553.633 81.025 555.177 81.7648 556.946 81.7648C558.603 81.7648 560.147 81.025 561.305 79.7866C562.447 78.6124 563.187 76.8754 563.187 74.9936Z" fill="#1F0735"/>
<path d="M571.775 83.4033V67.1427C571.775 66.3225 572.435 65.6309 573.287 65.6309H573.319C573.319 65.6309 573.319 65.6309 573.384 65.6309H582.31C583.114 65.6309 583.822 66.3225 583.822 67.1427C583.822 67.9952 583.098 68.6867 582.31 68.6867H574.847V73.737H581.265C582.085 73.737 582.777 74.4608 582.777 75.2489C582.777 76.1013 582.085 76.7929 581.265 76.7929H574.847V83.4033C574.847 84.2236 574.156 84.9151 573.303 84.9151C572.435 84.9151 571.775 84.2236 571.775 83.4033Z" fill="#1F0735"/>
<path d="M588.438 83.4033V67.1427C588.438 66.3225 589.097 65.6309 589.95 65.6309H589.982C589.982 65.6309 589.982 65.6309 590.03 65.6309H598.956C599.761 65.6309 600.468 66.3225 600.468 67.1427C600.468 67.9952 599.745 68.6867 598.956 68.6867H591.494V73.737H597.911C598.731 73.737 599.423 74.4608 599.423 75.2489C599.423 76.1013 598.731 76.7929 597.911 76.7929H591.494V83.4033C591.494 84.2236 590.802 84.9151 589.95 84.9151C589.113 84.9151 588.438 84.2236 588.438 83.4033Z" fill="#1F0735"/>
<path d="M605.117 83.4033V67.1427C605.117 66.2903 605.776 65.6309 606.629 65.6309H606.661C606.661 65.6309 606.661 65.6309 606.709 65.6309H615.635C616.44 65.6309 617.147 66.2903 617.147 67.1427C617.147 67.9952 616.424 68.6867 615.635 68.6867H608.173V73.737H614.59C615.41 73.737 616.102 74.4608 616.102 75.2489C616.102 76.1013 615.41 76.7929 614.59 76.7929H608.173V81.8593H615.635C616.44 81.8593 617.147 82.5509 617.147 83.4033C617.147 84.2236 616.424 84.9151 615.635 84.9151H606.709C606.661 84.9151 606.661 84.883 606.661 84.883L606.629 84.9151C605.776 84.9151 605.117 84.2236 605.117 83.4033Z" fill="#1F0735"/>
<path d="M634.775 82.6313C635.049 83.4355 634.614 84.2879 633.81 84.5613C633.698 84.5935 633.473 84.6417 633.199 84.6417C633.199 84.6417 633.199 84.6417 633.167 84.6417C632.894 84.6417 632.475 84.5935 632.089 84.3361C631.735 84.111 631.43 83.7571 631.205 83.3711C630.819 82.5669 630.626 81.5858 630.626 80.0579C630.594 79.5271 630.481 79.1733 630.288 78.8677C630.127 78.5621 629.789 78.2887 629.468 78.0635C628.889 77.6775 628.165 77.4523 627.924 77.4041H624.675V83.3872C624.675 84.2075 623.983 84.8991 623.131 84.8991C622.278 84.8991 621.619 84.2075 621.619 83.3872V67.1427C621.619 66.2903 622.278 65.6309 623.131 65.6309C623.131 65.6309 623.131 65.6309 623.163 65.6309H628.068C631.349 65.6309 633.971 68.2847 633.971 71.5496C633.971 73.3671 633.151 74.9594 631.816 76.0691C632.17 76.3426 632.508 76.6803 632.781 77.0824C633.328 77.8866 633.698 78.8999 633.698 80.0579C633.666 80.8781 633.746 81.4089 633.81 81.6823C634.261 81.8271 634.614 82.1648 634.775 82.6313ZM630.915 71.5496C630.915 69.9574 629.645 68.6867 628.068 68.6867H624.675V74.3643H628.068C629.645 74.3643 630.915 73.0937 630.915 71.5496Z" fill="#1F0735"/>
<path d="M597.14 113.607H520.067V133.567H597.14V113.607Z" fill="#1F0735"/>
<path d="M563.574 126.826C563.574 127.148 563.316 127.405 562.995 127.405C562.673 127.405 562.416 127.148 562.416 126.826V120.666C562.416 120.666 562.416 120.666 562.416 120.65C562.4 120.473 562.496 120.28 562.641 120.168C562.914 119.991 563.268 120.039 563.445 120.296L566.871 125.041V120.666C566.871 120.361 567.128 120.087 567.45 120.087C567.772 120.087 568.029 120.361 568.029 120.666V126.826C568.029 127.148 567.756 127.405 567.45 127.405C567.273 127.405 567.128 127.325 567.016 127.196C567 127.18 566.967 127.148 566.967 127.132L563.574 122.419V126.826Z" fill="white"/>
<path d="M575.91 120.91C576.569 121.617 576.987 122.55 576.987 123.595C576.987 124.641 576.569 125.59 575.91 126.281C575.282 126.973 574.35 127.423 573.369 127.423C572.355 127.423 571.422 126.973 570.763 126.281C570.104 125.59 569.718 124.641 569.718 123.595C569.718 122.55 570.104 121.617 570.763 120.91C571.406 120.218 572.339 119.768 573.369 119.768C574.35 119.768 575.282 120.202 575.91 120.91ZM575.765 123.595C575.765 122.872 575.475 122.212 575.041 121.746C574.591 121.263 573.996 120.99 573.369 120.99C572.693 120.99 572.098 121.263 571.648 121.746C571.197 122.212 570.924 122.888 570.924 123.595C570.924 124.319 571.197 124.979 571.648 125.445C572.098 125.928 572.693 126.201 573.369 126.201C574.012 126.201 574.591 125.912 575.041 125.445C575.475 124.979 575.765 124.319 575.765 123.595Z" fill="white"/>
<path d="M588.471 120.863L585.865 127.055C585.849 127.088 585.833 127.136 585.817 127.152L585.801 127.168C585.785 127.184 585.769 127.216 585.753 127.232C585.753 127.248 585.737 127.248 585.737 127.265C585.721 127.281 585.688 127.297 585.656 127.313H585.64C585.608 127.329 585.592 127.361 585.544 127.377H585.528C585.528 127.377 585.512 127.377 585.512 127.393C585.495 127.393 585.463 127.409 585.431 127.409C585.415 127.409 585.415 127.409 585.415 127.409C585.383 127.425 585.351 127.425 585.302 127.425C585.27 127.425 585.238 127.425 585.206 127.409C585.19 127.409 585.174 127.409 585.174 127.409C585.142 127.393 585.126 127.393 585.093 127.393C585.077 127.377 585.077 127.377 585.077 127.377C585.029 127.361 584.997 127.329 584.981 127.313C584.965 127.313 584.965 127.313 584.965 127.313C584.933 127.297 584.916 127.265 584.884 127.265C584.868 127.248 584.868 127.248 584.868 127.232C584.852 127.216 584.836 127.184 584.82 127.168C584.804 127.168 584.804 127.152 584.804 127.152C584.788 127.136 584.772 127.088 584.756 127.055L583.372 123.774L581.989 127.055C581.973 127.088 581.957 127.136 581.941 127.152C581.925 127.152 581.925 127.168 581.925 127.168C581.909 127.184 581.877 127.216 581.861 127.232C581.861 127.248 581.844 127.248 581.844 127.265C581.828 127.281 581.796 127.297 581.78 127.313C581.764 127.313 581.764 127.313 581.764 127.313C581.732 127.329 581.7 127.361 581.684 127.377C581.668 127.377 581.668 127.377 581.668 127.377C581.668 127.377 581.651 127.377 581.651 127.393C581.603 127.393 581.587 127.409 581.571 127.409C581.555 127.409 581.555 127.409 581.539 127.409C581.507 127.425 581.475 127.425 581.442 127.425C581.41 127.425 581.362 127.425 581.33 127.409C581.314 127.409 581.314 127.409 581.298 127.409C581.265 127.393 581.249 127.393 581.217 127.393C581.201 127.377 581.201 127.377 581.201 127.377C581.169 127.361 581.121 127.329 581.105 127.313C581.089 127.313 581.089 127.313 581.089 127.313C581.056 127.297 581.04 127.265 581.008 127.265C580.992 127.248 580.992 127.248 580.992 127.232C580.976 127.216 580.96 127.184 580.944 127.168V127.152C580.928 127.136 580.912 127.088 580.896 127.055L578.29 120.879C578.177 120.59 578.306 120.236 578.612 120.123C578.901 119.995 579.255 120.139 579.368 120.429L581.442 125.335L582.81 122.086C582.906 121.844 583.131 121.732 583.356 121.732C583.582 121.732 583.807 121.86 583.903 122.086L585.27 125.335L587.345 120.429C587.474 120.139 587.812 119.995 588.117 120.123C588.455 120.236 588.6 120.59 588.471 120.863Z" fill="white"/>
<path d="M532.902 125.685H530.345L529.83 127.052C529.734 127.277 529.508 127.422 529.283 127.422C529.203 127.422 529.139 127.406 529.09 127.39C528.785 127.277 528.64 126.94 528.736 126.634L531.069 120.426C531.165 120.201 531.39 120.04 531.631 120.056C531.873 120.04 532.098 120.201 532.194 120.426L534.526 126.634C534.639 126.94 534.478 127.277 534.173 127.39C534.124 127.406 534.044 127.422 533.98 127.422C533.754 127.422 533.529 127.277 533.449 127.052L532.902 125.685ZM532.468 124.527L531.615 122.259L530.763 124.527H532.468Z" fill="white"/>
<path d="M538.403 124.558H537.1V126.842C537.1 127.164 536.843 127.421 536.505 127.421C536.183 127.421 535.926 127.164 535.926 126.842V120.634C535.926 120.312 536.183 120.055 536.505 120.055H536.521H538.403C539.657 120.055 540.67 121.068 540.67 122.322C540.67 123.545 539.657 124.558 538.403 124.558ZM537.1 123.384H538.403C539.014 123.384 539.48 122.901 539.496 122.306C539.48 121.695 539.014 121.213 538.403 121.213H537.1V123.384Z" fill="white"/>
<path d="M544.547 124.558H543.244V126.842C543.244 127.164 542.987 127.421 542.649 127.421C542.327 127.421 542.07 127.164 542.07 126.842V120.634C542.07 120.312 542.327 120.055 542.649 120.055H542.665H544.547C545.801 120.055 546.815 121.068 546.815 122.322C546.799 123.545 545.785 124.558 544.547 124.558ZM543.244 123.384H544.547C545.158 123.384 545.625 122.901 545.641 122.306C545.625 121.695 545.158 121.213 544.547 121.213H543.244V123.384Z" fill="white"/>
<path d="M548.214 126.842V120.634C548.214 120.312 548.471 120.055 548.793 120.055C549.114 120.055 549.388 120.312 549.388 120.634V126.263H552.235C552.54 126.263 552.814 126.52 552.814 126.858C552.814 127.18 552.54 127.437 552.235 127.437H548.825C548.809 127.437 548.809 127.437 548.809 127.437C548.793 127.437 548.793 127.437 548.793 127.437C548.471 127.421 548.214 127.164 548.214 126.842Z" fill="white"/>
<path d="M557.896 121.038L555.741 123.997V126.844C555.741 127.165 555.483 127.423 555.162 127.423C554.856 127.423 554.582 127.165 554.582 126.844V123.997L552.443 121.038C552.25 120.78 552.299 120.426 552.556 120.233C552.813 120.04 553.183 120.105 553.36 120.362L555.162 122.823L556.963 120.362C557.156 120.105 557.526 120.04 557.767 120.233C558.024 120.426 558.089 120.78 557.896 121.038Z" fill="white"/>
<path d="M429.724 488.93C429.724 488.93 379.672 528.833 379.64 528.865C369.314 537.422 360.42 545.094 356.19 549.501C356.158 549.517 356.141 549.533 356.125 549.565C354.533 551.222 353.6 552.412 353.568 552.975C353.568 553.023 353.552 553.055 353.552 553.087C354.018 557.88 419.945 642.384 423.242 644.555C426.524 646.742 432.989 637.51 433.037 632.203C433.07 626.863 422.31 583.228 422.31 583.228L470.464 541.282L429.724 488.93Z" fill="#EB9481"/>
<path d="M423.226 644.571C419.929 642.399 354.002 557.896 353.536 553.087C353.52 553.055 353.536 553.039 353.552 552.974C353.584 552.427 354.517 551.237 356.109 549.581C356.125 549.532 356.158 549.532 356.174 549.516C360.404 545.109 369.298 537.421 379.624 528.881C379.64 528.881 382.084 526.919 385.896 523.879L428.63 577.695L422.277 583.228C422.277 583.228 433.037 626.862 433.005 632.202C432.973 637.526 426.507 646.758 423.226 644.571Z" fill="#481670"/>
<path opacity="0.3" d="M423.226 644.568C419.929 642.397 354.002 557.893 353.536 553.084C353.327 551.267 365.084 540.941 379.64 528.862C379.801 528.733 379.945 528.621 380.106 528.492L423.242 582.533L422.294 583.241C422.294 583.241 433.07 626.876 433.021 632.216C432.957 637.507 426.507 646.755 423.226 644.568Z" fill="#481670"/>
<path opacity="0.3" d="M423.226 644.568C419.929 642.397 354.002 557.893 353.536 553.084C353.327 551.267 365.084 540.941 379.64 528.862C379.801 528.733 379.945 528.621 380.106 528.492L423.242 582.533L422.294 583.241C422.294 583.241 433.07 626.876 433.021 632.216C432.957 637.507 426.507 646.755 423.226 644.568Z" fill="#481670"/>
<path d="M425.752 641.046C414.992 626.523 370.199 568.991 358.458 555.465C358.362 555.352 358.281 555.417 358.362 555.529C368.719 570.149 413.963 627.327 425.511 641.223C425.768 641.529 425.977 641.352 425.752 641.046Z" fill="#1F0735"/>
<path d="M425.704 587.938C422.375 581.52 416.166 575.328 408.832 574.17C408.543 574.122 408.494 574.524 408.687 574.669C414.751 578.834 419.898 583.129 424.98 588.468C425.334 588.838 425.945 588.404 425.704 587.938Z" fill="#1F0735"/>
<path d="M426.428 593.889C423.098 587.471 416.89 581.279 409.556 580.121C409.266 580.073 409.218 580.475 409.411 580.62C415.475 584.785 420.622 589.08 425.704 594.42C426.058 594.789 426.669 594.339 426.428 593.889Z" fill="#1F0735"/>
<path d="M427.152 599.84C423.822 593.423 417.614 587.23 410.28 586.072C409.99 586.024 409.942 586.426 410.135 586.571C416.199 590.737 421.345 595.031 426.428 600.371C426.782 600.741 427.377 600.29 427.152 599.84Z" fill="#1F0735"/>
<path d="M382.825 526.129L430.529 583.049C430.529 583.049 538.595 485.308 542.359 470.318C546.637 453.254 573.336 330.889 573.4 324.166C573.464 316.012 569.878 283.201 569.878 283.201H500.67C500.67 283.201 476.351 430.109 474.26 435.481C471.977 441.255 382.825 526.129 382.825 526.129Z" fill="#1F0735"/>
<path d="M436.511 566.286C430.174 556.716 404.295 524.774 400.853 521.863C400.773 521.799 400.628 521.927 400.676 522.008C402.767 526.013 424.625 553.918 436.253 566.495C436.382 566.64 436.623 566.447 436.511 566.286Z" fill="#1F0735"/>
<path d="M549.306 283.186L549.676 438.103C546.202 452.514 543.452 465.848 542.342 470.303C540.396 478.055 510.593 507.906 482.254 534.959L471.735 438.73C473.15 437.106 474.019 435.98 474.212 435.482C476.319 430.094 500.637 283.186 500.637 283.186H549.306Z" fill="#1F0735"/>
<path d="M481.932 587.459C481.932 587.459 481.916 651.472 481.916 651.52C482.157 664.918 482.624 676.675 483.428 682.722C483.428 682.755 483.428 682.787 483.444 682.819C483.75 685.103 484.087 686.566 484.506 686.936C484.538 686.968 484.554 687.001 484.586 687.017C488.623 689.638 595.804 690.796 599.552 689.574C603.315 688.368 600.131 677.576 595.997 674.198C591.848 670.837 551.027 652.035 551.027 652.035L548.277 588.231L481.932 587.459Z" fill="#EB9481"/>
<path d="M599.552 689.605C595.804 690.828 488.623 689.67 484.57 687.032C484.538 687.032 484.538 687 484.489 686.952C484.087 686.582 483.733 685.118 483.428 682.834C483.396 682.802 483.412 682.77 483.412 682.738C482.592 676.69 482.141 664.933 481.9 651.536C481.9 651.519 481.9 648.383 481.916 643.51L550.641 643.655L551.011 652.082C551.011 652.082 591.832 670.884 595.981 674.246C600.131 677.591 603.315 688.399 599.552 689.605Z" fill="#1F0735"/>
<path d="M599.519 689.606C595.708 690.828 486.854 689.831 482.736 687.209C481.16 686.228 480.42 670.611 480.098 651.696C480.098 651.503 480.098 651.294 480.098 651.101L550.336 650.973L550.287 652.147C550.287 652.147 591.719 670.884 595.933 674.246C600.115 677.591 603.331 688.399 599.519 689.606Z" fill="#481670"/>
<path opacity="0.3" d="M599.535 689.606C595.74 690.829 487.657 689.767 483.572 687.13C481.996 686.149 481.272 670.531 480.918 651.617C480.918 651.424 480.918 651.215 480.918 651.022L550.657 650.941L550.609 652.115C550.609 652.115 591.767 670.869 595.949 674.247C600.114 677.592 603.315 688.4 599.535 689.606Z" fill="#1F0735"/>
<path d="M598.378 685.44C580.316 684.797 507.409 683.929 489.508 684.668C489.363 684.668 489.363 684.781 489.508 684.781C507.393 685.81 580.3 686.084 598.378 685.73C598.764 685.73 598.764 685.456 598.378 685.44Z" fill="#1F0735"/>
<path d="M556.834 652.357C549.741 650.958 541.04 651.955 535.539 656.957C535.33 657.15 535.604 657.456 535.829 657.375C542.873 655.236 549.436 653.885 556.786 653.242C557.317 653.209 557.333 652.453 556.834 652.357Z" fill="#1F0735"/>
<path d="M561.932 655.494C554.839 654.094 546.138 655.092 540.637 660.094C540.428 660.287 540.702 660.592 540.927 660.512C547.972 658.373 554.534 657.022 561.884 656.378C562.415 656.346 562.431 655.606 561.932 655.494Z" fill="#1F0735"/>
<path d="M567.031 658.646C559.938 657.247 551.237 658.244 545.736 663.246C545.527 663.439 545.8 663.745 546.026 663.664C553.07 661.525 559.632 660.174 566.983 659.531C567.513 659.499 567.529 658.743 567.031 658.646Z" fill="#1F0735"/>
<path d="M564.828 283.186C564.828 283.186 563.3 313.535 552.266 331.308C552.266 331.308 540.3 335.972 538.981 336.824C538.981 336.824 546.299 443.282 547.908 478.811C549.693 518.296 552.315 648.011 552.315 648.011L479.552 647.705C479.552 647.705 484.715 492.498 484.313 482.558C483.67 466.587 468.84 340.749 468.985 333.109C469.307 317.154 481.305 283.186 481.305 283.186H564.828Z" fill="#1F0735"/>
<path d="M544.948 632.089C526.484 631.075 490.73 631.268 486.146 632.137C486.05 632.153 486.05 632.346 486.146 632.378C490.73 633.247 534.156 633.584 544.948 632.426C545.141 632.41 545.141 632.105 544.948 632.089Z" fill="#1F0735"/>
<path d="M496.681 307.119C498.032 306.91 499.448 307.103 500.799 307.022C502.23 306.942 503.662 306.797 505.061 306.524C507.715 306.009 510.384 305.173 512.813 303.967C515.322 302.712 517.091 300.766 518.7 298.53C519.552 297.34 523.557 290.858 523.589 290.826C523.702 290.681 524.007 290.81 523.959 290.987C523.702 291.92 520.984 297.597 520.179 298.997C518.668 301.634 516.786 303.95 514.052 305.414C511.398 306.846 508.438 307.682 505.447 308.052C503.903 308.245 502.343 308.341 500.799 308.261C499.399 308.18 497.839 308.148 496.536 307.569C496.343 307.441 496.488 307.151 496.681 307.119Z" fill="#37474F"/>
<path d="M552.185 331.409C546.025 333.162 540.042 335.784 534.3 338.582C534.075 338.695 534.204 339.033 534.445 338.952C540.461 336.749 546.572 334.658 552.459 332.133C552.925 331.94 552.652 331.28 552.185 331.409Z" fill="#1F0735"/>
<path d="M556.254 291.216C556.254 291.007 555.9 290.942 555.884 291.168C555.546 298.148 554.774 304.26 553.825 310.741C553.391 313.749 550.03 330.347 544.851 328.836C543.982 328.578 543.58 327.694 543.516 326.359C543.435 324.75 544.143 322.836 544.497 321.276C545.269 317.802 545.928 314.328 546.427 310.806C547.344 304.244 547.746 297.633 547.296 291.007C547.279 290.782 546.974 290.782 546.958 291.007C546.459 300.142 545.719 309.246 543.87 318.22C542.969 322.531 540.428 328.964 544.931 329.881C549.531 330.814 553.118 320.006 553.858 317.046C555.9 308.747 556.447 299.708 556.254 291.216Z" fill="#1F0735"/>
<path d="M544.964 329.287C544.433 330.381 543.983 331.539 543.597 332.681C543.291 333.582 542.905 334.547 542.953 335.496C542.969 335.689 543.211 335.705 543.307 335.592C543.967 334.852 544.288 333.791 544.674 332.89C545.125 331.845 545.607 330.799 546.041 329.738C546.331 329.046 545.302 328.612 544.964 329.287Z" fill="#1F0735"/>
<path d="M570.489 307.199C570.055 306.813 569.604 306.749 569.17 306.476C568.704 306.186 568.253 305.832 567.787 305.382C566.918 304.53 566.05 303.404 565.23 301.988C564.393 300.541 563.782 298.611 563.203 296.456C562.897 295.314 561.643 289.266 561.627 289.218C561.579 289.073 561.305 289.25 561.305 289.395C561.305 290.81 562.206 295.458 562.495 296.777C563.058 299.254 563.959 301.345 564.86 303.002C565.744 304.626 566.725 305.8 567.69 306.588C568.189 306.99 568.688 307.312 569.186 307.489C569.636 307.65 570.135 307.859 570.521 307.569C570.618 307.537 570.553 307.264 570.489 307.199Z" fill="#37474F"/>
<path d="M534.975 190.657C552.86 227.183 572.868 261.184 586.491 262.246C588.856 262.423 601.899 260.814 606.017 252.049C612.949 237.284 619.913 207.626 621.168 193.472C621.73 187.2 579.656 179.705 578.192 186.283C576.133 195.499 575.973 202.736 574.975 202.608C573.319 202.382 564.199 191.397 547.842 177.388C525.357 158.12 529.04 178.547 534.975 190.657Z" fill="#EB9481"/>
<path d="M627.761 176.695C626.442 185.509 616.712 202.493 612.787 205.694C608.863 208.895 579.446 193.294 578.561 188.163C577.677 183.048 584.4 153.696 591.074 147.52C597.733 141.327 629.128 167.56 627.761 176.695Z" fill="#EB9481"/>
<path d="M578.819 182.969C578.819 182.969 576.294 171.647 570.858 162.994C566.29 155.724 558.682 145.43 562.51 142.825C570.359 137.485 589.306 163.154 589.306 163.154C589.306 163.154 595.852 175.812 588.55 181.795C583.966 185.559 578.819 182.969 578.819 182.969Z" fill="#EB9481"/>
<path d="M596.929 164.842L605.357 159.132L588.79 134.701L578.127 141.939L596.929 164.842Z" fill="#1F0735"/>
<path d="M578.127 141.939L585.3 150.672L596.929 164.842L605.373 159.132L588.806 134.701L578.127 141.939Z" fill="#1F0735"/>
<path opacity="0.1" d="M578.127 141.939L585.3 150.672L595.111 144.014L588.806 134.701L578.127 141.939Z" fill="#1F0735"/>
<path d="M579.563 146.203L592.849 137.195L586.007 127.104L572.722 136.113L579.563 146.203Z" fill="#481670"/>
<path d="M561.335 138.465L572.353 132.514L561.287 116.189L551.669 124.215L561.335 138.465Z" fill="#481670"/>
<path d="M564.408 109.353L580.733 133.446L599.454 123.78L649.748 111.299L610.519 53.4297L580.314 95.5367L564.408 109.353Z" fill="#481670"/>
<path d="M650.809 110.82C655.97 107.321 651.329 91.4668 640.441 75.4095C629.554 59.3521 616.544 49.172 611.383 52.6715C606.222 56.1709 610.863 72.0248 621.751 88.0822C632.638 104.139 645.648 114.32 650.809 110.82Z" fill="#481670"/>
<path opacity="0.2" d="M623.563 86.0958C633.229 100.346 644.488 109.578 648.718 106.715C652.948 103.852 648.541 89.972 638.875 75.7219C629.208 61.4718 617.95 52.2398 613.72 55.1027C609.49 57.9655 613.897 71.8296 623.563 86.0958Z" fill="black"/>
<path d="M624.802 85.2448C626.088 87.1427 627.407 88.9441 628.726 90.649C630.27 90.7937 631.862 90.4077 633.245 89.4748C636.43 87.3196 637.266 82.9771 635.095 79.7925L633.245 77.0583C631.074 73.8737 626.748 73.0374 623.563 75.1926C622.212 76.1093 621.279 77.4443 620.829 78.8918C622.019 80.9827 623.354 83.1057 624.802 85.2448Z" fill="#1F0735"/>
<path d="M572.305 141.102L593.616 129.57L572.209 97.998L553.6 113.519L572.305 141.102Z" fill="#1F0735"/>
<path opacity="0.2" d="M572.305 141.102L593.616 129.57L572.209 97.998L553.6 113.519L572.305 141.102Z" fill="#1F0735"/>
<path opacity="0.2" d="M610.487 59.2383C610.166 61.8599 610.696 64.5137 611.324 67.0549C612.015 69.5961 612.9 72.0891 613.977 74.5017C614.476 75.724 615.103 76.882 615.666 78.0722C616.31 79.2302 616.905 80.4044 617.564 81.5302C618.24 82.6561 618.883 83.8141 619.607 84.9078C620.33 86.0175 621.022 87.1273 621.762 88.221C624.753 92.5475 628.002 96.7293 631.734 100.461C633.616 102.31 635.594 104.063 637.781 105.559C639.969 107.007 642.333 108.342 644.955 108.76C642.381 108.181 640.097 106.798 637.99 105.27C635.883 103.726 633.953 101.94 632.152 100.059C628.533 96.2789 625.316 92.1454 622.389 87.8028C619.43 83.4924 616.696 79.0051 614.492 74.2604C613.35 71.9122 612.417 69.4514 611.661 66.9584C610.938 64.4655 610.343 61.8599 610.487 59.2383Z" fill="black"/>
<path d="M630.962 43.5059C630.126 45.1303 629.354 46.7708 628.614 48.4275C627.858 50.0841 627.166 51.7568 626.459 53.4456C625.783 55.1343 625.108 56.8231 624.48 58.528L623.564 61.1014C623.29 61.9699 622.985 62.8223 622.727 63.7069C623.162 62.9027 623.531 62.0825 623.95 61.2622L625.092 58.7853C625.848 57.1287 626.539 55.456 627.247 53.7672C627.922 52.0784 628.598 50.3897 629.225 48.6848C629.82 46.9638 630.431 45.259 630.962 43.5059Z" fill="#1F0735"/>
<path d="M643.475 96.1963C645.502 95.8586 647.512 95.4243 649.506 94.9901C651.517 94.5558 653.495 94.0572 655.49 93.5586C657.468 93.044 659.462 92.5293 661.424 91.9503L664.368 91.0817C665.349 90.7601 666.33 90.4706 667.295 90.1328C666.282 90.2936 665.268 90.5027 664.271 90.6957L661.264 91.3391C659.253 91.7733 657.275 92.2719 655.28 92.7705C653.302 93.2852 651.308 93.7999 649.346 94.3789C647.383 94.9418 645.405 95.5369 643.475 96.1963Z" fill="#1F0735"/>
<path d="M674.999 74.2422C672.152 75.2555 669.353 76.3491 666.555 77.4589C663.756 78.5526 660.974 79.7267 658.191 80.8847C655.425 82.0588 652.642 83.249 649.892 84.4875L645.775 86.3532C644.408 86.9965 643.04 87.6238 641.689 88.2993C643.121 87.8007 644.52 87.2539 645.936 86.7231L650.149 85.0665C652.948 83.9567 655.731 82.7987 658.513 81.6407C661.279 80.4666 664.062 79.2764 666.812 78.0379C669.546 76.7995 672.297 75.561 674.999 74.2422Z" fill="#1F0735"/>
<path d="M646.563 37.1699C644.891 39.7272 643.298 42.3328 641.706 44.9544C640.114 47.56 638.586 50.2138 637.042 52.8515C635.53 55.5053 634.002 58.1591 632.538 60.845L630.351 64.866C629.643 66.217 628.92 67.568 628.244 68.9351C629.08 67.6645 629.885 66.3617 630.705 65.059L633.101 61.1506C634.694 58.5451 636.222 55.8913 637.766 53.2536C639.277 50.5998 640.805 47.946 642.269 45.26C643.733 42.5901 645.18 39.9041 646.563 37.1699Z" fill="#1F0735"/>
<path d="M635.835 78.1821C638.827 76.3164 641.77 74.3703 644.713 72.4081C647.657 70.4459 650.552 68.4354 653.463 66.4571C656.342 64.4145 659.253 62.4201 662.116 60.3453L666.394 57.2412C667.809 56.1797 669.225 55.1342 670.624 54.0566C669.128 54.9895 667.649 55.9545 666.153 56.9034L661.73 59.8307C658.787 61.7929 655.892 63.8033 652.98 65.7816C650.101 67.8242 647.19 69.8186 644.327 71.8934C641.481 73.9521 638.634 76.0269 635.835 78.1821Z" fill="#1F0735"/>
<path d="M582.711 159.099C584.529 163.458 588.63 158.81 588.63 158.81C588.63 158.81 584.352 166.916 587.971 170.679C591.461 174.298 596.206 168.524 596.559 168.106C596.334 168.54 592.603 176.083 596.624 179.493C600.805 183.032 604.569 176.405 604.826 175.987C604.746 176.453 603.749 182.726 607.4 184.624C613.672 187.873 616.632 171.918 621.473 168.894C621.473 168.894 627.553 176.518 627.778 176.711C627.778 176.711 630.914 161.592 626.459 155.287C624.111 151.958 620.54 153.502 620.54 153.502C620.54 153.502 622.084 148.741 619.012 145.959C617.42 144.527 613.737 145.798 613.737 145.798C613.737 145.798 614.814 141.938 611.919 139.622C609.619 137.772 606.274 139.332 606.274 139.332C606.274 139.332 605.582 135.134 602.623 134.009C596.608 131.725 578.819 149.755 582.711 159.099Z" fill="#EB9481"/>
<path d="M605.678 139.476C605.743 139.428 605.678 139.315 605.598 139.363C598.296 143.867 591.653 151.056 588.372 159.034C588.26 159.291 588.646 159.58 588.823 159.323C593.776 151.748 598.794 145.427 605.678 139.476Z" fill="#1F0735"/>
<path d="M613.768 145.65C613.849 145.586 613.736 145.457 613.64 145.521C606.145 150.202 598.891 158.501 596.189 168.151C596.092 168.489 596.35 168.875 596.478 168.505C598.762 162.216 607.528 150.958 613.768 145.65Z" fill="#1F0735"/>
<path d="M604.842 176.727C607.802 167.575 613.383 160.305 620.202 153.647C620.299 153.566 620.154 153.437 620.074 153.502C615.86 155.85 611.951 160.546 609.233 164.439C606.628 168.186 605.019 172.078 604.537 176.614C604.505 176.791 604.778 176.92 604.842 176.727Z" fill="#1F0735"/>
<path d="M588.469 158.84C588.341 159.162 588.936 159.001 588.823 159.322C588.325 160.657 585.992 168.973 588.582 170.645C590.657 171.98 593.89 170.114 594.855 168.908L597.267 165.884L596.045 169.568C595.514 171.176 595.176 172.945 595.192 174.634C595.208 176.307 595.675 177.979 596.833 178.96C598.023 180.006 599.583 180.215 600.886 179.346C602.205 178.542 603.315 177.079 604.103 175.631L606.274 171.594L605.55 176.098C605.357 177.32 605.293 178.655 605.422 179.893C605.55 181.132 605.888 182.37 606.628 183.223C607.335 184.059 608.526 184.525 609.539 184.22C610.6 183.93 611.582 182.997 612.402 182.016C614.075 180.006 615.329 177.626 616.696 175.326C617.372 174.168 618.047 172.993 618.787 171.868C619.527 170.758 620.315 169.584 621.473 168.86C620.395 169.68 619.784 170.919 619.109 172.061C618.465 173.235 617.886 174.441 617.307 175.647C616.133 178.06 614.927 180.488 613.286 182.724C612.434 183.802 611.469 184.928 609.941 185.458C608.365 185.989 606.612 185.33 605.598 184.139C604.553 182.933 604.167 181.453 603.99 180.054C603.829 178.623 603.861 177.256 604.07 175.824L605.518 176.291C604.617 178.012 603.508 179.572 601.771 180.714C600.918 181.26 599.776 181.598 598.682 181.453C597.573 181.309 596.624 180.794 595.852 180.102C594.227 178.671 593.761 176.484 593.777 174.618C593.793 172.688 594.163 170.87 594.79 169.069L595.996 169.728C594.726 171.208 591.332 173.701 587.858 172.028C583.596 169.198 587.617 160.4 588.469 158.84Z" fill="#1F0735"/>
<path d="M588.63 158.811C587.794 159.422 586.925 159.921 586.089 160.194C585.252 160.468 584.432 160.339 583.901 159.84C583.338 159.358 583.017 158.473 582.792 157.557C582.582 156.624 582.422 155.643 582.293 154.613C581.907 155.578 581.73 156.624 581.778 157.701C581.827 158.747 582.084 159.937 583.033 160.838C583.531 161.24 584.143 161.497 584.77 161.545C585.397 161.577 586.008 161.417 586.507 161.127C587.488 160.612 588.18 159.744 588.63 158.811Z" fill="#1F0735"/>
<path d="M627.713 205.068L578.111 184.706C578.111 184.706 575.168 201.288 574.589 201.369C573.994 201.465 559.728 184.465 542.888 172.788C525.55 160.757 527.625 176.793 533.19 190.158C539.285 204.778 568.751 258.658 582.55 263.017C594.243 266.7 605.196 257.259 607.93 252.434C611.694 245.776 627.713 205.068 627.713 205.068Z" fill="#481670"/>
<path d="M621.071 210.97C619.43 210.053 603.942 203.973 600.548 202.719C597.155 201.464 593.745 200.226 590.351 198.988C586.845 197.701 583.323 196.221 579.72 195.224C579.559 195.176 579.463 195.385 579.623 195.465C582.985 197.122 586.588 198.344 590.062 199.727C593.488 201.078 596.913 202.445 600.355 203.797C603.781 205.148 619.254 210.825 621.023 211.211C621.151 211.243 621.184 211.034 621.071 210.97Z" fill="#1F0735"/>
<path d="M574.686 201.467C574.284 204.169 574.026 206.871 573.833 209.589C573.624 212.307 573.512 215.025 573.463 217.743C573.431 220.462 573.431 223.18 573.592 225.914C573.737 228.632 573.962 231.35 574.412 234.036C574.428 232.669 574.38 231.318 574.412 229.967C574.396 228.616 574.412 227.249 574.428 225.898L574.557 217.776L574.67 209.637L574.718 205.568C574.686 204.185 574.718 202.834 574.686 201.467Z" fill="#1F0735"/>
<path opacity="0.1" d="M596.897 261.749C592.683 263.727 587.697 264.644 582.551 263.019C568.735 258.66 539.286 204.78 533.19 190.16C528.863 179.77 526.66 167.788 533.994 168.576C546.298 186.702 578.144 233.924 596.897 261.749Z" fill="black"/>
<path d="M471.509 300.094L571.968 294.271C573.367 292.615 548.647 185.868 536.761 171.006C534.22 167.838 519.953 163.158 509.724 171.36C490.456 186.833 470.561 299.064 471.509 300.094Z" fill="#EBEBEB"/>
<path d="M511.155 168.514C511.155 168.514 520.725 205.458 522.59 218.421C524.456 231.385 523.539 337.151 523.539 337.151L466.33 347.702C466.33 347.702 475.224 268.57 475.353 265.675C475.353 265.675 485.518 208.289 497.387 185.514C506.105 168.787 511.155 168.514 511.155 168.514Z" fill="#481670"/>
<path d="M535.522 169.223C535.522 169.223 545.108 208.644 546.009 212.825C546.91 217.007 561.867 334.627 561.867 334.627L582.857 338.004L569.057 259.983C569.057 259.983 546.331 175.463 535.522 169.223Z" fill="#481670"/>
<path d="M496.358 181.17C478.586 202.674 458.047 236.594 454.862 251.102C452.627 261.25 468.389 306.526 474.195 317.881C476.704 322.786 514.903 307.989 513.744 302.231C512.345 295.315 492.739 252.485 493.946 251.069C495.264 249.509 503.917 211.182 508.887 188.15C514.324 162.899 503.338 172.742 496.358 181.17Z" fill="#EB9481"/>
<path d="M470.174 316.533L515.675 293.373C515.675 293.373 496.535 256.911 496.471 253.984C496.358 249.271 506.684 208.596 510.319 191.209C513.938 173.887 513.455 156.758 492.611 182.926C471.766 209.111 453.334 243.304 451.388 253.55C450.005 260.771 470.174 316.533 470.174 316.533Z" fill="#481670"/>
<path d="M468.148 303.617C469.675 302.539 476.093 299.274 477.589 298.486C480.854 296.781 484.119 295.044 487.384 293.356C490.649 291.667 493.914 289.962 497.195 288.305C500.46 286.665 503.692 284.896 507.038 283.432C507.166 283.368 507.263 283.577 507.15 283.657C504.143 285.764 481.642 297.843 478.329 299.419C476.736 300.175 470.029 303.295 468.244 303.794C468.131 303.81 468.051 303.681 468.148 303.617Z" fill="#1E0133"/>
<path d="M510.303 296.108L515.578 293.197L515.482 293.486C511.638 286.651 507.987 279.735 504.352 272.787C502.583 269.297 500.814 265.79 499.109 262.252C498.256 260.483 497.42 258.714 496.632 256.896C496.439 256.43 496.246 255.979 496.069 255.497C495.972 255.272 495.892 255.014 495.812 254.757C495.747 254.532 495.635 254.082 495.683 253.808C495.763 252.65 495.972 251.765 496.149 250.768C497.709 243.064 499.43 235.425 501.328 227.817C503.194 220.209 505.124 212.618 507.231 205.059C505.719 212.747 504.095 220.418 502.47 228.074C500.91 235.746 499.093 243.37 497.693 251.042C497.532 251.975 497.339 253.02 497.291 253.808C497.275 254.082 497.42 254.468 497.581 254.934C497.742 255.368 497.918 255.819 498.095 256.269C498.835 258.054 499.656 259.823 500.492 261.593C502.148 265.131 503.869 268.653 505.59 272.16L515.852 293.293L515.948 293.486L515.755 293.567L510.303 296.108Z" fill="#1E0133"/>
<path d="M505.124 214.176C505.735 213.082 506.218 212.005 506.652 210.879C507.102 209.769 507.456 208.627 507.939 207.453C508.019 208.08 507.987 208.724 507.89 209.351C507.81 209.978 507.633 210.589 507.408 211.185C507.167 211.764 506.877 212.343 506.491 212.857C506.121 213.356 505.687 213.854 505.124 214.176Z" fill="#1E0133"/>
<path d="M472.812 319.234C474.935 319.475 477.058 319.202 479.133 318.783C481.224 318.414 483.266 317.867 485.277 317.207C489.314 315.904 493.254 314.344 497.114 312.575C500.991 310.838 504.802 308.956 508.453 306.817C510.287 305.756 512.072 304.598 513.697 303.263C514.533 302.619 515.321 301.912 516.045 301.14C516.753 300.368 517.444 299.531 517.766 298.502C517.605 299.58 517.01 300.545 516.367 301.397C515.723 302.266 514.983 303.07 514.211 303.842C512.635 305.337 510.898 306.624 509.113 307.847C505.526 310.275 501.682 312.221 497.758 314.023C493.833 315.776 489.78 317.336 485.582 318.365C483.492 318.896 481.369 319.314 479.213 319.523C477.106 319.716 474.887 319.845 472.812 319.234Z" fill="#1E0133"/>
<path d="M532.611 183.117C527.448 184.79 515.996 179.483 511.654 172.261C511.364 171.762 511.911 166.39 512.265 159.844C512.474 155.872 512.603 151.433 512.426 147.38C512.394 146.543 538.111 152.478 538.111 152.478C538.111 152.478 535.972 161.083 536.31 168.144C536.342 168.739 536.423 169.286 536.551 169.8C536.567 169.881 536.584 169.961 536.6 170.074C537.259 173.226 538.128 181.332 532.611 183.117Z" fill="#EB9481"/>
<path d="M536.568 169.815C536.568 169.895 536.6 169.991 536.6 170.088C535.812 170.233 534.943 170.313 534.01 170.329C519.036 170.635 514.292 152.074 513.327 147.346C517.878 147.796 538.112 152.476 538.112 152.476C538.112 152.476 535.972 161.081 536.31 168.158C536.358 168.737 536.439 169.3 536.568 169.815Z" fill="#EB9481"/>
<path d="M539.334 100.963C539.334 100.963 545.559 105.273 548.068 110.291C550.577 115.31 549.017 126.343 549.017 126.343L539.334 100.963Z" fill="black"/>
<path d="M506.362 116.016C504.287 125.216 510.962 150.87 517.798 156.193C527.705 163.913 542.953 163.576 549.257 151.899C555.369 140.576 546.073 107.299 538.53 102.57C527.432 95.5901 509.434 102.426 506.362 116.016Z" fill="#EB9481"/>
<path d="M529.893 130.471C529.86 130.407 529.78 130.583 529.796 130.664C530.295 132.385 530.568 134.427 529.153 135.409C529.105 135.441 529.137 135.521 529.185 135.505C531.035 134.733 530.632 132.015 529.893 130.471Z" fill="#263238"/>
<path d="M527.882 129.057C525.052 129.556 526.258 135.185 528.88 134.735C531.469 134.268 530.263 128.639 527.882 129.057Z" fill="black"/>
<path d="M540.17 128.189C540.17 128.125 540.331 128.237 540.331 128.318C540.653 130.071 541.312 132.033 543.017 132.274C543.065 132.274 543.081 132.371 543.017 132.371C541.039 132.515 540.186 129.91 540.17 128.189Z" fill="#263238"/>
<path d="M541.344 126.033C544.11 125.213 545.526 130.794 542.968 131.55C540.443 132.306 539.028 126.709 541.344 126.033Z" fill="black"/>
<path d="M525.116 126.951C525.84 126.597 526.451 126.147 527.127 125.712C527.899 125.23 528.558 124.924 528.944 124.056C529.153 123.589 528.88 122.898 528.446 122.656C527.432 122.093 526.355 122.447 525.406 122.994C524.376 123.589 523.733 124.297 523.315 125.407C522.897 126.484 524.151 127.433 525.116 126.951Z" fill="black"/>
<path d="M542.905 122.736C542.1 122.768 541.344 122.672 540.54 122.639C539.64 122.591 538.9 122.639 538.144 122.076C537.742 121.771 537.645 121.031 537.903 120.613C538.514 119.632 539.623 119.407 540.717 119.423C541.907 119.439 542.808 119.76 543.725 120.516C544.626 121.24 543.982 122.672 542.905 122.736Z" fill="black"/>
<path d="M531.968 146.492C532.466 146.814 533.013 147.281 533.657 147.2C534.268 147.12 534.927 146.702 535.442 146.364C535.49 146.332 535.554 146.38 535.538 146.444C535.233 147.216 534.364 147.827 533.528 147.86C532.708 147.892 532.177 147.297 531.823 146.605C531.759 146.509 531.887 146.444 531.968 146.492Z" fill="#263238"/>
<path d="M532.675 140.876C533.978 142.179 535.586 142.71 537.21 142.677C537.934 142.661 538.674 142.533 539.366 142.324C539.51 142.291 539.639 142.243 539.768 142.195C539.896 142.147 540.009 142.115 540.138 142.05C540.331 141.97 540.411 141.777 540.411 141.584V141.568C540.395 141.503 540.379 141.455 540.363 141.391C540.363 141.391 540.363 141.391 540.363 141.375L540.331 141.23C540.073 139.879 539.51 137.868 539.51 137.868C540.057 138.013 542.791 138.592 542.615 137.901C541.022 132.159 539.253 125.79 536.454 120.402C536.374 120.225 536.085 120.321 536.149 120.514C537.468 126.095 539.752 131.403 541.151 136.968C540.282 136.839 538.867 136.55 538.159 136.71C537.982 136.807 539.333 140.587 539.398 141.198C539.398 141.198 539.398 141.23 539.398 141.262C537.194 142.034 535.361 141.712 532.836 140.667C532.659 140.603 532.546 140.747 532.675 140.876Z" fill="black"/>
<path d="M538.434 141.797C538.434 141.797 537.582 143.663 536.086 144.596C535.539 144.933 534.896 145.159 534.188 145.126C532.708 145.062 532.403 143.791 532.435 142.633C532.451 141.684 532.708 140.832 532.708 140.832C532.708 140.832 535.121 142.296 538.434 141.797Z" fill="black"/>
<path d="M536.086 144.594C535.539 144.932 534.896 145.157 534.188 145.125C532.708 145.061 532.403 143.79 532.435 142.632C533.947 142.471 535.635 143.163 536.086 144.594Z" fill="#FF9BBC"/>
<path d="M509.821 138.095C514.678 137.226 512.828 128.847 512.828 128.847C512.828 128.847 522.237 125.517 520.838 112.811C520.838 112.811 535.764 114.999 541.618 106.362C547.472 97.741 524.794 83.507 505.655 104.705C505.655 104.705 495.394 108.565 495.442 117.54C495.506 126.547 503.966 139.14 509.821 138.095Z" fill="black"/>
<path d="M520.243 111.464C520.163 111.351 519.97 111.448 520.018 111.576C523.186 119.554 519.31 128.126 510.336 129.252C510.03 129.284 510.078 129.735 510.368 129.719C519.407 129.494 525.84 119.2 520.243 111.464Z" fill="black"/>
<path d="M524.956 93.6903C524.94 93.6903 524.94 93.7225 524.956 93.7225C528.012 93.5616 531.132 93.4973 534.123 94.2693C538.611 95.4273 544.932 99.4322 543.001 104.949C540.348 112.524 529.7 112.637 523.09 112.219C522.656 112.186 522.527 112.798 522.961 112.894C529.829 114.503 543.162 112.782 544.256 103.92C545.478 94.0924 531.55 92.5966 524.956 93.6903Z" fill="black"/>
<path d="M514.533 137.019C514.533 137.019 507.874 129.186 504.255 131.631C500.653 134.092 506.201 145.833 510.833 147.071C515.466 148.31 516.688 144.048 516.688 144.048L514.533 137.019Z" fill="#EB9481"/>
<path d="M505.944 134.959C505.88 134.959 505.864 135.056 505.928 135.088C509.177 136.069 511.107 138.819 512.555 141.714C511.509 140.637 510.19 140.122 508.727 141.376C508.646 141.441 508.743 141.569 508.823 141.537C510.078 141.135 511.027 141.28 511.992 142.229C512.667 142.904 513.182 143.773 513.697 144.577C513.874 144.85 514.356 144.641 514.227 144.336C514.211 144.32 514.211 144.288 514.195 144.271C513.906 140.251 510.271 134.943 505.944 134.959Z" fill="black"/>
<path d="M536.375 167.851L530.311 182.632L512.024 163.75L506.765 169.733C506.765 169.733 524.569 199.649 524.698 198.314L530.89 185.576L539.64 194.518L539.077 172.194L536.375 167.851Z" fill="#EBEBEB"/>
<path d="M539.994 183.471C539.785 179.788 539.656 176.072 539.27 172.405C539.254 172.277 539.045 172.212 539.012 172.373C538.257 175.928 539.157 190.001 539.109 193.378C539.093 193.362 539.077 193.346 539.077 193.346C538.707 192.96 530.955 185.465 530.874 185.594C529.539 187.62 524.988 196.885 524.682 197.737C521.867 192.976 509.901 174.239 506.556 169.735C506.459 169.607 506.266 169.703 506.33 169.864C508.807 174.882 524.264 199.603 524.489 199.554C524.634 199.667 530.295 188.248 530.971 186.092C532.273 187.717 540.106 196.177 540.138 195.614C540.364 191.899 540.219 187.154 539.994 183.471Z" fill="#1E0133"/>
<path d="M527.529 192.992L531.067 185.818L536.922 191.399L535.313 196.578L529.893 197.029L527.529 192.992Z" fill="#1E0133"/>
<path d="M529.893 197.028L528.237 258.629L539.994 280.02L547.585 258.162L535.313 196.578L529.893 197.028Z" fill="#1E0133"/>
</g>
<defs>
<clipPath id="clip0_1036_7893">
<rect width="674.58" height="689.747" fill="white" transform="translate(0.419922 0.392578)"/>
</clipPath>
</defs>
</svg>
