<svg width="664" height="704" viewBox="0 0 664 704" fill="none" xmlns="http://www.w3.org/2000/svg">
<g clip-path="url(#clip0_1036_8294)">
<path d="M519.691 644.675C391.316 718.796 187.835 723.141 50.6436 657.695L542.622 374.122C655.585 453.323 647.942 570.616 519.691 644.675Z" fill="#F5F5F5"/>
<path d="M546.748 369.948L41.8748 660.946L42.6563 662.29L546.748 371.746V369.948Z" fill="#E0E0E0"/>
<path d="M385.705 109.665V118.762C385.705 121.638 387.721 122.795 390.206 121.356L431.847 97.3164C434.332 95.8784 436.348 92.3927 436.348 89.5323V80.4352C436.348 77.5591 434.332 76.4024 431.847 77.8405L390.206 101.881C387.721 103.303 385.705 106.789 385.705 109.665Z" fill="#F5F5F5"/>
<path d="M521.207 146.053L479.567 170.093C477.082 171.531 475.065 175.017 475.065 177.878V186.975C475.065 189.851 477.082 191.007 479.567 189.569L521.207 165.529C523.693 164.091 525.709 160.606 525.709 157.745V148.648C525.709 145.772 523.693 144.615 521.207 146.053Z" fill="#F5F5F5"/>
<path d="M527.335 221.987L485.695 246.028C483.209 247.466 481.193 250.951 481.193 253.812V262.909C481.193 265.785 483.209 266.941 485.695 265.503L527.335 241.463C529.82 240.025 531.837 236.54 531.837 233.679V224.582C531.837 221.706 529.82 220.549 527.335 221.987Z" fill="#F5F5F5"/>
<path d="M256.438 396.927L214.798 420.967C212.313 422.405 210.296 425.891 210.296 428.751V437.848C210.296 440.724 212.313 441.881 214.798 440.443L256.438 416.403C258.924 414.965 260.94 411.479 260.94 408.619V399.522C260.94 396.661 258.924 395.505 256.438 396.927Z" fill="#F5F5F5"/>
<path d="M343.986 438.395V447.492C343.986 450.353 346.002 451.525 348.488 450.087L390.128 426.047C392.613 424.609 394.63 421.123 394.63 418.263V409.166C394.63 406.29 392.613 405.133 390.128 406.571L348.488 430.611C345.987 432.049 343.986 435.535 343.986 438.395Z" fill="#F5F5F5"/>
<path d="M318.665 249.513V258.61C318.665 261.486 320.681 262.643 323.166 261.205L364.807 237.165C367.292 235.727 369.308 232.241 369.308 229.381V220.284C369.308 217.408 367.292 216.251 364.807 217.689L323.166 241.729C320.681 243.152 318.665 246.653 318.665 249.513Z" fill="#F5F5F5"/>
<path d="M464.28 84.218L422.64 108.258C420.155 109.696 418.138 113.182 418.138 116.042V125.139C418.138 128.015 420.155 129.172 422.64 127.734L464.28 103.694C466.766 102.256 468.782 98.7703 468.782 95.9098V86.8127C468.766 83.9523 466.766 82.78 464.28 84.218Z" fill="#F5F5F5"/>
<path d="M466 177.127L424.359 201.167C421.874 202.605 419.858 206.091 419.858 208.951V218.049C419.858 220.925 421.874 222.081 424.359 220.643L466 196.603C468.485 195.165 470.501 191.679 470.501 188.819V179.722C470.501 176.861 468.485 175.689 466 177.127Z" fill="#F5F5F5"/>
<path d="M393.661 27.7755L352.02 51.8156C349.535 53.2537 347.519 56.7393 347.519 59.5997V68.6968C347.519 71.5729 349.535 72.7296 352.02 71.2915L393.661 47.2514C396.146 45.8134 398.162 42.3278 398.162 39.4673V30.3702C398.162 27.4942 396.146 26.3375 393.661 27.7755Z" fill="#F5F5F5"/>
<path d="M490.118 45.6256L448.478 69.6657C445.992 71.1038 443.976 74.5894 443.976 77.4498V86.5469C443.976 89.423 445.992 90.5797 448.478 89.1416L490.118 65.1015C492.603 63.6635 494.62 60.1778 494.62 57.3174V48.2203C494.62 45.3443 492.603 44.1876 490.118 45.6256Z" fill="#F5F5F5"/>
<path d="M228.569 293.42L186.928 317.46C184.443 318.898 182.427 322.383 182.427 325.244V334.341C182.427 337.217 184.443 338.374 186.928 336.936L228.569 312.896C231.054 311.458 233.07 307.972 233.07 305.111V296.014C233.07 293.154 231.054 291.982 228.569 293.42Z" fill="#F5F5F5"/>
<path d="M377.342 407.321L418.983 383.281C421.468 381.843 423.484 378.358 423.484 375.497V366.4C423.484 363.524 421.468 362.367 418.983 363.805L377.342 387.845C374.857 389.283 372.841 392.769 372.841 395.63V404.727C372.841 407.587 374.857 408.744 377.342 407.321Z" fill="#F5F5F5"/>
<path d="M78.56 495.15L120.2 471.11C122.686 469.672 124.702 466.187 124.702 463.326V454.229C124.702 451.353 122.686 450.196 120.2 451.634L78.56 475.675C76.0747 477.113 74.0583 480.598 74.0583 483.459V492.556C74.074 495.416 76.0903 496.588 78.56 495.15Z" fill="#F5F5F5"/>
<path d="M35.1848 577.868L76.8251 553.828C79.3104 552.39 81.3268 548.904 81.3268 546.044V536.947C81.3268 534.071 79.3104 532.914 76.8251 534.352L35.1848 558.392C32.6995 559.83 30.6831 563.316 30.6831 566.176V575.274C30.6831 578.134 32.6995 579.306 35.1848 577.868Z" fill="#F5F5F5"/>
<path d="M4.50166 572.163L46.142 548.123C48.6273 546.685 50.6437 543.199 50.6437 540.339V531.242C50.6437 528.366 48.6273 527.209 46.142 528.647L4.50166 552.672C2.01637 554.11 0 557.595 0 560.471V569.568C0 572.429 2.01637 573.601 4.50166 572.163Z" fill="#F5F5F5"/>
<path d="M35.1848 411.948L76.8251 387.908C79.3104 386.47 81.3268 382.984 81.3268 380.124V371.027C81.3268 368.151 79.3104 366.994 76.8251 368.432L35.1848 392.472C32.6995 393.91 30.6831 397.396 30.6831 400.256V409.354C30.6831 412.214 32.6995 413.386 35.1848 411.948Z" fill="#F5F5F5"/>
<path d="M35.1848 333.075L76.8251 309.035C79.3104 307.597 81.3268 304.111 81.3268 301.251V292.154C81.3268 289.278 79.3104 288.121 76.8251 289.559L35.1848 313.599C32.6995 315.037 30.6831 318.523 30.6831 321.383V330.481C30.6831 333.357 32.6995 334.513 35.1848 333.075Z" fill="#F5F5F5"/>
<path d="M4.50166 406.243L46.142 382.203C48.6273 380.765 50.6437 377.279 50.6437 374.419V365.322C50.6437 362.446 48.6273 361.289 46.142 362.727L4.50166 386.752C2.01637 388.19 0 391.675 0 394.536V403.633C0 406.509 2.01637 407.681 4.50166 406.243Z" fill="#F5F5F5"/>
<path d="M4.50166 221.237L46.142 197.197C48.6273 195.759 50.6437 192.274 50.6437 189.413V180.316C50.6437 177.44 48.6273 176.283 46.142 177.721L4.50166 201.746C2.01637 203.184 0 206.669 0 209.53V218.627C0 221.503 2.01637 222.675 4.50166 221.237Z" fill="#F5F5F5"/>
<path d="M210.296 93.6744V102.772C210.296 105.648 212.313 106.804 214.798 105.366L256.438 81.3261C258.924 79.8881 260.94 76.4025 260.94 73.542V64.4449C260.94 61.5689 258.924 60.4122 256.438 61.8502L214.798 85.8903C212.313 87.3127 210.296 90.7984 210.296 93.6744Z" fill="#F5F5F5"/>
<path d="M56.0051 177.627V186.724C56.0051 189.6 58.0215 190.757 60.5068 189.319L102.147 165.279C104.632 163.841 106.649 160.355 106.649 157.495V148.398C106.649 145.522 104.632 144.365 102.147 145.803L60.5068 169.843C58.0215 171.265 56.0051 174.751 56.0051 177.627Z" fill="#F5F5F5"/>
<path d="M264.488 132.032V141.129C264.488 144.006 266.504 145.162 268.99 143.724L310.63 119.684C313.115 118.246 315.132 114.76 315.132 111.9V102.803C315.132 99.9268 313.115 98.7701 310.63 100.208L268.99 124.248C266.489 125.671 264.488 129.156 264.488 132.032Z" fill="#F5F5F5"/>
<path d="M120.216 212.265L78.5756 236.305C76.0903 237.743 74.074 241.229 74.074 244.09V253.187C74.074 256.063 76.0903 257.219 78.5756 255.781L120.216 231.741C122.701 230.303 124.718 226.818 124.718 223.957V214.86C124.702 212 122.701 210.827 120.216 212.265Z" fill="#F5F5F5"/>
<path d="M100.865 583.886L59.225 607.927C56.7398 609.365 54.7234 612.85 54.7234 615.711V624.808C54.7234 627.684 56.7398 628.841 59.225 627.403L100.865 603.362C103.351 601.924 105.367 598.439 105.367 595.578V586.481C105.367 583.621 103.351 582.448 100.865 583.886Z" fill="#F5F5F5"/>
<path d="M228.569 101.943L186.928 125.984C184.443 127.422 182.427 130.907 182.427 133.768V142.865C182.427 145.741 184.443 146.898 186.928 145.46L228.569 121.419C231.054 119.981 233.07 116.496 233.07 113.635V104.538C233.07 101.662 231.054 100.505 228.569 101.943Z" fill="#F5F5F5"/>
<path d="M228.569 245.543L186.928 269.583C184.443 271.021 182.427 274.507 182.427 277.367V286.465C182.427 289.341 184.443 290.497 186.928 289.059L228.569 265.019C231.054 263.581 233.07 260.095 233.07 257.235V248.138C233.07 245.277 231.054 244.121 228.569 245.543Z" fill="#F5F5F5"/>
<path d="M282.745 140.301L241.105 164.342C238.619 165.78 236.603 169.265 236.603 172.126V181.223C236.603 184.099 238.619 185.255 241.105 183.817L282.745 159.777C285.23 158.339 287.247 154.854 287.247 151.993V142.896C287.247 140.02 285.23 138.863 282.745 140.301Z" fill="#F5F5F5"/>
<path d="M101.944 443.351V452.448C101.944 455.324 103.96 456.481 106.446 455.043L148.086 431.002C150.571 429.564 152.588 426.079 152.588 423.218V414.121C152.588 411.245 150.571 410.088 148.086 411.526L106.446 435.567C103.96 436.989 101.944 440.49 101.944 443.351Z" fill="#F5F5F5"/>
<path d="M202.262 476.034L160.622 500.074C158.136 501.512 156.12 504.998 156.12 507.858V516.955C156.12 519.831 158.136 520.988 160.622 519.55L202.262 495.51C204.747 494.072 206.764 490.586 206.764 487.726V478.629C206.764 475.752 204.747 474.596 202.262 476.034Z" fill="#F5F5F5"/>
<path d="M264.488 349.659V358.756C264.488 361.632 266.504 362.789 268.99 361.351L310.63 337.311C313.115 335.873 315.132 332.387 315.132 329.527V320.43C315.132 317.554 313.115 316.397 310.63 317.835L268.99 341.875C266.489 343.313 264.488 346.799 264.488 349.659Z" fill="#F5F5F5"/>
<path d="M372.997 447.399V456.496C372.997 459.372 375.013 460.529 377.498 459.091L419.139 435.051C421.624 433.613 423.64 430.127 423.64 427.267V418.17C423.64 415.293 421.624 414.137 419.139 415.575L377.498 439.615C375.013 441.037 372.997 444.523 372.997 447.399Z" fill="#F5F5F5"/>
<path d="M502.06 305.378V296.281C502.06 293.405 500.044 292.248 497.558 293.686L455.918 317.726C453.433 319.164 451.416 322.65 451.416 325.51V334.607C451.416 337.484 453.433 338.64 455.918 337.202L497.558 313.162C500.044 311.74 502.06 308.254 502.06 305.378Z" fill="#F5F5F5"/>
<path d="M391.097 226.552L349.457 250.592C346.971 252.03 344.955 255.516 344.955 258.376V267.473C344.955 270.349 346.971 271.506 349.457 270.068L391.097 246.028C393.582 244.59 395.599 241.104 395.599 238.244V229.147C395.599 226.286 393.582 225.114 391.097 226.552Z" fill="#F5F5F5"/>
<path d="M287.247 417.497V408.4C287.247 405.524 285.23 404.367 282.745 405.805L241.105 429.845C238.619 431.283 236.603 434.769 236.603 437.63V446.727C236.603 449.603 238.619 450.759 241.105 449.321L282.745 425.281C285.23 423.859 287.247 420.373 287.247 417.497Z" fill="#F5F5F5"/>
<path d="M156.12 124.905V134.002C156.12 136.878 158.136 138.035 160.622 136.597L202.262 112.557C204.747 111.119 206.764 107.633 206.764 104.773V95.6598C206.764 92.7837 204.747 91.627 202.262 93.0651L160.622 117.105C158.136 118.543 156.12 122.029 156.12 124.905Z" fill="#F5F5F5"/>
<path d="M527.335 354.63L485.695 378.67C483.209 380.108 481.193 383.594 481.193 386.454V395.551C481.193 398.427 483.209 399.584 485.695 398.146L527.335 374.106C529.82 372.668 531.837 369.182 531.837 366.322V357.225C531.837 354.349 529.82 353.192 527.335 354.63Z" fill="#F5F5F5"/>
<path d="M336.921 109.07L295.281 133.111C292.795 134.549 290.779 138.034 290.779 140.895V149.992C290.779 152.868 292.795 154.025 295.281 152.586L336.921 128.546C339.406 127.108 341.423 123.623 341.423 120.762V111.665C341.423 108.789 339.406 107.632 336.921 109.07Z" fill="#F5F5F5"/>
<path d="M132.752 368.182L174.392 344.142C176.878 342.704 178.894 339.218 178.894 336.358V327.261C178.894 324.385 176.878 323.228 174.392 324.666L132.752 348.706C130.267 350.144 128.25 353.63 128.25 356.49V365.587C128.25 368.448 130.267 369.62 132.752 368.182Z" fill="#F5F5F5"/>
<path d="M341.423 473.127V464.03C341.423 461.154 339.406 459.997 336.921 461.435L295.281 485.475C292.795 486.913 290.779 490.399 290.779 493.259V502.357C290.779 505.233 292.795 506.389 295.281 504.951L336.921 480.911C339.406 479.489 341.423 476.003 341.423 473.127Z" fill="#F5F5F5"/>
<path d="M483.803 344.986L525.444 320.946C527.929 319.508 529.945 316.023 529.945 313.162V304.065C529.945 301.189 527.929 300.032 525.444 301.47L483.803 325.51C481.318 326.948 479.302 330.434 479.302 333.295V342.392C479.302 345.268 481.318 346.424 483.803 344.986Z" fill="#F5F5F5"/>
<path d="M395.599 367.713V358.616C395.599 355.74 393.582 354.583 391.097 356.021L349.457 380.061C346.971 381.499 344.955 384.985 344.955 387.845V396.942C344.955 399.819 346.971 400.975 349.457 399.537L391.097 375.497C393.582 374.059 395.599 370.573 395.599 367.713Z" fill="#F5F5F5"/>
<path d="M101.944 251.873V260.97C101.944 263.846 103.96 265.003 106.446 263.565L148.086 239.525C150.571 238.087 152.588 234.601 152.588 231.741V222.644C152.588 219.768 150.571 218.611 148.086 220.049L106.446 244.073C103.96 245.511 101.944 248.997 101.944 251.873Z" fill="#F5F5F5"/>
<path d="M126.75 129.845L126.765 613.664L298.25 514.831V30.9805L126.75 129.845Z" fill="#6A0DAD"/>
<path d="M117.528 608.333L126.765 613.664L126.75 129.845L117.528 124.515V608.333Z" fill="#1F0735"/>
<path d="M289.028 25.6504L117.528 124.515L126.75 129.845L298.25 30.9805L289.028 25.6504Z" fill="#1F0735"/>
<path opacity="0.4" d="M278.915 362.274V501.466L152.681 574.461V435.27L272.897 365.744L278.915 362.274Z" fill="black"/>
<path d="M272.897 365.745V497.699L152.681 567.209V435.27L272.897 365.745Z" fill="#6A0DAD"/>
<path opacity="0.25" d="M272.897 365.745V497.699L152.681 567.209V435.27L272.897 365.745Z" fill="black"/>
<path opacity="0.2" d="M272.897 497.699L278.915 501.466L152.681 574.462V567.209L272.897 497.699Z" fill="black"/>
<path opacity="0.2" d="M278.915 126.281V337.108L152.681 410.104V199.292L272.897 129.766L278.915 126.281Z" fill="black"/>
<path d="M272.897 129.767V333.342L152.681 402.852V199.292L272.897 129.767Z" fill="#6A0DAD"/>
<path opacity="0.6" d="M272.897 129.767V333.342L152.681 402.852V199.292L272.897 129.767Z" fill="white"/>
<path opacity="0.5" d="M175.033 186.366L152.681 227.506V251.046L193.665 175.58L175.033 186.366ZM217.424 161.857L152.681 281.041V340.047L264.144 134.831L217.424 161.857ZM225.786 360.57L272.882 273.851V198.089L165.795 395.255L225.786 360.57ZM152.681 383.001V398.506L272.882 177.425V161.904L152.681 383.001Z" fill="white"/>
<path opacity="0.2" d="M272.897 333.342L278.915 337.109L152.681 410.104V402.852L272.897 333.342Z" fill="black"/>
<path opacity="0.2" d="M275.461 110.338L149.227 183.209V137.504L275.461 64.6182V110.338Z" fill="black"/>
<path d="M278.915 112.573L152.681 185.444V139.74L278.915 66.8535V112.573Z" fill="white" stroke="#481670" stroke-width="1.56308" stroke-miterlimit="10"/>
<path d="M172.423 165.671L166.186 151.463V168.828L162.45 171.204V142.944L166.811 140.193L172.345 153.948V137.457L175.877 134.957V163.217L172.423 165.671Z" fill="#6A0DAD"/>
<path d="M181.285 160.325V131.846L192.149 125.578L191.805 130.22L185.474 133.878V140.677L189.976 138.083L189.945 142.881L185.474 145.46V153.479L192.368 149.493L192.024 154.136L181.285 160.325Z" fill="#6A0DAD"/>
<path d="M199.198 149.978L194.837 124.234L199.401 121.373L201.652 137.129L204.075 118.904L207.498 116.7L209.749 132.643L212.453 114.058L216.298 111.604L211.718 142.74L207.592 145.132L205.341 129.032L203.028 147.758L199.198 149.978Z" fill="#6A0DAD"/>
<path d="M227.099 133.846V130.079C227.49 130.033 227.865 129.907 228.209 129.704C228.897 129.313 229.319 128.72 229.507 127.922C229.694 127.141 229.772 126.062 229.772 124.734V104.289L233.93 101.428V122.78C233.93 125.234 233.617 127.313 232.977 129.017C232.336 130.72 231.273 132.002 229.772 132.862C229.022 133.299 228.131 133.628 227.099 133.846Z" fill="#6A0DAD"/>
<path d="M239.901 122.858C238.916 120.654 238.432 117.34 238.432 112.932C238.432 108.243 238.947 104.335 239.995 101.193C241.042 98.0516 242.714 95.8164 245.043 94.4878C249.467 91.94 251.687 95.4725 251.687 105.132C251.687 109.462 251.186 113.354 250.186 116.793C249.186 120.232 247.451 122.654 244.981 124.092C242.574 125.468 240.886 125.062 239.901 122.858ZM247.044 115.777C247.372 113.823 247.529 111.072 247.529 107.493C247.529 104.632 247.372 102.35 247.06 100.646C246.747 98.9425 246.075 98.3798 245.043 98.9738C244.012 99.5678 243.355 100.881 243.043 102.928C242.746 104.976 242.589 107.43 242.589 110.29C242.589 113.886 242.746 116.48 243.058 118.059C243.371 119.638 244.027 120.138 245.043 119.559C246.059 118.981 246.716 117.715 247.044 115.777Z" fill="#6A0DAD"/>
<path d="M256.297 88.517L261.08 85.7503C263.659 84.2654 265.551 83.8434 266.723 84.4999C267.895 85.1563 268.489 86.5944 268.489 88.7983C268.489 90.1894 268.286 91.5337 267.88 92.831C267.473 94.1284 266.911 95.2382 266.192 96.1291C267.098 96.2385 267.833 96.6606 268.364 97.4109C268.896 98.1611 269.161 99.5523 269.161 101.6C269.161 106.914 266.02 111.4 259.736 115.027L256.313 116.996V88.517H256.297ZM261.346 97.192C262.456 96.5512 263.269 95.8478 263.816 95.0506C264.363 94.2534 264.629 93.1124 264.629 91.6118C264.629 90.2989 264.316 89.5642 263.706 89.4235C263.081 89.2829 262.253 89.533 261.19 90.1426L260.361 90.6271V97.7704L261.346 97.192ZM261.268 109.712C262.628 108.915 263.628 107.899 264.238 106.649C264.847 105.398 265.144 104.242 265.144 103.179C265.144 101.537 264.816 100.631 264.16 100.459C263.503 100.287 262.581 100.553 261.409 101.225L260.502 101.756V110.15L261.268 109.712Z" fill="#6A0DAD"/>
<path d="M320.43 11.5821V510.25L320.415 510.266L305.347 518.956L298.266 514.83L298.282 30.9642L126.765 129.938V622.026L111.697 630.732L104.57 626.621L104.585 127.953C104.585 121.294 109.259 113.198 115.011 109.868L302.846 1.43771C305.722 -0.234779 308.348 -0.391086 310.223 0.703067C312.13 1.78159 315.444 3.73543 317.32 4.79833C317.554 4.92337 317.757 5.07968 317.961 5.23599C319.821 6.75217 320.415 9.23746 320.43 11.5821Z" fill="#1F0735"/>
<path d="M131.923 126.953L126.765 129.939V622.026L111.697 630.732L104.57 626.622L104.585 127.954C104.585 124.609 105.758 120.904 107.649 117.622L114.776 121.732L131.923 126.953Z" fill="#1F0735"/>
<path d="M320.399 11.582V510.266L305.331 518.956V26.8689L298.266 30.9642L131.923 126.953L126.765 129.938V622.026L111.697 630.716V132.08C111.697 128.735 112.885 125.014 114.792 121.732C116.699 118.465 119.294 115.652 122.139 113.995L309.973 5.54854C312.834 3.89168 315.429 3.73537 317.32 4.79826C317.554 4.92331 317.758 5.07962 317.961 5.23593C319.368 6.36134 320.071 8.12762 320.305 9.90952C320.368 10.441 320.399 10.988 320.399 11.582Z" fill="#481670"/>
<path d="M298.25 514.83L298.266 30.9644L305.331 26.8691L305.347 518.972L298.25 514.83Z" fill="#1F0735"/>
<path d="M282.495 338.781L285.433 340.485V380.672L282.51 378.984L282.495 338.781Z" fill="#E0E0E0"/>
<path d="M285.433 340.485L301.22 331.357V371.559L285.433 380.672V340.485Z" fill="#FAFAFA"/>
<path d="M301.22 331.357L298.297 329.668L282.495 338.781L285.433 340.485L301.22 331.357Z" fill="#EBEBEB"/>
<path d="M291.435 344.971L299.673 349.723L302.971 344.017L294.734 339.266C294.312 339.016 293.733 339.062 293.092 339.422C291.811 340.172 290.763 341.97 290.763 343.455C290.748 344.205 291.013 344.736 291.435 344.971Z" fill="#E0E0E0"/>
<path opacity="0.1" d="M299.563 342.048V348.644L298.688 349.144L291.419 344.955C291.341 344.924 291.294 344.877 291.248 344.814L297.797 341.016L299.563 342.048Z" fill="black"/>
<path d="M290.966 363.775C290.966 362.352 291.967 360.633 293.186 359.929C294.405 359.226 295.405 359.789 295.405 361.211C295.405 362.258 294.858 363.493 294.061 364.337V368.479C294.061 368.964 293.717 369.542 293.311 369.777L293.045 369.933C292.623 370.168 292.295 369.98 292.295 369.495V365.353C291.513 365.416 290.966 364.837 290.966 363.775Z" fill="#481670"/>
<path d="M316.305 359.255C320.981 354.579 320.981 346.998 316.305 342.322C311.63 337.647 304.049 337.647 299.373 342.322C294.697 346.998 294.697 354.579 299.373 359.255C304.049 363.931 311.63 363.931 316.305 359.255Z" fill="#EBEBEB"/>
<path opacity="0.1" d="M319.399 353.958C316.898 356.162 313.569 357.46 310.255 357.241C306.035 356.944 302.017 354.099 300.642 350.098C299.391 346.471 300.548 342.126 303.44 339.672C299.016 341.438 295.875 345.752 295.875 350.801C295.875 357.413 301.236 362.774 307.848 362.774C313.365 362.774 318.008 359.038 319.399 353.958Z" fill="black"/>
<path d="M86.9382 636.875L104.554 626.7C104.554 626.7 115.042 583.121 110.869 543.919C104.992 488.79 68.7127 468.048 54.9108 472.799C41.1088 477.551 37.123 493.588 59.9439 526.428C73.4019 545.795 89.9549 586.138 86.9382 636.875Z" fill="#6A0DAD"/>
<g opacity="0.65">
<path d="M86.9382 636.875L104.554 626.7C104.554 626.7 115.042 583.121 110.869 543.919C104.992 488.79 68.7127 468.048 54.9108 472.799C41.1088 477.551 37.123 493.588 59.9439 526.428C73.4019 545.795 89.9549 586.138 86.9382 636.875Z" fill="white"/>
</g>
<path d="M94.2379 615.461C94.1753 615.461 94.1284 615.445 94.0659 615.445C93.4094 615.32 92.9718 614.679 93.0968 614.023C102.757 563.176 85.0001 506.046 62.992 482.271C62.5387 481.771 62.5699 481.005 63.0545 480.552C63.5547 480.098 64.3206 480.13 64.7739 480.614C87.1727 504.826 105.273 562.895 95.4727 614.492C95.3789 615.07 94.8318 615.492 94.2379 615.461Z" fill="white"/>
<path d="M42.5781 662.478C39.9521 663.822 32.9495 657.82 30.9957 656.367C27.6507 653.866 25.0247 650.442 23.3522 646.644C21.3984 642.205 21.0858 637.547 22.008 632.795C22.4925 630.326 23.3053 627.95 24.1181 625.574C24.9153 623.245 25.7125 620.916 26.5096 618.587C27.2912 616.289 28.104 613.913 27.9164 611.491C27.5413 606.614 23.3991 602.987 19.6477 599.861C15.49 596.407 11.1915 591.89 11.5041 586.059C11.7542 581.558 14.302 577.494 17.2719 574.086C20.2417 570.694 23.7117 567.74 26.4315 564.129C28.3853 561.535 29.964 558.455 29.8234 555.204C29.7452 553.188 29.0106 551.25 28.1352 549.436C26.2596 545.529 23.7274 541.918 22.5082 537.76C21.289 533.603 21.7579 528.538 25.0872 525.771C27.8226 523.505 31.7303 523.364 35.2629 523.771C38.5297 524.146 41.6559 525.787 44.4381 527.538C53.4414 533.165 58.1932 544.403 67.8217 548.874C71.5419 550.593 75.684 551.14 79.5761 552.391C83.4838 553.641 87.4071 555.861 89.0639 559.612C92.3151 567.005 85.1562 575.555 87.3133 583.34C89.2202 590.233 95.6758 593.156 99.0676 599.439C100.553 602.19 100.771 605.301 100.349 608.396C99.646 613.648 98.6768 617.462 95.8477 623.198C93.5187 627.934 86.9538 636.875 86.9538 636.875C86.9538 636.875 42.9845 662.259 42.5781 662.478Z" fill="#6A0DAD"/>
<g opacity="0.3">
<path d="M42.5781 662.478C39.9521 663.822 32.9495 657.82 30.9957 656.367C27.6507 653.866 25.0247 650.442 23.3522 646.644C21.3984 642.205 21.0858 637.547 22.008 632.795C22.4925 630.326 23.3053 627.95 24.1181 625.574C24.9153 623.245 25.7125 620.916 26.5096 618.587C27.2912 616.289 28.104 613.913 27.9164 611.491C27.5413 606.614 23.3991 602.987 19.6477 599.861C15.49 596.407 11.1915 591.89 11.5041 586.059C11.7542 581.558 14.302 577.494 17.2719 574.086C20.2417 570.694 23.7117 567.74 26.4315 564.129C28.3853 561.535 29.964 558.455 29.8234 555.204C29.7452 553.188 29.0106 551.25 28.1352 549.436C26.2596 545.529 23.7274 541.918 22.5082 537.76C21.289 533.603 21.7579 528.538 25.0872 525.771C27.8226 523.505 31.7303 523.364 35.2629 523.771C38.5297 524.146 41.6559 525.787 44.4381 527.538C53.4414 533.165 58.1932 544.403 67.8217 548.874C71.5419 550.593 75.684 551.14 79.5761 552.391C83.4838 553.641 87.4071 555.861 89.0639 559.612C92.3151 567.005 85.1562 575.555 87.3133 583.34C89.2202 590.233 95.6758 593.156 99.0676 599.439C100.553 602.19 100.771 605.301 100.349 608.396C99.646 613.648 98.6768 617.462 95.8477 623.198C93.5187 627.934 86.9538 636.875 86.9538 636.875C86.9538 636.875 42.9845 662.259 42.5781 662.478Z" fill="white"/>
</g>
<path d="M68.0873 649.176C68.0716 649.176 68.056 649.176 68.056 649.176C67.3995 649.114 66.9306 648.551 66.9931 647.926C71.2134 602.19 52.1752 550.515 37.2165 535.009C36.7789 534.556 36.7789 533.821 37.2478 533.368C37.7011 532.93 38.4357 532.946 38.889 533.399C54.1446 549.202 73.5893 601.753 69.3065 648.129C69.244 648.754 68.7125 649.208 68.0873 649.176Z" fill="white"/>
<path d="M63.5544 592.796C63.445 592.796 63.3199 592.765 63.2105 592.734C48.7208 587.435 30.4015 585.715 30.2296 585.7C29.5887 585.637 29.1198 585.075 29.1823 584.449C29.2449 583.808 29.7451 583.34 30.4328 583.402C30.6204 583.418 49.221 585.168 64.0077 590.577C64.6017 590.795 64.9143 591.452 64.6954 592.062C64.5079 592.515 64.0389 592.812 63.5544 592.796Z" fill="white"/>
<path d="M522.411 640.924C582.503 640.924 631.217 612.798 631.217 578.104C631.217 543.409 582.503 515.284 522.411 515.284C462.319 515.284 413.605 543.409 413.605 578.104C413.605 612.798 462.319 640.924 522.411 640.924Z" fill="#E0E0E0"/>
<path d="M603.691 338.046C603.269 339.172 602.722 340.313 602.753 341.532C602.784 342.954 603.613 344.236 604.551 345.299C607.692 348.816 612.303 350.614 616.868 351.801C618.165 352.145 619.65 352.411 620.744 351.614C621.401 351.129 621.76 350.363 622.088 349.613C623.698 345.924 623.964 344.799 624.73 340.188C624.871 339.328 624.98 337.562 624.792 336.718C624.605 335.78 623.98 333.56 623.667 332.654C622.37 328.918 621.088 326.761 619.947 322.634C618.947 319.039 618.978 311.537 618.978 311.537H600.283C600.283 311.537 604.754 335.233 603.691 338.046Z" fill="#B16668"/>
<path d="M604.723 333.811C604.488 335.233 604.223 336.671 603.691 338.062C603.269 339.188 602.722 340.329 602.753 341.548C602.753 341.813 602.816 342.064 602.878 342.314L619.634 352.083C620.025 352.005 620.416 351.895 620.744 351.645C621.401 351.161 621.76 350.395 622.088 349.645C622.964 347.644 623.433 346.393 623.808 344.94L604.723 333.811Z" fill="#9A4A4D"/>
<path d="M603.441 338.688C603.082 339.61 602.738 340.548 602.753 341.517C602.785 342.939 603.613 344.221 604.551 345.284C607.693 348.801 612.304 350.598 616.868 351.786C618.165 352.13 619.65 352.396 620.744 351.599C621.401 351.114 621.76 350.348 622.089 349.598C622.104 349.567 622.104 349.551 622.12 349.52L603.441 338.688Z" fill="#9A4A4D"/>
<path d="M606.536 340.032C607.005 340.344 607.489 340.626 607.958 340.907C608.927 341.485 610.037 342.095 611.194 342.705C612.96 343.642 614.726 344.533 616.524 345.409C616.555 345.424 616.586 345.44 616.602 345.456C618.54 346.409 620.338 347.253 621.651 347.863C622.073 347.785 622.401 347.535 622.604 346.972C622.761 346.534 622.901 346.097 623.058 345.659L603.926 335.921V335.937C603.941 336.218 603.972 336.515 604.004 336.812C604.035 337.156 604.082 337.5 604.129 337.875C604.191 338.359 605.129 339.125 606.536 340.032Z" fill="#9A4A4D"/>
<path d="M663.51 380.937L663.275 450.776C663.26 454.168 660.868 456.106 657.93 457.825L650.568 462.045C648.536 463.218 647.41 463.608 644.831 463.155C643.706 462.968 641.814 462.045 640.908 461.53C640.845 461.514 640.798 461.483 640.752 461.451L640.361 461.217L565.443 417.638C559.972 414.45 556.611 408.588 556.627 402.258L556.83 338.672C556.83 337.218 557.862 335.452 559.128 334.733L571.695 327.543C572.945 326.808 574.993 326.824 576.243 327.558L661.228 376.998C661.869 377.358 662.431 377.999 662.838 378.702C663.26 379.421 663.51 380.218 663.51 380.937Z" fill="#1F0735"/>
<path d="M663.51 380.937L663.276 450.776C663.26 454.167 660.869 456.106 657.93 457.825L650.568 462.045C648.536 463.218 647.411 463.608 644.832 463.155C643.706 462.968 641.815 462.045 640.908 461.53V461.498C643.831 462.874 646.145 461.358 646.145 457.903L646.363 392.098C646.363 391.004 645.988 389.784 645.363 388.69L662.823 378.687C663.26 379.421 663.51 380.218 663.51 380.937Z" fill="#1F0735"/>
<path d="M646.379 392.113C646.379 389.925 644.847 387.236 642.955 386.127L562.629 339.391C559.456 337.546 556.846 339.031 556.83 342.704L556.627 402.242C556.611 408.572 559.972 414.45 565.443 417.623L640.361 461.217C643.534 463.061 646.144 461.576 646.16 457.903L646.379 392.113Z" fill="#481670"/>
<path d="M560.175 341.954C560.316 341.985 560.581 342.063 560.957 342.282L641.283 389.002C642.268 389.565 643.065 390.972 643.065 392.097L642.846 457.903C642.846 458.325 642.784 458.591 642.815 458.684C642.674 458.653 642.408 458.575 642.049 458.356L567.131 414.762C562.691 412.183 559.956 407.4 559.972 402.257L560.175 342.72C560.159 342.313 560.222 342.032 560.175 341.954ZM560.425 338.625C558.331 338.421 556.846 339.938 556.83 342.72L556.627 402.257C556.611 408.588 559.972 414.449 565.443 417.638L640.361 461.232C641.142 461.685 641.877 461.936 642.565 461.998C644.659 462.201 646.144 460.685 646.16 457.903L646.379 392.097C646.394 389.909 644.847 387.221 642.955 386.111L562.629 339.39C561.847 338.953 561.113 338.703 560.425 338.625Z" fill="#1F0735"/>
<path d="M567.631 329.872L652.772 379.89C655.226 381.328 656.711 383.954 656.711 386.799L656.476 458.669L655.179 459.419L655.413 386.799C655.429 384.439 654.163 382.219 652.115 381.015L566.333 330.622L567.631 329.872Z" fill="#6A0DAD"/>
<path opacity="0.2" d="M655.647 382.813C656.335 384.001 656.71 385.376 656.695 386.783L656.46 458.653L655.163 459.404L655.397 386.783C655.397 385.595 655.085 384.454 654.522 383.454L655.647 382.813Z" fill="black"/>
<path opacity="0.2" d="M654.522 383.469C653.96 382.469 653.131 381.609 652.099 381.015L566.318 330.622L567.615 329.872L652.756 379.89C653.975 380.609 654.96 381.625 655.648 382.813" fill="black"/>
<path d="M597.908 338.907L597.876 349.723L593.64 352.146L593.687 337.781C593.687 337.047 594.219 336.75 594.844 337.109L597.908 338.907Z" fill="#6A0DAD"/>
<path opacity="0.4" d="M597.908 338.907L597.876 349.723L593.64 352.146L593.687 337.781C593.687 337.047 594.219 336.75 594.844 337.109L597.908 338.907Z" fill="black"/>
<path d="M627.59 349.676L627.528 367.183L623.48 369.512L620.76 367.933L620.807 353.568C620.807 352.834 620.291 351.927 619.65 351.552L599.096 339.594L594.828 337.109C594.187 336.734 593.672 337.031 593.672 337.781L593.625 352.146L590.905 350.567L590.968 333.061C590.968 332.983 590.968 332.904 590.983 332.826C591.077 332.139 591.561 331.373 592.14 331.044L593.859 330.06C594.5 329.7 595.532 329.7 596.173 330.06L626.434 347.66C627.075 348.051 627.59 348.942 627.59 349.676Z" fill="#6A0DAD"/>
<path opacity="0.2" d="M623.542 352.005L623.48 369.511L620.76 367.932L620.807 353.568C620.807 352.833 620.291 351.926 619.65 351.551L599.096 339.594L594.828 337.109C594.187 336.733 593.672 337.03 593.672 337.781L593.625 352.145L590.905 350.567L590.968 333.06C590.968 332.982 590.968 332.904 590.983 332.826C591.093 332.263 591.562 332.06 592.124 332.388L622.385 349.988C623.026 350.363 623.542 351.27 623.542 352.005Z" fill="black"/>
<path d="M604.066 342.407C603.644 342.407 603.238 342.501 602.894 342.736C602.409 341.829 601.44 341.219 600.424 341.188C599.971 341.172 599.455 341.329 599.314 341.751C599.267 341.891 599.267 342.048 599.283 342.188C599.346 343.626 599.486 345.064 599.674 346.503C599.814 347.534 600.018 348.644 600.768 349.363C601.393 349.957 602.331 350.176 603.144 349.926C603.41 350.613 603.535 351.145 604.629 351.77C605.723 352.395 606.598 351.989 606.661 351.583C607.348 353.021 608.943 354.552 611.1 354.24C611.1 354.24 611.553 355.803 614.398 355.615C617.243 355.428 620.275 352.192 620.275 352.192C620.056 351.536 617.899 350.504 616.586 349.754C616.227 349.551 615.93 349.363 615.523 349.144C615.148 348.925 614.976 348.566 614.757 348.191C614.382 347.55 614.007 346.878 613.429 346.409C612.882 345.971 612.241 345.799 611.553 345.924C611.006 346.034 610.475 346.331 610.522 346.987C610.49 346.393 610.053 345.455 609.677 345.018C609.334 344.611 608.568 344.22 608.021 344.142C607.864 344.111 607.114 344.252 607.083 345.049C606.739 344.189 606.239 343.361 605.473 342.845C605.082 342.579 604.566 342.423 604.066 342.407Z" fill="#B16668"/>
<path d="M616.743 352.036C616.696 352.24 616.524 352.099 616.54 351.927C616.587 351.364 616.493 350.786 616.211 350.301C616.071 350.098 615.946 349.864 615.774 349.661C615.586 349.457 615.508 349.364 615.305 349.192C615.164 349.067 615.039 348.801 615.008 348.613C615.148 348.832 615.352 349.035 615.586 349.176C615.946 349.395 616.243 349.582 616.462 349.707C616.524 349.817 616.587 349.926 616.618 350.036C616.852 350.661 616.915 351.349 616.743 352.036Z" fill="#9A4A4D"/>
<path d="M610.913 350.645C610.866 350.129 610.819 349.613 610.803 349.082C610.788 348.566 610.788 348.05 610.725 347.534C610.694 347.347 610.506 347.253 610.459 347.503C610.381 348.019 610.412 348.55 610.428 349.066C610.444 349.582 610.475 350.113 610.506 350.629C610.538 351.161 610.553 351.676 610.616 352.208C610.678 352.739 610.788 353.239 610.975 353.74C611.022 353.88 611.194 353.818 611.178 353.693C610.991 352.333 611.006 351.661 610.913 350.645ZM606.88 346.612C606.896 346.096 606.958 345.58 606.911 345.065C606.896 344.877 606.708 344.768 606.645 345.002C606.52 345.518 606.52 346.034 606.489 346.565C606.474 347.081 606.442 347.612 606.442 348.128C606.427 348.66 606.411 349.175 606.427 349.707C606.442 350.238 606.52 350.754 606.661 351.27C606.692 351.411 606.88 351.364 606.864 351.239C606.786 349.863 606.864 349.207 606.849 348.175C606.849 347.644 606.864 347.128 606.88 346.612ZM603.191 345.018C603.207 344.502 603.269 343.986 603.222 343.47C603.207 343.283 603.019 343.173 602.957 343.408C602.832 343.924 602.832 344.439 602.8 344.971C602.785 345.487 602.753 346.018 602.753 346.534C602.753 347.065 602.722 347.581 602.738 348.113C602.753 348.644 602.832 349.16 602.972 349.676C603.004 349.816 603.191 349.769 603.175 349.644C603.097 348.269 603.175 347.612 603.16 346.581C603.175 346.065 603.175 345.549 603.191 345.018Z" fill="#9A4A4D"/>
<path d="M608.099 311.537H598.658C598.658 311.537 600.33 320.634 600.33 321.447C600.346 324.448 599.565 326.792 598.502 329.528C597.361 332.466 597.111 335.655 597.361 338.781C597.486 340.391 597.861 341.985 598.408 343.502C599.002 345.127 599.627 346.768 600.627 348.175C600.674 348.253 600.737 348.316 600.815 348.378C601.112 348.613 601.55 348.597 601.878 348.425C603.519 347.581 603.332 345.377 603.207 343.845C603.066 342.142 602.8 340.375 603.441 338.75C603.644 338.234 604.019 337.593 604.316 337.124C604.723 336.483 605.192 336.014 605.801 335.592C607.474 334.467 609.224 333.404 610.709 332.044C613.288 329.684 614.383 326.417 614.664 322.994C614.883 320.274 615.164 317.726 614.789 314.991C614.695 314.319 614.57 313.631 614.179 313.084C613.538 312.193 612.366 311.912 611.288 311.724C610.022 311.568 608.099 311.537 608.099 311.537Z" fill="#B16668"/>
<path d="M609.396 332.623C609.24 333.42 609.24 334.327 609.349 335.124C609.443 336.015 609.662 336.859 609.99 337.703C610.053 337.875 610.147 338.063 610.24 338.235L608.724 337.359C608.427 336.531 608.302 335.64 608.318 334.765C608.349 333.686 608.615 332.686 609.005 331.685C609.349 330.81 609.756 330.028 610.444 329.419C610.569 329.309 610.6 329.544 610.569 329.606C610.1 330.591 609.615 331.56 609.396 332.623Z" fill="#9A4A4D"/>
<path d="M597.548 340.673C598.033 343.111 598.924 345.456 600.096 347.644C600.299 347.972 600.409 348.457 600.924 348.691C603.597 349.144 603.644 345.424 603.347 343.658C603.175 342.032 602.909 340.36 603.441 338.781C602.753 340.313 602.909 342.064 603.019 343.689C603.175 345.284 603.316 348.472 601.065 348.332C599.439 346.284 598.392 343.22 597.548 340.673Z" fill="#9A4A4D"/>
<path d="M579.745 179.707C594.75 181.004 602.206 190.539 607.286 205.576C612.491 220.988 618.009 244.012 619.556 251.343C621.104 258.674 621.948 266.145 621.385 279.322C620.776 293.358 619.963 315.288 619.963 315.288C619.963 315.288 618.478 318.102 610.412 318.821C602.472 319.524 597.908 317.148 597.908 317.148L592.046 267.958L577.353 226.974L579.745 179.707Z" fill="#1F0735"/>
<path d="M591.53 568.506C591.53 571.163 592.03 572.179 588.779 574.586C585.528 576.978 578.479 578.087 573.117 576.634C568.428 575.368 566.724 574.023 564.458 571.413C561.894 568.443 560.378 565.036 559.425 563.832C558.487 562.629 554.126 560.346 549.921 558.471C545.498 556.501 537.01 552.594 533.962 545.403C530.93 538.213 533.024 533.071 533.024 533.071L591.53 568.506Z" fill="#1F0735"/>
<path d="M563.223 532.04C571.804 537.635 579.01 551.703 590.733 547.436C591.327 554.313 593.156 561.738 591.515 568.506C586.513 574.68 575.571 575.868 569.272 571.413C566.099 568.709 564.317 565.536 561.253 562.691C558.831 560.425 556.001 559.018 552.828 557.549C549.921 556.205 544.997 553.516 542.622 551.906C523.661 537.932 533.071 512.345 563.223 532.04Z" fill="#481670"/>
<path d="M532.993 600.736C532.993 603.613 532.806 605.77 531.04 606.989C529.289 608.208 516.128 610.365 512.642 610.771C509.141 611.178 508.641 608.88 506.187 609.693C503.733 610.506 498.027 614.695 489.462 616.586C480.896 618.477 473.862 620.509 461.967 616.586C450.072 612.663 448.9 608.067 449.056 604.035C449.213 600.017 532.993 600.736 532.993 600.736Z" fill="#1F0735"/>
<path d="M531.274 573.883C533.196 582.12 535.228 594.469 532.993 600.736C530.602 603.112 522.568 604.504 515.549 605.457C508.969 606.348 502.982 608.067 497.011 611.225C483.412 616.899 459.497 618.962 449.963 606.16C440.444 589.076 489.962 593.265 496.026 573.492C498.246 566.302 522.286 575.837 531.274 573.883Z" fill="#481670"/>
<path d="M595.329 476.675C588.717 406.399 592.124 350.254 585.81 293.686C585.81 293.686 487.133 291.232 484.694 324.744C484.694 324.744 483.194 444.226 483.975 458.997C484.319 473.956 493.291 567.24 493.291 577.791C517.8 589.951 533.009 580.761 533.009 580.761C532.853 567.146 543.497 514.252 537.729 481.068L541.653 424.734C541.653 424.734 558.471 525.631 561.316 552.844C568.553 563.582 589.092 561.066 592.531 554.595C592.5 554.595 597.642 497.355 595.329 476.675Z" fill="#1F0735"/>
<path d="M541.637 424.735L545.982 370.48C545.982 370.48 564.567 367.057 575.321 353.615C572.383 364.369 560.706 373.716 553.313 376.342L545.92 422.406L548.983 464.984L541.637 424.735Z" fill="#1F0735"/>
<path d="M554.752 414.09C555.908 432.69 557.112 443.569 558.737 452.651C561.27 466.828 568.428 541.387 570.117 559.049C569.554 558.878 569.007 558.674 568.46 558.455C566.662 539.542 559.66 466.859 557.174 452.932C555.533 443.757 554.33 432.847 553.157 414.199C552.282 400.163 551.453 386.892 550.531 379.999L552.11 379.796C553.048 386.736 553.876 400.022 554.752 414.09Z" fill="#1F0735"/>
<path d="M505.733 582.496C503.607 550.672 498.528 478.426 498.934 446.243C499.418 407.807 500.716 348.003 503.826 323.166L505.405 323.369C502.295 348.128 501.013 407.869 500.528 446.274C500.122 478.583 505.249 551.438 507.359 582.887C506.827 582.762 506.28 582.637 505.733 582.496Z" fill="#1F0735"/>
<path d="M502.31 362.68C493.62 353.927 494.823 335.592 495.605 324.166C495.667 323.213 495.73 322.306 495.777 321.446L494.198 321.353C494.151 322.197 494.089 323.103 494.026 324.057C493.198 336.233 491.869 356.084 502.326 364.884V362.68H502.31Z" fill="#1F0735"/>
<path d="M450.463 247.169L376.014 290.2L436.989 325.401L511.439 282.369L450.463 247.169Z" fill="#1F0735"/>
<path d="M450.463 191.601V247.168L511.423 282.369V226.786L450.463 191.601Z" fill="#6A0DAD"/>
<path d="M376.029 234.617V290.2L450.463 247.153V191.586L376.029 234.617ZM417.576 225.208L408.901 230.21C407.103 231.241 405.65 230.507 405.65 228.568C405.65 226.614 407.119 224.176 408.901 223.144L417.576 218.143C419.389 217.111 420.843 217.846 420.843 219.784C420.843 221.738 419.389 224.16 417.576 225.208Z" fill="#6A0DAD"/>
<g opacity="0.2">
<path d="M376.029 234.617V290.2L450.463 247.153V191.586L376.029 234.617ZM417.576 225.208L408.901 230.21C407.103 231.241 405.65 230.507 405.65 228.568C405.65 226.614 407.119 224.176 408.901 223.144L417.576 218.143C419.389 217.111 420.843 217.846 420.843 219.784C420.843 221.738 419.389 224.16 417.576 225.208Z" fill="black"/>
</g>
<path d="M497.965 273.96L495.808 274.991L455.856 251.92L458.013 250.889L497.965 273.96Z" fill="#6A0DAD"/>
<path opacity="0.6" d="M497.965 273.96L495.808 274.991L455.856 251.92L458.013 250.889L497.965 273.96Z" fill="white"/>
<path d="M458.012 250.89L496.026 272.835L501.544 215.97L463.546 194.041L458.012 250.89Z" fill="#FAFAFA"/>
<path d="M451.792 253.827L499.106 281.134L505.624 214.078L458.31 186.771L451.792 253.827ZM461.592 192.899L501.544 215.97L495.808 274.991L455.856 251.92L461.592 192.899Z" fill="#6A0DAD"/>
<path d="M451.792 253.827L499.106 281.134L505.624 214.078L458.31 186.771L451.792 253.827ZM461.592 192.899L501.544 215.97L495.808 274.991L455.856 251.92L461.592 192.899Z" fill="#6A0DAD"/>
<path opacity="0.3" d="M451.792 253.827L499.106 281.134L505.624 214.078L458.31 186.771L451.792 253.827ZM461.592 192.899L501.544 215.97L495.808 274.991L455.856 251.92L461.592 192.899Z" fill="white"/>
<path d="M455.856 251.921L458.013 250.89L463.546 194.04L461.592 192.899L455.856 251.921Z" fill="#6A0DAD"/>
<path d="M458.309 186.772L460.545 185.521L507.859 212.828L505.624 214.079L458.309 186.772Z" fill="#6A0DAD"/>
<path opacity="0.6" d="M458.309 186.772L460.545 185.521L507.859 212.828L505.624 214.079L458.309 186.772Z" fill="white"/>
<path d="M507.859 212.829L505.624 214.079L499.09 281.135L501.325 279.885L507.859 212.829Z" fill="#6A0DAD"/>
<path d="M486.414 212.781C486.507 212.828 486.601 212.875 486.695 212.922C487.492 213.219 488.305 213.438 489.055 213.844C489.93 214.313 490.712 214.954 491.447 215.626C492.259 216.361 493.072 217.142 493.588 218.111C494.026 218.924 494.245 219.846 494.338 220.784C494.62 223.41 493.823 226.27 491.791 227.943C491.712 228.005 491.634 228.084 491.619 228.177C491.603 228.287 491.665 228.381 491.728 228.474C492.588 229.772 492.213 231.475 491.759 232.96C491.587 233.507 491.4 234.055 491.072 234.508C490.54 235.243 489.462 235.68 488.602 235.899C486.492 236.43 484.225 236.29 482.193 235.493C481.959 235.399 481.693 235.305 481.474 235.414C481.349 235.477 481.255 235.586 481.177 235.696C480.052 237.149 478.88 238.587 477.879 240.119C477.535 240.651 476.863 241.088 476.379 241.51C475.597 242.198 475.394 241.479 474.972 240.729C470.986 233.554 468.657 225.286 470.048 217.08C470.595 213.86 471.596 209.577 474.909 208.108C477.473 206.966 480.067 207.779 482.271 209.327C483.397 210.108 484.413 211.03 485.398 211.968C485.757 212.281 486.038 212.578 486.414 212.781Z" fill="#1F0735"/>
<path d="M469.548 245.56C466.781 245.481 464.687 245.059 462.983 245.294C461.279 245.528 459.935 246.466 459.623 249.702L494.932 270.084C495.089 266.239 494.213 263.16 491.947 260.768C489.368 258.017 486.289 254.985 486.289 254.985L469.814 245.497" fill="#6A0DAD"/>
<path opacity="0.2" d="M462.983 245.278C463.78 245.168 464.656 245.215 465.64 245.278C467.672 248.654 467.282 254.109 467.282 254.109L459.607 249.685C459.935 246.465 461.279 245.512 462.983 245.278Z" fill="black"/>
<path opacity="0.2" d="M490.181 259.032L490.415 259.142C490.931 259.673 491.447 260.22 491.947 260.752C494.213 263.159 495.089 266.222 494.932 270.068L490.884 267.739C491.009 265.206 491.025 261.221 490.181 259.032Z" fill="black"/>
<path d="M486.632 218.049C489.352 220.612 490.274 226.849 489.79 230.272C489.29 233.695 489.43 238.353 488.196 241.479C486.961 244.605 485.179 245.496 483.319 244.512C483.319 244.512 483.256 245.199 483.116 246.653C482.975 248.107 482.412 250.389 483.788 252.046C485.163 253.703 486.304 254.984 486.304 254.984C486.304 254.984 487.789 263.144 479.989 258.642C472.19 254.14 469.564 245.575 469.564 245.575C471.518 245.59 471.877 245.778 472.768 245.074C473.503 244.496 473.659 242.62 473.925 239.932C474.19 237.243 474.722 231.616 474.722 231.616C473.284 231.632 471.861 229.381 471.752 226.349C471.643 223.316 471.893 221.488 473.456 221.316C475.019 221.144 475.972 223.238 475.863 224.676C475.753 226.114 475.957 226.599 476.613 226.974C477.27 227.349 477.739 226.583 477.864 225.223C477.989 223.863 478.051 223.098 478.254 220.878C482.365 222.019 484.991 221.972 486.632 218.049Z" fill="#6A0DAD"/>
<path opacity="0.6" d="M486.632 218.049C489.352 220.612 490.274 226.849 489.79 230.272C489.29 233.695 489.43 238.353 488.196 241.479C486.961 244.605 485.179 245.496 483.319 244.512C483.319 244.512 483.256 245.199 483.116 246.653C482.975 248.107 482.412 250.389 483.788 252.046C485.163 253.703 486.304 254.984 486.304 254.984C486.304 254.984 487.789 263.144 479.989 258.642C472.19 254.14 469.564 245.575 469.564 245.575C471.518 245.59 471.877 245.778 472.768 245.074C473.503 244.496 473.659 242.62 473.925 239.932C474.19 237.243 474.722 231.616 474.722 231.616C473.284 231.632 471.861 229.381 471.752 226.349C471.643 223.316 471.893 221.488 473.456 221.316C475.019 221.144 475.972 223.238 475.863 224.676C475.753 226.114 475.957 226.599 476.613 226.974C477.27 227.349 477.739 226.583 477.864 225.223C477.989 223.863 478.051 223.098 478.254 220.878C482.365 222.019 484.991 221.972 486.632 218.049Z" fill="white"/>
<path d="M483.319 244.512C480.662 242.98 476.832 239.072 475.863 233.82C475.816 238.697 479.099 243.965 483.147 246.309L483.319 244.512Z" fill="#6A0DAD"/>
<path d="M484.428 228.491L483.866 236.853L486.992 237.228L484.428 228.491Z" fill="#6A0DAD"/>
<path d="M480.88 235.43C480.99 235.712 481.084 235.993 481.209 236.275C481.334 236.556 481.474 236.806 481.631 237.04C481.771 237.259 481.943 237.462 482.1 237.634C482.272 237.806 482.412 238.041 482.584 238.197C482.662 238.275 482.631 238.51 482.553 238.463C482.319 238.369 482.1 238.291 481.881 238.088C481.693 237.9 481.506 237.681 481.334 237.431C481.162 237.197 481.021 236.931 480.88 236.65C480.74 236.368 480.599 236.056 480.521 235.727C480.49 235.462 480.74 235.102 480.88 235.43Z" fill="#6A0DAD"/>
<path d="M479.646 225.114C480.005 224.567 480.474 224.301 481.037 224.27C481.631 224.223 482.256 224.395 482.85 224.786C483.053 224.911 483.225 225.192 483.162 225.505C483.1 225.77 482.834 225.927 482.631 225.802C482.178 225.489 481.709 225.301 481.256 225.239C480.708 225.161 480.193 225.317 479.661 225.38C479.614 225.364 479.63 225.145 479.646 225.114Z" fill="#1F0735"/>
<path d="M487.383 228.349C487.18 228.256 486.961 227.818 486.961 227.521C486.961 227.177 487.164 227.115 487.367 227.224C487.977 227.537 488.571 228.068 489.086 228.756C489.368 229.115 489.602 229.522 489.805 229.975C489.79 230.069 489.79 230.178 489.774 230.272C489.759 230.397 489.743 230.538 489.727 230.663C489.399 230.194 489.086 229.725 488.711 229.334C488.305 228.896 487.852 228.553 487.383 228.349Z" fill="#1F0735"/>
<path d="M501.544 255.828L503.811 254.421L504.67 245.48L502.451 246.7L501.544 255.828Z" fill="black"/>
<path d="M381.344 284.355C381.047 284.183 380.781 283.761 380.75 283.417L375.326 203.262C375.295 202.903 375.545 202.481 375.857 202.324L424.672 173.83L425.751 174.424L431.284 255.844L382.454 284.355C382.141 284.527 381.641 284.511 381.344 284.355Z" fill="#481670"/>
<path d="M425.751 174.423L376.936 202.903C376.764 202.981 376.639 203.137 376.545 203.309C376.451 203.481 376.389 203.668 376.404 203.856L381.844 284.011C381.875 284.37 382.157 284.526 382.469 284.354L431.3 255.844L425.751 174.423Z" fill="#1F0735"/>
<path d="M425.751 174.424L424.672 173.83L375.858 202.309C375.686 202.387 375.561 202.543 375.467 202.715L376.545 203.309C376.639 203.153 376.764 202.981 376.936 202.903L425.751 174.424Z" fill="#1F0735"/>
<path d="M424.954 174.83L430.471 256.266L444.711 264.191L439.037 182.661L424.954 174.83Z" fill="#481670"/>
<path d="M389.331 288.028C388.924 288.231 388.252 288.2 387.83 287.965L384.954 286.355C384.517 286.121 384.141 285.558 384.126 285.12L378.718 205.294C378.686 204.857 378.983 204.325 379.39 204.122L422.218 180.77L426.657 183.239L432.19 264.66L389.331 288.028Z" fill="#EBEBEB"/>
<path d="M432.175 264.676L389.331 288.028C388.925 288.231 388.581 288.043 388.549 287.59L383.141 207.764C383.11 207.326 383.407 206.795 383.813 206.592L426.642 183.239L432.175 264.676Z" fill="#FAFAFA"/>
<path d="M423.672 187.6C423.672 187.428 423.688 187.272 423.734 187.116C423.797 186.866 423.938 186.631 424.11 186.491C424.172 186.428 424.235 186.381 424.313 186.334C424.704 186.115 425.047 186.366 425.079 186.881C425.079 187.1 425.047 187.335 424.938 187.538C424.829 187.804 424.641 188.022 424.422 188.132C424.391 188.147 424.36 188.163 424.328 188.163C423.985 188.304 423.703 188.085 423.672 187.6Z" fill="#1F0735"/>
<path d="M383.329 207.092L378.874 204.623C378.749 204.841 378.671 205.076 378.687 205.31L384.095 285.137C384.126 285.59 384.517 286.137 384.939 286.371L387.831 287.981C388.19 288.185 388.737 288.231 389.128 288.122C388.831 288.185 388.581 287.997 388.55 287.622L383.141 207.796C383.126 207.546 383.188 207.295 383.329 207.092Z" fill="#E6E6E6"/>
<path d="M433.425 184.771C433.503 185.725 432.956 186.553 431.878 187.1C430.065 188.022 427.095 188.038 424.312 187.272C424.422 186.96 424.578 186.569 424.641 186.397C427.11 187.053 429.752 187.053 431.315 186.272C431.659 186.1 432.034 185.834 432.253 185.459C432.362 185.256 432.441 185.021 432.409 184.74C432.331 183.849 431.362 182.833 429.799 182.02C426.798 180.457 422.624 180.066 420.499 181.145C420.092 181.348 419.639 181.676 419.467 182.161L418.388 182.708C418.388 182.677 418.388 182.661 418.388 182.63C418.357 182.208 418.451 181.801 418.654 181.442C418.904 180.989 419.342 180.598 419.936 180.301C422.374 179.066 426.892 179.457 430.237 181.207C432.159 182.223 433.316 183.521 433.425 184.771Z" fill="#1F0735"/>
<path d="M390.378 289.372C390.081 289.2 389.816 288.778 389.784 288.434L384.361 208.28C384.329 207.92 384.579 207.498 384.892 207.342L438.834 181.708L439.912 182.317L445.446 263.738L391.488 289.388C391.191 289.544 390.675 289.544 390.378 289.372Z" fill="#1F0735"/>
<path d="M439.928 182.317L385.986 207.952C385.814 208.03 385.689 208.186 385.595 208.358C385.502 208.53 385.439 208.718 385.455 208.905L390.894 289.06C390.926 289.419 391.207 289.576 391.52 289.404L445.477 263.754L439.928 182.317Z" fill="#481670"/>
<path d="M439.928 182.317L438.85 181.708L384.908 207.342C384.736 207.42 384.611 207.576 384.517 207.748L385.596 208.342C385.689 208.186 385.814 208.014 385.986 207.936L439.928 182.317Z" fill="#1F0735"/>
<path d="M425.751 174.423L439.912 182.301L439.037 182.661L424.954 174.83L425.751 174.423Z" fill="#1F0735"/>
<path d="M439.271 183.958C439.646 183.771 439.99 183.771 440.24 183.911C440.506 184.052 441.35 184.521 441.35 184.521L446.039 263.222C446.102 264.035 445.539 265.004 444.804 265.379L393.239 291.56L387.721 210.124L439.271 183.958Z" fill="#6A0DAD"/>
<path d="M440.35 184.552C441.084 184.177 441.725 184.536 441.788 185.349L447.118 263.816C447.18 264.628 446.618 265.598 445.883 265.973L394.317 292.154L388.8 210.718L440.35 184.552Z" fill="#6A0DAD"/>
<path opacity="0.5" d="M440.35 184.552C441.084 184.177 441.725 184.536 441.788 185.349L447.118 263.816C447.18 264.628 446.618 265.598 445.883 265.973L394.317 292.154L388.8 210.718L440.35 184.552Z" fill="black"/>
<path d="M407.056 286.606L445.227 267.208C445.961 266.833 446.524 265.864 446.461 265.051L441.46 191.461L446.446 188.96L440.975 185.912L440.881 185.959C440.616 185.631 440.194 185.537 439.693 185.787L395.974 207.999L401.492 289.435L407.478 292.764L407.056 286.606Z" fill="#EBEBEB"/>
<path d="M445.664 189.132C446.399 188.757 447.04 189.117 447.102 189.929L452.432 268.396C452.495 269.209 451.932 270.178 451.198 270.553L407.463 292.764L401.945 211.328L445.664 189.132Z" fill="#FAFAFA"/>
<path d="M401.961 211.327L395.974 207.998L401.492 289.434L407.463 292.764L401.961 211.327Z" fill="#E6E6E6"/>
<path d="M403.962 213.203C403.962 213.047 403.977 212.875 404.04 212.719C404.102 212.469 404.243 212.234 404.415 212.094C404.477 212.031 404.54 211.984 404.618 211.937C405.009 211.718 405.353 211.969 405.384 212.484C405.4 212.703 405.353 212.938 405.243 213.141C405.134 213.407 404.946 213.625 404.728 213.735C404.696 213.75 404.665 213.766 404.634 213.766C404.274 213.907 403.993 213.672 403.962 213.203Z" fill="#1F0735"/>
<path d="M403.821 216.361C404.462 216.033 404.915 215.627 405.196 215.142C405.556 214.501 405.571 213.798 405.243 213.141C405.071 212.766 404.79 212.407 404.415 212.079C404.243 212.219 404.102 212.454 404.04 212.704C404.399 213.048 404.602 213.407 404.649 213.767C404.805 214.486 404.368 215.205 403.383 215.705C401.57 216.627 398.491 216.486 396.537 215.408C394.583 214.314 394.442 212.704 396.24 211.766L396.193 210.938C396.068 210.984 395.958 211.047 395.849 211.109C395.208 211.422 394.755 211.844 394.474 212.313C394.474 212.313 394.474 212.313 394.474 212.329C394.114 212.954 394.098 213.673 394.442 214.345C394.755 215.002 395.349 215.564 396.193 216.049C398.397 217.268 401.757 217.424 403.821 216.361Z" fill="#1F0735"/>
<path d="M402.711 217.626L449.806 189.21L449.025 188.772C448.634 188.553 448.009 188.522 447.634 188.71L401.632 217.017L402.711 217.626Z" fill="#6A0DAD"/>
<path d="M448.822 189.272C449.556 188.897 450.197 189.257 450.26 190.069L455.59 268.536C455.652 269.349 455.09 270.318 454.355 270.693L407.463 299.469L401.945 218.033L448.822 189.272Z" fill="#6A0DAD"/>
<path opacity="0.6" d="M448.822 189.272C449.556 188.897 450.197 189.257 450.26 190.069L455.59 268.536C455.652 269.349 455.09 270.318 454.355 270.693L407.463 299.469L401.945 218.033L448.822 189.272Z" fill="white"/>
<path d="M387.721 210.124L393.239 291.56L407.478 299.485L401.945 218.033L387.721 210.124Z" fill="#6A0DAD"/>
<path opacity="0.4" d="M387.721 210.124L393.239 291.56L407.478 299.485L401.945 218.033L387.721 210.124Z" fill="white"/>
<path d="M391.426 224.676C391.785 224.051 392.395 223.676 393.161 223.598C393.88 223.535 394.708 223.739 395.536 224.208C397.756 225.442 399.632 228.209 399.788 230.491C399.835 231.195 399.726 231.804 399.444 232.289C398.725 233.539 397.068 233.742 395.333 232.758C393.114 231.523 391.238 228.756 391.082 226.474C391.035 225.771 391.16 225.161 391.426 224.676Z" fill="#481670"/>
<path d="M395.193 224.833C393.223 223.738 391.754 224.489 391.895 226.505C392.035 228.522 393.739 231.054 395.693 232.132C397.662 233.226 399.132 232.476 398.991 230.46C398.85 228.443 397.162 225.911 395.193 224.833Z" fill="#F5F5F5"/>
<path d="M397.475 248.732L396.396 248.138C394.239 246.934 392.614 247.763 392.77 249.982L395.083 283.886C395.24 286.105 397.1 288.872 399.257 290.075L400.335 290.669C402.492 291.873 404.118 291.044 403.962 288.825L401.648 254.922C401.507 252.702 399.632 249.936 397.475 248.732Z" fill="#F5F5F5"/>
<path d="M388.518 209.718L402.68 217.596L401.945 218.033L387.721 210.124L388.518 209.718Z" fill="#6A0DAD"/>
<path d="M466.969 252.733H434.832L438.427 288.059H438.443C438.599 289.778 439.803 291.451 442.069 292.764C446.962 295.577 454.871 295.577 459.763 292.764C462.03 291.451 463.233 289.763 463.39 288.059H463.405L466.969 252.733Z" fill="#6A0DAD"/>
<path d="M439.553 246.168C445.836 242.542 456.012 242.542 462.295 246.168C468.579 249.795 468.579 255.672 462.295 259.298C456.012 262.925 445.836 262.925 439.553 259.298C433.269 255.672 433.269 249.795 439.553 246.168Z" fill="#6A0DAD"/>
<path opacity="0.2" d="M439.553 246.168C445.836 242.542 456.012 242.542 462.295 246.168C468.579 249.795 468.579 255.672 462.295 259.298C456.012 262.925 445.836 262.925 439.553 259.298C433.269 255.672 433.269 249.795 439.553 246.168Z" fill="white"/>
<path d="M450.916 260.158C446.946 260.158 443.242 259.283 440.475 257.689C438.037 256.282 436.692 254.531 436.692 252.734C436.692 250.952 438.037 249.186 440.475 247.779C443.226 246.184 446.946 245.309 450.916 245.309C454.887 245.309 458.591 246.184 461.358 247.779C463.796 249.186 465.14 250.936 465.14 252.734C465.14 254.516 463.796 256.282 461.358 257.689C458.607 259.283 454.887 260.158 450.916 260.158Z" fill="#1F0735"/>
<path d="M458.294 201.121L456.449 245.934L455.902 259.674C455.512 259.783 455.105 259.845 454.699 259.892C453.495 260.08 452.229 260.174 450.932 260.174C448.29 260.174 445.774 259.799 443.57 259.048L444.101 246.278L446.211 194.884L447.43 194.243L458.294 201.121Z" fill="#FAFAFA"/>
<path d="M457.075 201.762L455.277 245.684L454.683 259.877C453.48 260.065 452.213 260.158 450.916 260.158C448.274 260.158 445.758 259.783 443.554 259.033L444.085 246.263L446.196 194.869L457.075 201.762Z" fill="#F0F0F0"/>
<path opacity="0.25" d="M458.294 201.121L456.449 245.934L455.902 259.673C455.511 259.783 455.105 259.845 454.698 259.892L455.292 245.7L457.09 201.777L458.294 201.121Z" fill="black"/>
<path d="M445.367 259.548C443.71 259.189 442.194 258.626 440.881 257.907L439.553 248.388L436.286 225.114C436.833 225.661 438.24 225.958 439.772 225.801C440.147 225.77 440.522 225.692 440.881 225.598C442.21 225.301 443.304 224.707 443.617 224.02L446.633 245.684L447.352 250.826C447.368 250.858 447.368 250.873 447.368 250.889L448.65 260.048C448.509 260.048 448.353 260.033 448.212 260.017C447.227 259.923 446.274 259.767 445.367 259.548Z" fill="#481670"/>
<path d="M439.287 216.876C438.224 217.158 437.849 216.923 437.849 216.923L436.302 225.114C437.146 226.333 439.209 226.583 440.959 226.083L440.913 225.677L439.287 216.876Z" fill="#FFA8A7"/>
<path d="M443.601 224.02V224.036V224.02L439.787 216.455L443.601 224.02Z" fill="#FAFAFA"/>
<path d="M439.787 216.454L438.865 214.61L439.787 216.454Z" fill="#E0E0E0"/>
<path d="M438.255 214.688L437.833 216.923C437.833 216.923 438.193 217.173 439.271 216.876L438.849 214.61C438.756 214.438 438.568 214.391 438.427 214.469C438.349 214.501 438.287 214.579 438.255 214.688Z" fill="#481670"/>
<path opacity="0.1" d="M448.212 260.017C447.227 259.908 446.274 259.751 445.367 259.533L443.632 246.403L440.944 226.067C442.132 225.723 443.195 225.02 443.601 224.02L446.618 245.684L447.337 250.826C447.352 250.858 447.352 250.873 447.352 250.889L448.634 260.048C448.509 260.064 448.353 260.048 448.212 260.017Z" fill="black"/>
<path d="M443.601 224.036L439.787 216.455C439.678 216.642 439.49 216.798 439.271 216.877L440.881 225.677L440.928 226.083C442.147 225.724 443.195 225.02 443.601 224.036Z" fill="#F28F8F"/>
<path d="M439.287 216.876C439.553 216.814 439.771 216.564 439.803 216.454L438.88 214.61L439.287 216.876Z" fill="#1F0735"/>
<path d="M464.64 226.052L464.499 226.989L464.359 228.021L464.343 228.084L464.14 229.615V229.631H464.124V229.647L464.077 230.069L463.874 231.616L463.859 231.647V231.663L461.592 247.919L460.138 258.314C458.872 258.876 457.466 259.33 455.934 259.642C454.918 259.845 453.855 260.002 452.776 260.08L454.777 245.606L456.887 230.6L457.09 229.084L457.356 227.208V227.193L457.387 227.036V227.005L457.669 225.098C457.669 225.145 457.684 225.208 457.7 225.254C457.716 225.317 457.747 225.38 457.809 225.426C457.841 225.473 457.903 225.536 457.95 225.583C458.122 225.739 458.372 225.864 458.653 225.973C458.763 226.02 458.857 226.067 458.966 226.099C459.404 226.27 459.904 226.395 460.435 226.489C460.482 226.505 460.56 226.505 460.607 226.521C460.889 226.567 461.154 226.614 461.451 226.646C461.592 226.661 461.733 226.661 461.873 226.677C462.014 226.692 462.155 226.692 462.295 226.692C462.999 226.724 463.624 226.677 464.062 226.552C464.156 226.521 464.234 226.505 464.296 226.458C464.327 226.442 464.359 226.427 464.406 226.396C464.421 226.396 464.437 226.396 464.437 226.38C464.468 226.364 464.468 226.349 464.484 226.333C464.578 226.27 464.624 226.177 464.64 226.052Z" fill="#481670"/>
<path d="M464.156 229.569L463.859 231.632C463.796 232.226 462.467 232.429 460.983 232.367C459.013 232.273 456.793 231.413 456.872 230.632L457.09 229.115L457.169 228.568C457.09 229.366 459.294 230.225 461.279 230.303C462.702 230.366 463.984 230.178 464.14 229.631C464.156 229.6 464.156 229.584 464.156 229.569Z" fill="#EBEBEB"/>
<path d="M464.077 230.069C463.937 231.46 456.95 230.444 457.106 229.053L457.387 226.989C457.247 228.38 464.218 229.396 464.359 228.005L464.077 230.069Z" fill="#6A0DAD"/>
<path d="M464.64 226.052L464.359 228.084C464.218 229.443 457.481 228.537 457.372 227.193C457.372 227.177 457.372 227.146 457.372 227.115L457.669 225.067C457.544 226.458 464.499 227.443 464.64 226.052Z" fill="#EBEBEB"/>
<path opacity="0.15" d="M464.64 226.052L464.5 226.99L464.359 228.022L464.343 228.084L464.14 229.616V229.632H464.124V229.647L464.077 230.069L463.874 231.617L463.859 231.648V231.664L461.592 247.92L460.139 258.314C458.872 258.877 457.466 259.33 455.934 259.643L457.794 246.278L459.748 232.18L459.982 230.507L460.029 230.132L460.248 228.553V228.444L460.514 226.631C460.498 226.631 460.482 226.615 460.467 226.615C460.467 226.615 460.451 226.615 460.436 226.599C460.389 226.568 460.389 226.537 460.42 226.474C460.467 226.49 460.545 226.49 460.592 226.506C460.873 226.552 461.139 226.599 461.436 226.631C461.577 226.646 461.717 226.646 461.858 226.662C461.999 226.677 462.139 226.677 462.28 226.677C462.983 226.709 463.609 226.662 464.046 226.537C464.187 226.49 464.312 226.427 464.39 226.381C464.421 226.349 464.453 226.334 464.484 226.318C464.578 226.271 464.625 226.177 464.64 226.052Z" fill="black"/>
<path d="M465.828 217.424L464.64 226.052C464.578 226.646 463.28 226.849 461.795 226.786C459.826 226.693 457.591 225.864 457.653 225.067C457.653 225.067 457.653 225.067 457.653 225.051L458.857 216.392C459.107 214.673 462.655 214.735 464.64 215.751C465.39 216.142 465.875 216.689 465.828 217.424Z" fill="#F28F8F"/>
<path opacity="0.1" d="M463.827 218.721C462.077 218.956 460.013 218.299 459.216 217.252C458.919 216.861 458.841 216.486 458.935 216.142C459.498 214.689 462.764 214.798 464.64 215.767C465.375 216.127 465.844 216.674 465.828 217.393C465.734 218.034 465 218.565 463.827 218.721Z" fill="black"/>
<path d="M448.837 280.416H415.043L418.545 294.968C418.81 296.718 420.108 298.438 422.437 299.782C427.689 302.814 436.223 302.814 441.475 299.782C443.976 298.328 445.273 296.468 445.398 294.561L448.837 280.416Z" fill="#1F0735"/>
<path d="M444.726 290.404C445.492 289.966 446.164 289.481 446.758 288.981L448.665 281.197C447.79 282.182 446.664 283.088 445.242 283.917C438.114 288.028 426.688 288.137 419.311 284.245L420.17 280.775L419.905 280.416H415.059L418.545 294.968C418.81 296.718 420.108 298.438 422.437 299.782C426.188 301.939 431.581 302.564 436.27 301.642C427.845 302.267 422.077 298.594 421.202 295.187C420.858 293.827 420.248 290.841 420.248 290.841C427.282 294.421 438.005 294.28 444.726 290.404Z" fill="#1F0735"/>
<path d="M450.604 276.117C450.432 277.008 450.056 277.899 449.478 278.743C448.572 280.119 447.149 281.4 445.242 282.51C437.911 286.746 426.001 286.746 418.67 282.51C416.763 281.4 415.341 280.119 414.434 278.743C413.856 277.899 413.48 277.008 413.309 276.117C412.652 272.929 414.45 269.615 418.67 267.176C426.001 262.941 437.911 262.941 445.242 267.176C449.462 269.615 451.26 272.929 450.604 276.117Z" fill="#481670"/>
<path d="M449.478 278.743C448.571 280.119 447.149 281.4 445.242 282.51C437.911 286.746 426.001 286.746 418.67 282.51C416.763 281.4 415.34 280.119 414.434 278.743C413.855 277.899 413.48 277.008 413.308 276.117L414.137 281.854C414.512 284.151 416.231 286.402 419.295 288.169C426.282 292.201 437.614 292.201 444.617 288.169C447.633 286.418 449.353 284.198 449.759 281.932L449.806 281.635L450.619 276.117C450.431 277.008 450.041 277.883 449.478 278.743Z" fill="#1F0735"/>
<path d="M443.023 268.442C436.911 264.91 426.986 264.91 420.89 268.442C417.435 270.443 415.935 273.147 416.388 275.742C416.732 277.743 418.248 279.681 420.89 281.213C427.001 284.745 436.911 284.745 443.023 281.213C445.664 279.681 447.181 277.743 447.524 275.742C447.978 273.147 446.477 270.443 443.023 268.442Z" fill="#1F0735"/>
<path d="M417.404 278.165C418.17 279.274 419.326 280.322 420.874 281.228C426.985 284.761 436.895 284.761 443.007 281.228C444.57 280.322 445.711 279.29 446.477 278.165C446.43 276.055 445.023 273.944 442.225 272.334C436.536 269.052 427.329 269.052 421.655 272.334C418.857 273.944 417.451 276.055 417.404 278.165Z" fill="#FAFAFA"/>
<path d="M433.113 271.6C430.299 270.834 429.83 264.753 431.394 258.329C432.925 252.077 437.833 242.714 438.865 242.917C439.912 243.121 441.21 253.312 440.475 260.033C439.6 268.177 435.926 272.366 433.113 271.6Z" fill="#6A0DAD"/>
<path opacity="0.3" d="M433.113 271.6C430.299 270.834 429.83 264.753 431.394 258.329C432.925 252.077 437.833 242.714 438.865 242.917C439.912 243.121 441.21 253.312 440.475 260.033C439.6 268.177 435.926 272.366 433.113 271.6Z" fill="black"/>
<path opacity="0.5" d="M434.488 251.92C434.988 252.717 435.301 254.062 436.489 254.062C437.442 254.062 437.927 253.061 438.787 252.827C439.474 252.639 440.131 252.999 440.678 253.39C440.662 253.139 440.662 252.905 440.647 252.655C440.162 252.342 439.615 252.061 439.021 252.077C438.49 252.092 438.068 252.374 437.661 252.686C437.224 253.03 436.692 253.546 436.083 253.296C435.395 253.014 435.207 252.155 434.848 251.576C434.66 251.264 434.41 250.982 434.097 250.81C434.019 250.982 433.941 251.154 433.863 251.326C434.113 251.483 434.332 251.67 434.488 251.92ZM437.818 249.404C438.224 249.216 438.458 248.81 438.771 248.513C439.162 248.138 439.709 248.044 440.225 248.231C440.24 248.231 440.256 248.247 440.272 248.263C440.24 248.044 440.225 247.825 440.193 247.622C440.1 247.591 440.022 247.575 439.928 247.559C439.521 247.497 439.084 247.575 438.755 247.809C438.365 248.091 438.146 248.56 437.739 248.81C437.005 249.247 436.426 248.45 436.208 247.841C436.114 247.575 436.036 247.294 435.942 247.028C435.864 247.169 435.786 247.309 435.723 247.45C435.77 247.637 435.817 247.841 435.879 248.013C436.098 248.825 436.848 249.857 437.818 249.404ZM437.724 257.532C437.208 257.844 436.786 258.36 436.192 258.532C434.738 258.938 434.41 256.703 433.488 256.047C433.097 255.765 432.628 255.656 432.175 255.703C432.112 255.875 432.065 256.047 432.003 256.219C432.237 256.172 432.488 256.172 432.738 256.219C433.363 256.359 433.707 256.813 434.004 257.344C434.473 258.173 435.051 259.361 436.208 259.126C436.723 259.017 437.13 258.673 437.552 258.36C438.146 257.938 438.771 257.672 439.506 257.829C439.943 257.922 440.272 258.157 440.6 258.423C440.615 258.204 440.631 257.985 440.631 257.766C440.225 257.469 439.803 257.235 439.287 257.172C438.755 257.125 438.208 257.25 437.724 257.532ZM438.599 262.455C437.958 262.299 437.27 262.424 436.677 262.706C436.004 263.034 435.52 263.69 434.816 263.956C433.285 264.534 433.05 262.315 431.925 261.768C431.55 261.596 431.159 261.518 430.768 261.549C430.737 261.721 430.721 261.893 430.706 262.065C430.846 262.049 431.003 262.049 431.143 262.08C431.909 262.19 432.362 262.643 432.722 263.299C433.269 264.315 433.972 265.128 435.207 264.519C435.864 264.19 436.348 263.596 437.02 263.299C437.755 262.987 438.662 262.956 439.302 263.503C439.412 263.612 439.568 263.8 439.74 264.034C439.803 263.815 439.85 263.596 439.896 263.362C439.568 262.94 439.162 262.58 438.599 262.455Z" fill="#6A0DAD"/>
<path opacity="0.1" d="M433.113 271.6C435.926 272.366 439.6 268.177 440.491 260.033C440.725 257.907 440.756 255.438 440.647 253.046C438.349 254.937 436.052 258.783 436.052 258.783C436.052 258.783 434.551 254.844 433.316 252.64C432.519 254.593 431.831 256.594 431.394 258.345C429.83 264.753 430.299 270.834 433.113 271.6Z" fill="black"/>
<path d="M430.831 274.976C427.126 277.352 423.688 268.911 421.843 262.549C419.999 256.188 421.202 239.525 423.062 238.619C424.375 237.978 431.362 252.89 432.738 260.158C433.738 265.394 433.769 273.084 430.831 274.976Z" fill="#6A0DAD"/>
<path opacity="0.1" d="M430.831 274.976C427.126 277.352 423.688 268.911 421.843 262.549C419.999 256.188 421.202 239.525 423.062 238.619C424.375 237.978 431.362 252.89 432.738 260.158C433.738 265.394 433.769 273.084 430.831 274.976Z" fill="black"/>
<path d="M422.843 250.373C424 250.951 424.922 250.951 425.829 249.966C426.673 249.06 427.298 247.903 428.611 248.059C428.486 247.762 428.361 247.481 428.22 247.184C428.002 247.168 427.798 247.184 427.58 247.246C426.439 247.559 425.923 248.747 425.11 249.497C423.875 250.654 422.546 249.138 421.14 249.216C421.093 249.216 421.062 249.231 421.015 249.231C420.999 249.482 420.983 249.747 420.983 249.997C421.609 249.951 422.249 250.076 422.843 250.373ZM433.003 261.83C432.816 261.752 432.613 261.689 432.394 261.658C431.784 261.533 431.143 261.689 430.643 262.049C429.518 262.877 429.471 264.69 427.658 264.221C426.282 263.862 425.251 262.955 423.813 263.674C423.312 263.924 422.875 264.268 422.484 264.675C422.547 264.878 422.625 265.097 422.687 265.316C423.219 264.8 423.797 264.378 424.485 264.206C426.048 263.799 427.22 265.378 428.768 265.128C430.034 264.925 430.174 263.534 431.05 262.846C431.706 262.33 432.394 262.455 433.097 262.721C433.082 262.393 433.05 262.111 433.003 261.83ZM422.906 244.323C423.344 244.917 423.953 245.574 424.75 245.168C425.61 244.73 425.673 243.683 426.22 243.01C426.126 242.823 426.017 242.62 425.923 242.432C425.391 243.151 425.126 244.699 424.094 244.652C423.297 244.605 422.984 243.417 422.312 243.073C422.078 242.948 421.859 242.917 421.64 242.948C421.609 243.104 421.593 243.276 421.562 243.432C421.609 243.432 421.671 243.417 421.718 243.417C422.281 243.432 422.609 243.917 422.906 244.323ZM425.704 256.953C427.158 257.266 427.877 255.531 428.533 254.562C429.018 253.843 429.752 253.108 430.565 252.842C430.471 252.576 430.362 252.326 430.268 252.061C430.002 252.123 429.737 252.217 429.502 252.342C428.83 252.717 428.345 253.327 427.923 253.952C427.486 254.608 427.126 255.484 426.439 255.937C425.657 256.437 424.75 255.656 423.938 255.499C423.187 255.359 422.406 255.421 421.687 255.687C421.452 255.765 421.218 255.89 420.999 256.015C421.015 256.375 421.03 256.734 421.062 257.078C421.671 256.5 422.625 256.265 423.437 256.281C424.266 256.312 424.907 256.781 425.704 256.953Z" fill="#6A0DAD"/>
<path opacity="0.1" d="M430.799 253.53C428.846 255.875 427.798 258.438 427.798 258.438C427.798 258.438 423.781 252.999 420.968 250.529C420.811 255.047 421.03 259.767 421.843 262.534C423.687 268.895 427.126 277.336 430.831 274.96C433.769 273.069 433.738 265.379 432.738 260.142C432.394 258.313 431.69 255.984 430.799 253.53Z" fill="black"/>
<path d="M430.565 279.305C423.813 279.665 417.482 275.585 413.387 270.412C409.292 265.253 406.087 254.593 407.01 253.937C407.932 253.28 418.842 260.001 422.937 264.863C428.33 271.24 430.565 279.305 430.565 279.305Z" fill="#6A0DAD"/>
<path opacity="0.2" d="M430.565 279.305C423.813 279.665 417.482 275.585 413.387 270.412C409.292 265.253 406.087 254.593 407.01 253.937C407.932 253.28 418.842 260.001 422.937 264.863C428.33 271.24 430.565 279.305 430.565 279.305Z" fill="black"/>
<path d="M415.825 262.377C416.216 261.736 415.997 260.971 415.903 260.283C415.841 259.783 415.935 259.345 416.169 258.97C415.919 258.782 415.653 258.61 415.403 258.423C415.075 258.985 415.028 259.611 415.122 260.252C415.231 261.033 415.419 262.002 414.372 262.143C413.231 262.299 411.667 261.283 410.745 262.409C410.308 262.956 410.48 263.643 410.464 264.284C410.464 264.55 410.37 264.847 410.214 265.113C410.339 265.363 410.464 265.629 410.589 265.879C410.855 265.55 411.042 265.144 411.089 264.738C411.183 263.956 410.886 262.94 411.933 262.768C412.668 262.659 413.371 262.987 414.106 263.049C414.778 263.096 415.45 262.971 415.825 262.377ZM412.043 256.735C412.121 256.61 412.23 256.5 412.34 256.406C412.136 256.281 411.933 256.156 411.73 256.031C411.23 256.688 411.23 257.579 410.73 258.22C410.401 258.657 409.964 258.688 409.448 258.579C408.963 258.485 408.51 258.407 408.041 258.626C407.947 258.673 407.854 258.72 407.76 258.782C407.807 258.939 407.854 259.11 407.916 259.267C408.119 259.142 408.354 259.079 408.619 259.064C409.135 259.048 409.604 259.314 410.12 259.282C410.48 259.251 410.777 259.079 411.011 258.829C411.589 258.266 411.621 257.407 412.043 256.735ZM419.53 265.8C420.061 265.363 420.389 264.706 420.561 264.065C420.686 263.597 420.671 263.112 420.733 262.627C420.53 262.44 420.311 262.252 420.092 262.065C419.952 262.862 420.03 263.659 419.624 264.394C419.155 265.253 418.451 265.503 417.513 265.488C416.841 265.488 416.185 265.535 415.7 266.066C415.263 266.566 415.122 267.239 415.028 267.879C414.887 268.817 414.747 269.693 413.871 270.224C413.715 270.318 413.559 270.38 413.402 270.443C413.559 270.646 413.731 270.834 413.887 271.037C414.247 270.865 414.59 270.646 414.856 270.318C415.982 268.974 415.075 266.316 417.466 266.316C418.248 266.301 418.92 266.301 419.53 265.8ZM423.172 266.473C423.312 266.207 423.484 265.972 423.672 265.769C423.484 265.519 423.281 265.285 423.094 265.05C422.515 265.644 422.203 266.379 422.015 267.176C421.812 268.036 421.702 268.974 421.14 269.693C420.546 270.443 419.624 270.365 418.842 270.802C418.17 271.177 417.67 271.771 417.404 272.49C417.201 273.038 417.123 273.616 417.044 274.194C417.279 274.397 417.513 274.585 417.763 274.788C417.763 274.757 417.779 274.71 417.779 274.679C417.935 273.725 418.045 272.741 418.795 272.037C419.514 271.365 420.499 271.459 421.249 270.927C422.687 269.88 422.437 267.911 423.172 266.473ZM426.095 269.286C425.907 269.442 425.72 269.599 425.548 269.786C424.391 271.052 424.532 272.694 424.11 274.257C423.891 275.054 423.469 275.851 422.672 276.179C422.031 276.445 421.296 276.195 420.733 276.695C420.718 276.711 420.702 276.742 420.686 276.758C421.015 276.945 421.359 277.133 421.702 277.305C421.89 277.258 422.078 277.258 422.265 277.242C422.64 277.227 422.969 277.164 423.312 276.992C423.891 276.695 424.313 276.164 424.594 275.585C425.298 274.132 424.985 272.365 425.86 270.99C426.063 270.662 426.314 270.38 426.595 270.146C426.439 269.864 426.267 269.583 426.095 269.286Z" fill="#6A0DAD"/>
<path opacity="0.2" d="M415.356 258.391C415.997 263.987 418.983 279.039 430.581 279.305C430.581 279.305 428.33 271.224 422.968 264.862C421.218 262.815 418.248 260.423 415.356 258.391Z" fill="black"/>
<path d="M430.565 279.306C425.251 278.524 420.686 275.164 418.342 265.144C415.997 255.125 415.638 250.608 417.248 249.607C419.108 248.466 426.36 258.564 428.689 263.003C434.567 274.163 430.565 279.306 430.565 279.306Z" fill="#6A0DAD"/>
<path opacity="0.2" d="M420.702 260.799C422.031 261.221 423.75 261.658 424.75 260.345C425.235 259.705 425.376 258.845 425.704 258.157C425.469 257.813 425.235 257.469 424.985 257.141C424.407 258.079 424.422 259.486 423.39 260.017C422.625 260.424 421.702 260.158 420.936 259.923C420.139 259.689 419.342 259.439 418.498 259.564C418.029 259.626 417.607 259.783 417.232 260.017C417.294 260.314 417.357 260.627 417.42 260.924C417.591 260.83 417.763 260.736 417.951 260.674C418.889 260.314 419.78 260.517 420.702 260.799ZM419.139 255.625C419.545 255.781 419.936 255.953 420.374 255.859C421.187 255.687 421.609 254.906 422.015 254.281C422.14 254.093 422.265 253.906 422.421 253.749C422.249 253.546 422.093 253.343 421.921 253.14C421.89 253.171 421.859 253.202 421.812 253.249C421.312 253.859 420.89 255.094 419.952 255.109C419.498 255.125 419.061 254.812 418.623 254.718C418.248 254.64 417.857 254.64 417.482 254.687C417.091 254.75 416.732 254.89 416.419 255.093C416.45 255.328 416.482 255.562 416.513 255.813C416.951 255.562 417.435 255.39 417.935 255.375C418.357 255.375 418.748 255.469 419.139 255.625ZM424.938 266.754C425.438 266.019 425.813 265.175 426.564 264.644C427.439 264.019 428.314 264.05 429.268 264.159C429.096 263.784 428.908 263.409 428.705 263.034C428.095 262.971 427.486 262.956 426.876 263.143C426.048 263.393 425.36 263.925 424.844 264.628C424.391 265.269 424.078 266.051 423.484 266.598C422.406 267.582 420.936 266.723 419.733 266.488C419.373 266.426 419.03 266.395 418.67 266.41C418.764 266.754 418.858 267.098 418.951 267.426C419.389 267.426 419.858 267.489 420.343 267.645C422.156 268.176 423.734 268.505 424.938 266.754ZM431.065 268.692C430.971 268.724 430.893 268.739 430.799 268.77C430.08 269.052 429.471 269.521 429.002 270.13C428.486 270.802 428.22 271.6 427.72 272.287C427.158 273.084 426.517 273.288 425.61 272.991C424.813 272.741 424.094 272.553 423.281 272.819C422.718 273.006 422.218 273.335 421.796 273.741C421.984 274.007 422.156 274.257 422.343 274.507C422.672 274.21 423.062 273.975 423.484 273.835C424.156 273.632 424.703 273.804 425.313 274.069C426.845 274.694 428.142 274.288 429.08 272.928C429.533 272.256 429.799 271.475 430.315 270.849C430.612 270.474 430.987 270.193 431.409 270.005C431.3 269.568 431.19 269.146 431.065 268.692Z" fill="white"/>
<path opacity="0.15" d="M428.705 263.019C428.283 262.221 427.705 261.221 427.017 260.158C424.719 267.27 423.984 277.633 430.581 279.322C430.565 279.306 434.566 274.163 428.705 263.019Z" fill="black"/>
<path d="M433.316 279.305C440.068 279.665 446.399 275.585 450.494 270.412C454.589 265.253 457.794 254.593 456.871 253.937C455.949 253.28 445.039 260.001 440.944 264.863C435.567 271.24 433.316 279.305 433.316 279.305Z" fill="#6A0DAD"/>
<path opacity="0.2" d="M433.316 279.305C440.068 279.665 446.399 275.585 450.494 270.412C454.589 265.253 457.794 254.593 456.871 253.937C455.949 253.28 445.039 260.001 440.944 264.863C435.567 271.24 433.316 279.305 433.316 279.305Z" fill="black"/>
<path d="M449.759 263.049C450.478 263.003 451.197 262.659 451.932 262.768C452.995 262.94 452.682 263.956 452.776 264.738C452.823 265.144 453.011 265.55 453.276 265.879C453.401 265.629 453.526 265.378 453.652 265.113C453.511 264.847 453.417 264.55 453.401 264.284C453.386 263.643 453.558 262.956 453.12 262.409C452.214 261.283 450.635 262.299 449.494 262.143C448.446 262.002 448.634 261.033 448.743 260.252C448.837 259.611 448.79 258.985 448.462 258.423C448.212 258.595 447.946 258.782 447.696 258.97C447.931 259.345 448.04 259.783 447.962 260.283C447.868 260.971 447.649 261.736 448.04 262.377C448.431 262.971 449.119 263.096 449.759 263.049ZM452.854 258.86C453.089 259.126 453.386 259.298 453.745 259.314C454.261 259.345 454.73 259.079 455.246 259.095C455.512 259.095 455.746 259.173 455.949 259.298C455.996 259.126 456.059 258.97 456.106 258.814C456.012 258.751 455.918 258.704 455.824 258.657C455.355 258.438 454.902 258.517 454.417 258.61C453.917 258.72 453.48 258.688 453.136 258.251C452.636 257.61 452.636 256.703 452.135 256.062C451.932 256.188 451.729 256.313 451.526 256.438C451.635 256.531 451.745 256.625 451.823 256.766C452.276 257.407 452.307 258.266 452.854 258.86ZM446.399 266.301C448.806 266.301 447.884 268.958 449.009 270.302C449.291 270.63 449.619 270.865 449.978 271.021C450.15 270.834 450.307 270.63 450.463 270.427C450.307 270.365 450.15 270.302 449.994 270.208C449.119 269.677 448.978 268.802 448.837 267.864C448.743 267.223 448.603 266.551 448.165 266.051C447.681 265.519 447.024 265.472 446.352 265.472C445.414 265.472 444.711 265.222 444.242 264.378C443.835 263.628 443.914 262.831 443.773 262.049C443.554 262.237 443.335 262.424 443.132 262.612C443.195 263.081 443.195 263.581 443.304 264.05C443.476 264.706 443.804 265.347 444.336 265.785C444.961 266.301 445.633 266.301 446.399 266.301ZM442.647 270.912C443.413 271.443 444.398 271.349 445.117 272.021C445.867 272.725 445.977 273.71 446.133 274.663C446.133 274.694 446.149 274.726 446.149 274.772C446.399 274.585 446.633 274.382 446.868 274.179C446.774 273.6 446.711 273.022 446.508 272.475C446.243 271.771 445.727 271.162 445.07 270.787C444.289 270.349 443.351 270.427 442.772 269.677C442.21 268.958 442.1 268.02 441.897 267.16C441.71 266.363 441.397 265.629 440.819 265.035C440.615 265.269 440.428 265.519 440.24 265.754C440.444 265.972 440.615 266.207 440.741 266.457C441.46 267.911 441.194 269.88 442.647 270.912ZM437.286 270.146C437.567 270.38 437.818 270.662 438.021 270.99C438.896 272.365 438.583 274.132 439.287 275.585C439.568 276.164 439.99 276.695 440.569 276.992C440.912 277.164 441.241 277.227 441.616 277.242C441.803 277.258 441.991 277.258 442.179 277.305C442.522 277.133 442.851 276.945 443.195 276.758C443.179 276.742 443.163 276.711 443.148 276.695C442.585 276.195 441.866 276.445 441.209 276.179C440.412 275.851 439.99 275.038 439.771 274.257C439.349 272.709 439.49 271.068 438.333 269.786C438.161 269.599 437.974 269.442 437.786 269.286C437.614 269.583 437.458 269.864 437.286 270.146Z" fill="#6A0DAD"/>
<path opacity="0.2" d="M448.54 258.391C447.899 263.987 444.914 279.039 433.316 279.305C433.316 279.305 435.567 271.224 440.928 264.862C442.679 262.815 445.633 260.423 448.54 258.391Z" fill="black"/>
<path d="M433.316 279.306C438.631 278.524 443.195 275.164 445.539 265.144C447.884 255.125 448.243 250.608 446.633 249.607C444.773 248.466 437.521 258.564 435.192 263.003C429.33 274.163 433.316 279.306 433.316 279.306Z" fill="#6A0DAD"/>
<path opacity="0.2" d="M445.946 260.674C446.133 260.737 446.305 260.83 446.477 260.924C446.54 260.612 446.602 260.299 446.665 260.018C446.29 259.799 445.852 259.627 445.399 259.564C444.555 259.455 443.758 259.689 442.96 259.924C442.179 260.158 441.272 260.424 440.506 260.018C439.475 259.471 439.49 258.079 438.912 257.142C438.678 257.485 438.427 257.829 438.193 258.158C438.537 258.83 438.662 259.705 439.147 260.346C440.147 261.659 441.866 261.206 443.195 260.799C444.101 260.518 445.008 260.315 445.946 260.674ZM445.946 255.391C446.446 255.407 446.931 255.579 447.368 255.829C447.4 255.579 447.431 255.344 447.462 255.11C447.149 254.906 446.79 254.766 446.399 254.703C446.008 254.641 445.633 254.641 445.258 254.734C444.82 254.828 444.383 255.125 443.93 255.125C442.992 255.11 442.57 253.875 442.069 253.265C442.038 253.218 442.007 253.203 441.96 253.156C441.788 253.359 441.632 253.547 441.46 253.765C441.616 253.922 441.741 254.109 441.866 254.297C442.273 254.922 442.695 255.704 443.507 255.875C443.945 255.969 444.336 255.797 444.742 255.641C445.133 255.469 445.524 255.375 445.946 255.391ZM443.539 267.614C444.023 267.458 444.492 267.395 444.93 267.395C445.024 267.067 445.117 266.723 445.211 266.379C444.852 266.364 444.508 266.395 444.148 266.458C442.945 266.692 441.475 267.567 440.397 266.567C439.803 266.035 439.49 265.238 439.037 264.597C438.537 263.894 437.833 263.378 437.005 263.113C436.38 262.925 435.786 262.925 435.161 263.003C434.957 263.394 434.77 263.769 434.598 264.129C435.551 264.019 436.427 263.988 437.302 264.613C438.052 265.145 438.412 265.989 438.928 266.723C440.162 268.505 441.741 268.177 443.539 267.614ZM432.488 269.99C432.91 270.178 433.285 270.459 433.582 270.834C434.098 271.459 434.363 272.257 434.817 272.913C435.755 274.289 437.052 274.679 438.584 274.054C439.209 273.804 439.74 273.616 440.413 273.82C440.835 273.945 441.225 274.195 441.554 274.492C441.741 274.242 441.929 273.992 442.101 273.726C441.679 273.319 441.179 272.991 440.616 272.804C439.803 272.538 439.084 272.725 438.287 272.976C437.38 273.273 436.739 273.069 436.177 272.272C435.692 271.584 435.411 270.787 434.895 270.115C434.426 269.506 433.816 269.037 433.097 268.755C433.004 268.724 432.925 268.708 432.832 268.677C432.691 269.146 432.582 269.568 432.488 269.99Z" fill="white"/>
<path opacity="0.15" d="M435.192 263.019C435.614 262.221 436.192 261.221 436.88 260.158C439.178 267.27 439.912 277.633 433.316 279.322C433.316 279.306 429.33 274.163 435.192 263.019Z" fill="black"/>
<path d="M431.94 280.416C436.426 280.416 437.911 274.32 437.474 269.396C437.02 264.488 433.925 255.141 431.94 255.141C429.971 255.141 426.86 264.488 426.407 269.396C425.969 274.304 427.454 280.416 431.94 280.416Z" fill="#6A0DAD"/>
<path opacity="0.3" d="M431.94 280.416C436.426 280.416 437.911 274.32 437.474 269.396C437.02 264.488 433.925 255.141 431.94 255.141C429.971 255.141 426.86 264.488 426.407 269.396C425.969 274.304 427.454 280.416 431.94 280.416Z" fill="white"/>
<path opacity="0.2" d="M431.925 261.534C432.644 261.393 433.097 260.815 433.597 260.346C434.004 259.955 434.488 259.736 434.988 259.627C434.879 259.33 434.754 259.048 434.644 258.783C433.941 258.97 433.331 259.377 432.753 259.939C432.487 260.221 432.19 260.518 431.815 260.643C431.268 260.83 430.94 260.533 430.58 260.189C430.158 259.767 429.705 259.439 429.111 259.314C429.095 259.314 429.08 259.314 429.064 259.314C428.97 259.549 428.877 259.783 428.783 260.018C429.346 260.111 429.893 260.408 430.346 260.893C430.752 261.346 431.268 261.659 431.925 261.534ZM428.564 266.911C430.065 268.083 431.299 266.426 432.253 265.426C433.05 264.597 433.894 264.425 434.801 265.191C435.348 265.645 435.832 266.192 436.504 266.426C436.676 266.489 436.848 266.52 437.02 266.551C436.958 266.27 436.895 265.989 436.833 265.707C436.129 265.535 435.629 264.988 435.02 264.488C433.691 263.394 432.487 263.847 431.424 265.066C430.815 265.77 429.83 266.973 428.83 266.223C428.236 265.785 427.954 265.035 427.345 264.597C427.345 264.597 427.329 264.597 427.314 264.582C427.251 264.832 427.189 265.066 427.126 265.316C427.72 265.723 428.017 266.473 428.564 266.911ZM430.252 272.288C431.096 273.413 432.159 273.679 433.3 272.725C433.863 272.256 434.222 271.584 434.832 271.178C435.676 270.6 436.661 270.897 437.536 271.24C437.536 270.975 437.536 270.709 437.52 270.443C437.114 270.287 436.708 270.131 436.27 270.053C435.582 269.927 434.91 270.037 434.347 270.443C433.707 270.897 433.316 271.6 432.706 272.069C432.378 272.319 431.847 272.647 431.409 272.475C430.893 272.288 430.596 271.647 430.221 271.272C429.752 270.787 429.142 270.443 428.486 270.287C427.736 270.099 426.985 270.193 426.345 270.506C426.329 270.756 426.329 271.006 426.329 271.272C427.689 270.678 429.252 270.975 430.252 272.288ZM434.504 276.852C433.785 277.415 432.894 277.712 431.972 277.618C431.487 277.571 431.034 277.415 430.69 277.055C430.44 276.805 430.268 276.492 430.002 276.227C429.549 275.773 428.955 275.476 428.314 275.398C427.829 275.336 427.36 275.383 426.907 275.523C426.985 275.805 427.064 276.07 427.173 276.336C427.908 276.102 428.673 276.102 429.408 276.649C429.94 277.039 430.205 277.712 430.768 278.071C431.284 278.415 431.909 278.524 432.519 278.524C433.159 278.524 433.8 278.368 434.379 278.071C435.02 277.727 435.488 277.149 436.114 276.789C436.286 276.696 436.458 276.617 436.63 276.555C436.755 276.227 436.864 275.883 436.958 275.539C436.755 275.555 436.551 275.601 436.333 275.68C435.598 275.898 435.098 276.399 434.504 276.852Z" fill="white"/>
<path d="M436.989 269.833V325.416L511.439 282.369V226.786L436.989 269.833ZM478.536 263.049L469.845 268.067C468.048 269.099 466.594 268.38 466.594 266.41C466.594 264.472 468.063 262.049 469.845 261.002L478.536 255.984C480.333 254.953 481.803 255.672 481.803 257.641C481.818 259.579 480.349 262.002 478.536 263.049Z" fill="#6A0DAD"/>
<path d="M376.014 234.617V290.2L436.989 325.401V269.818L376.014 234.617Z" fill="#6A0DAD"/>
<g opacity="0.3">
<path d="M376.014 234.617V290.2L436.989 325.401V269.818L376.014 234.617Z" fill="white"/>
</g>
<path d="M390.801 288.278L389.941 287.152C388.894 287.887 388.659 289.403 389.05 290.622C389.456 291.842 390.332 292.826 391.207 293.764C392.207 294.858 393.208 295.937 394.208 297.031C394.614 297.469 395.036 297.938 395.193 298.5C395.349 299.079 395.162 299.798 394.614 300.032C394.317 300.157 393.989 300.141 393.677 300.11C393.473 300.095 393.286 300.079 393.083 300.063L400.007 304.065C400.335 304.065 400.664 304.034 400.961 303.893C401.992 303.455 402.367 302.158 402.305 301.048C402.195 299.032 401.086 297.203 399.835 295.609C397.412 292.545 394.302 290.013 390.801 288.278Z" fill="#6A0DAD"/>
<path d="M522.412 169.969L526.382 193.821L561.442 194.118L555.877 168.421L522.412 169.969Z" fill="#EB9481"/>
<path d="M511.814 127.563C509.219 130.689 501.154 140.114 500.81 141.959L507.093 146.039L511.814 127.563Z" fill="#EB9481"/>
<path d="M530.618 103.851C520.552 102.507 513.815 109.478 510.313 130.892C510.173 131.736 508.891 133.018 507.875 136.206C503.467 149.883 505.39 163.076 507.625 166.624C513.346 171.485 519.801 173.408 529.242 172.845C536.432 172.423 554.798 170.719 564.349 161.278C575.572 150.165 581.527 133.127 574.009 123.999C563.427 111.182 536.167 104.601 530.618 103.851Z" fill="#EB9481"/>
<path d="M507.625 166.64C508.86 168.61 516.018 172.939 522.959 173.127L522.427 169.329C522.411 169.329 515.503 169.329 507.625 166.64Z" fill="#EB9481"/>
<path d="M527.898 142.162C528.46 143.819 530.164 143.975 531.18 142.787C532.399 141.38 533.369 139.848 534.885 138.707C536.651 137.394 538.855 136.582 541.028 136.8C549.281 137.644 546.983 148.492 542.825 152.181C536.01 158.215 532.618 152.759 532.618 152.759C532.618 152.759 527.57 163.185 534.369 169.531C534.369 169.531 546.795 173.095 556.314 170.422C563.567 162.998 567.866 160.262 572.774 153.854C584.419 138.645 586.404 119.247 579.307 114.683C579.854 109.197 577.103 100.85 565.927 95.7853C555.283 90.9554 548.077 91.2211 540.277 91.44C532.478 91.6744 522.833 94.9725 515.768 88.7358C513.846 93.0187 514.174 98.2393 516.612 102.241C514.346 101.147 511.298 102.178 510.141 104.413C509 106.649 509.938 109.728 512.158 110.932C510.548 111.682 509.75 113.745 510.282 115.433C510.813 117.137 512.486 118.356 514.252 118.528C516.128 118.716 517.3 118.559 519.145 118.34C521.239 124.749 528.367 127.172 532.634 127.016C527.616 132.736 526.866 139.161 527.898 142.162Z" fill="#1F0735"/>
<path d="M516.487 194.649C523.802 188.069 521.583 187.709 526.335 183.817C532.228 178.972 558.05 172.938 560.128 175.033C564.067 179.034 567.741 180.675 567.741 180.675C567.741 180.675 566.521 184.646 550.938 188.413C536.073 192.023 530.195 191.523 516.487 194.649Z" fill="#F0F0F0"/>
<path d="M563.051 177.675C554.47 179.113 538.996 183.286 530.852 185.506C522.708 187.725 511.564 195.103 511.564 195.103C511.564 195.103 495.933 201.902 493.995 204.044C492.072 206.185 488.133 216.048 486.57 237.462C484.991 258.892 483.741 340.172 483.741 340.172C483.741 340.172 489.743 341.97 494.089 342.689L497.074 318.305L500.372 343.877C500.372 343.877 529.789 345.877 554.439 340.735C579.073 335.592 590.014 319.743 590.014 319.743C590.014 319.743 586.341 276.461 587.326 267.677C588.311 258.892 596.017 221.816 595.157 207.248C594.297 192.68 588.748 181.02 579.761 179.691C568.788 178.081 563.051 177.675 563.051 177.675Z" fill="#481670"/>
<path d="M567.241 182.113C565.021 182.989 562.723 183.661 560.426 184.317C558.144 185.005 555.846 185.661 553.548 186.271C548.937 187.522 544.342 188.772 539.715 189.913C535.104 191.101 530.446 191.961 525.725 192.773L511.58 195.087C516.363 194.852 521.13 194.399 525.882 193.805C530.633 193.242 535.385 192.398 540.043 191.226C544.686 190.038 549.297 188.756 553.845 187.256C558.378 185.771 562.958 184.317 567.241 182.113Z" fill="#1F0735"/>
<path d="M558.346 211.843C556.377 221.487 554.814 231.225 553.798 241.026C552.782 250.826 552.344 260.721 552.86 270.584L554.517 300.048L555.455 314.772L556.533 329.496L556.111 314.741L555.548 299.985L554.204 270.505C553.595 260.721 554.032 250.889 554.829 241.104C555.22 236.212 555.752 231.319 556.361 226.442C556.94 221.566 557.643 216.704 558.346 211.843Z" fill="#1F0735"/>
<path d="M495.902 309.566C487.43 308.207 484.57 305.502 484.57 305.502V311.77C484.57 311.77 490.822 315.037 495.902 315.272V309.566Z" fill="#1F0735"/>
<path d="M418.545 297.312C415.622 297.25 412.574 297.609 409.886 296.452C407.088 295.249 405.165 292.576 402.461 291.185C401.383 290.638 400.21 290.294 399.069 289.887C397.256 289.215 395.521 288.309 393.927 287.215C393.333 286.793 392.739 286.339 392.035 286.136C391.332 285.917 390.504 285.995 390.003 286.527C389.394 287.183 389.378 288.434 389.566 289.309C389.722 290.028 390.05 290.653 390.379 291.154C391.488 292.81 393.161 293.967 394.708 295.233C395.552 295.921 396.334 296.718 397.022 297.578C397.35 298 397.663 298.437 397.788 298.953C397.913 299.469 397.803 300.063 397.397 300.407C397.053 300.704 396.568 300.751 396.131 300.751C395.193 300.751 393.911 300.563 393.067 300.079C392.926 300.001 379.343 292.154 379.343 292.154C379.343 292.154 380.766 298.234 385.893 302.736C391.019 307.238 396.006 311.427 401.289 314.662C403.462 315.991 405.509 316.991 408.104 317.085C415.779 317.351 423.485 316.538 430.925 314.647C431.159 314.584 431.425 314.49 431.503 314.271C431.894 313.083 429.815 311.692 429.237 310.88C428.189 309.395 427.345 307.707 426.423 306.128C425.345 304.315 424.266 302.501 423.188 300.673C422.734 299.907 422.297 298.719 421.703 298.094C421.015 297.375 419.655 297.328 418.717 297.296C418.67 297.328 418.608 297.328 418.545 297.312Z" fill="#B16668"/>
<path d="M497.965 201.762C476.91 210.124 479.333 216.392 473.112 240.057C466.938 263.534 464.156 274.273 464.156 274.273L418.53 294.984C418.53 294.984 411.715 306.441 421.202 317.148C444.711 313.756 468.251 309.551 476.895 306.566C488.337 302.627 492.76 301.33 497.027 288.497C503.592 268.771 506.39 251.936 506.39 251.936C506.39 251.936 516.488 213.813 497.965 201.762Z" fill="#1F0735"/>
</g>
<defs>
<clipPath id="clip0_1036_8294">
<rect width="663.51" height="703.728" fill="white"/>
</clipPath>
</defs>
</svg>
